<?xml version="1.0" encoding="iso-8859-1"?>
<!-- Generator: Adobe Illustrator 18.0.0, SVG Export Plug-In . SVG Version: 6.00 Build 0)  -->
<!DOCTYPE svg PUBLIC "-//W3C//DTD SVG 1.1//EN" "http://www.w3.org/Graphics/SVG/1.1/DTD/svg11.dtd">
<svg version="1.1" id="Capa_1" xmlns="http://www.w3.org/2000/svg" xmlns:xlink="http://www.w3.org/1999/xlink" x="0px" y="0px"
	 viewBox="0 0 176.992 176.992" style="enable-background:new 0 0 176.992 176.992;" xml:space="preserve">
<g>
	<g>
		<defs>
			<circle id="SVGID_1_" cx="88.496" cy="88.496" r="88.496"/>
		</defs>
		<use xlink:href="#SVGID_1_"  style="overflow:visible;fill:#F5F5F5;"/>
		<clipPath id="SVGID_2_">
			<use xlink:href="#SVGID_1_"  style="overflow:visible;"/>
		</clipPath>
		<g style="clip-path:url(#SVGID_2_);">
			<g>
				<g>
					<g>
						<path style="fill:#E9D2BB;" d="M147.189,169.083H30.668v-0.896c0-2.432-0.112-5.216-0.23-8.161
							c-0.499-12.417-1.123-27.869,5.871-34.862c4.125-4.128,15.904-12.334,33.881-16.931l0.439-0.113l0.193,0.158
							c3.651-3.991,5.499-8.807,5.499-14.323v-2.069h25.212v2.069c0,5.464,1.864,10.27,5.542,14.288l0.154-0.123l0.438,0.113
							c17.979,4.597,29.758,12.807,33.878,16.931c6.996,6.993,6.37,22.446,5.872,34.866c-0.119,2.944-0.229,5.726-0.229,8.157
							V169.083z"/>
					</g>
					<g>
						<g>
							<path style="fill:#6D8CAC;" d="M147.189,180.723H30.668v-12.535c0-2.432-0.112-5.216-0.23-8.161
								c-0.499-12.417-1.123-27.869,5.871-34.862c4.125-4.128,15.904-12.334,33.881-16.931l0.439-0.113l17.788,20.685l18.812-20.685
								l0.438,0.113c17.979,4.597,29.758,12.807,33.878,16.931c6.996,6.993,6.37,22.446,5.872,34.866
								c-0.119,2.944-0.229,5.726-0.229,8.157V180.723z"/>
						</g>
					</g>
					<g>
						<path style="fill:#FFE5CB;" d="M88.92,108.903c-13.563,0-24.084-13.061-28.324-25.488c-2.984,0.326-5.353-2.911-5.353-7.026
							c0-2.8,1.153-5.275,2.929-6.393c-0.004-0.232-0.01-0.433-0.01-0.631c0-17.345,12.361-29.003,30.758-29.003
							c18.397,0,30.758,11.658,30.758,29.003c0,0.205-0.003,0.411-0.008,0.619c1.783,1.111,2.945,3.59,2.945,6.406
							c0,4.126-2.378,7.392-5.367,7.022C113.004,95.841,102.485,108.903,88.92,108.903z"/>
					</g>
					<path style="fill:#163344;" d="M61.384,69.558c0,0,5.884-6.666,7.449-11.833c10.781,0.334,41.833-1,41.833-1
						s2.882,11,7.75,10.833c4.869-0.166,4.869-0.166,4.869-0.166s4-8.834-2.955-20.334c3.999-9.333-2.958-15.5-9.912-17.166
						c-6.955-8.5-23.996-4.334-26.952,0.666c-8.867-7.833-15.823-1.166-17.214,3.667c-9.911,0.5-11.824,7.334-11.477,13
						c0,0-6.782,10.333,1.391,14.667C54.95,67.892,61.384,69.558,61.384,69.558z"/>
					
						<ellipse transform="matrix(0.9679 -0.2515 0.2515 0.9679 -17.0007 17.1895)" style="fill:#FFE5CB;" cx="58.741" cy="75.098" rx="4.418" ry="8.749"/>
					
						<ellipse transform="matrix(-0.9781 -0.2081 0.2081 -0.9781 220.8869 173.0773)" style="fill:#FFE5CB;" cx="119.547" cy="74.921" rx="4.418" ry="8.75"/>
				</g>
			</g>
		</g>
		<g style="clip-path:url(#SVGID_2_);">
			<rect x="48.998" y="134.392" style="fill:#F5F5F5;" width="5.667" height="51"/>
			<rect x="63.798" y="134.392" style="fill:#F5F5F5;" width="5.667" height="51"/>
			<rect x="78.598" y="134.392" style="fill:#F5F5F5;" width="5.667" height="51"/>
			<rect x="93.398" y="134.392" style="fill:#F5F5F5;" width="5.667" height="51"/>
			<rect x="108.198" y="134.392" style="fill:#F5F5F5;" width="5.667" height="51"/>
			<rect x="122.998" y="134.392" style="fill:#F5F5F5;" width="5.667" height="51"/>
		</g>
	</g>
	<g>
		<path style="fill:#163344;" d="M88.717,86.774c0,0,7.096,6.166,9.771,0.232c-2.211,0.931-4.305-1.279-4.305-1.279
			S89.182,81.655,88.717,86.774z"/>
		<path style="fill:#163344;" d="M88.949,86.774c0,0-7.096,6.166-9.771,0.232c2.211,0.931,4.305-1.279,4.305-1.279
			S88.485,81.655,88.949,86.774z"/>
	</g>
	<path style="fill:#163344;" d="M111.751,56.007c0,0,3.669-11.277-4.689-9.815c-0.88-1.048-2.496-1.614-5.295-1.181
		c0,0-0.505,0.995-1.086,2.528c-0.783-1.131-2.199-1.771-4.619-1.347c-0.88-1.048-2.496-1.614-5.295-1.181
		c0,0-0.624,1.231-1.284,3.067c-0.753-1.257-2.189-2.001-4.755-1.553c-0.879-1.048-2.495-1.614-5.294-1.181
		c0,0-0.414,0.814-0.925,2.108c-0.829-0.864-2.178-1.296-4.281-0.928c-0.879-1.048-2.495-1.614-5.294-1.181
		c0,0-8.61,16.903,4.314,19.246c-1.037-1.385-1.274-2.933-1.16-4.355c0.987,2.75,3.177,4.896,7.548,5.138
		c-1.22-1.266-1.643-2.802-1.693-4.247c1.068,1.656,2.883,2.935,5.806,3.464c-1.037-1.385-1.274-2.933-1.16-4.355
		c0.987,2.75,3.177,4.896,7.548,5.138c-1.746-1.813-1.867-4.178-1.584-6.035c0.866,2.348,2.796,4.242,6.529,4.918
		c-1.037-1.384-1.274-2.933-1.16-4.355c0.987,2.75,3.177,4.896,7.548,5.138c-1.477-1.533-1.793-3.464-1.685-5.147
		c0.96,2.087,2.863,3.742,6.297,4.364c-1.037-1.384-1.274-2.933-1.16-4.355c0.987,2.75,3.177,4.896,7.548,5.138
		C109.111,61.554,111.751,56.007,111.751,56.007z"/>
</g>
<g>
</g>
<g>
</g>
<g>
</g>
<g>
</g>
<g>
</g>
<g>
</g>
<g>
</g>
<g>
</g>
<g>
</g>
<g>
</g>
<g>
</g>
<g>
</g>
<g>
</g>
<g>
</g>
<g>
</g>
</svg>
