<?xml version="1.0" encoding="UTF-8"?>
<svg width="188px" height="199px" viewBox="0 0 188 199" version="1.1" xmlns="http://www.w3.org/2000/svg" xmlns:xlink="http://www.w3.org/1999/xlink">
    <!-- Generator: Sketch 50.2 (55047) - http://www.bohemiancoding.com/sketch -->
    <title>Group</title>
    <desc>Created with Sketch.</desc>
    <defs></defs>
    <g id="Page-1" stroke="none" stroke-width="1" fill="none" fill-rule="evenodd">
        <g id="color-icons" transform="translate(-761.000000, -115.000000)" fill-rule="nonzero">
            <g id="Capa_4" transform="translate(110.000000, 107.000000)">
                <g id="Group" transform="translate(648.000000, 8.000000)">
                    <path d="M119,198.1 C116.8,198.1 114.5,197.6 112.5,196.6 C104.8,193 101.5,183.8 105.1,176 L136.3,109.6 C139.9,101.9 149.1,98.6 156.9,102.2 C164.6,105.8 167.9,115 164.3,122.8 L133.1,189.2 C131.4,192.9 128.2,195.7 124.4,197.1 C122.6,197.8 120.8,198.1 119,198.1 Z M150.3,107.9 C147.1,107.9 144.1,109.7 142.6,112.8 L111.4,179.2 C109.4,183.4 111.2,188.5 115.5,190.4 C117.5,191.4 119.8,191.5 122,190.7 C124.1,189.9 125.8,188.4 126.8,186.4 L158,120 C160,115.8 158.2,110.7 153.9,108.8 C152.7,108.1 151.5,107.9 150.3,107.9 Z" id="Shape" fill="#EEEEEE"></path>
                    <g transform="translate(113.000000, 73.000000)" id="Shape">
                        <path d="M27.9,4 L58,18.2 C71.4,24.5 77.3,40.7 70.9,54.1 L69.8,56.5 C63.5,69.9 47.3,75.8 33.9,69.4 L3.8,55.2 L27.9,4 Z" fill="#B2D8F4"></path>
                        <path d="M45.3,75.5 C41,75.5 36.6,74.6 32.4,72.6 L2.3,58.4 C1.5,58 0.8,57.3 0.5,56.4 C0.2,55.5 0.2,54.6 0.6,53.7 L24.7,2.4 C25.5,0.7 27.6,-0.1 29.4,0.7 L59.5,14.9 C66.8,18.4 72.4,24.5 75.2,32.2 C78,39.9 77.6,48.2 74.1,55.5 L73,58 C67.8,69 56.8,75.5 45.3,75.5 Z M8.5,53.6 L35.4,66.3 C47.1,71.8 61.2,66.8 66.7,55 L67.8,52.6 C70.5,46.9 70.7,40.6 68.6,34.6 C66.5,28.7 62.2,23.9 56.5,21.3 L29.6,8.6 L8.5,53.6 Z" fill="#EEEEEE"></path>
                    </g>
                    <path d="M116.8,131.8 C116.6,131.8 116.4,131.8 116.2,131.8 L7.2,113.7 C6.1,113.5 5.2,112.8 4.7,111.9 C4.2,110.9 4.2,109.8 4.6,108.8 L54.2,3.2 C54.7,2.2 55.6,1.5 56.6,1.3 C57.7,1.1 58.8,1.4 59.6,2.1 L143.1,74.5 C144.3,75.5 144.6,77.2 144,78.6 L120,129.8 C119.4,131 118.1,131.8 116.8,131.8 Z M12.9,107.5 L114.7,124.4 L136.6,77.9 L58.6,10.3 L12.9,107.5 Z" id="Shape" fill="#EEEEEE"></path>
                    <g>
                        <ellipse id="Oval" fill="#B2D8F4" transform="translate(32.666200, 57.396800) rotate(-64.818698) translate(-32.666200, -57.396800) " cx="32.6662" cy="57.3968" rx="58.3021935" ry="7.90029723"></ellipse>
                        <path d="M8.4,113.8 C7.7,113.8 7,113.6 6.3,113.3 C2.9,111.7 1.6,107.3 6.7,91.2 C10.1,80.4 15.6,66.7 22.3,52.4 C29,38.2 36.1,25.1 42.2,15.6 C51.3,1.5 55.5,-0.4 59,1.2 C62.4,2.8 63.7,7.2 58.6,23.3 C55.2,34.1 49.7,47.8 43,62.1 C36.3,76.4 29.2,89.4 23.1,98.9 C15.6,110.5 11.5,113.8 8.4,113.8 Z M54.8,10.3 C49.7,16.1 39.7,32 28.7,55.5 C17.6,79 11.8,96.8 10.5,104.5 C15.6,98.7 25.6,82.8 36.6,59.3 C47.7,35.7 53.5,18 54.8,10.3 Z" id="Shape" fill="#EEEEEE"></path>
                    </g>
                </g>
            </g>
        </g>
    </g>
</svg>