<svg id="Слой_2" data-name="Слой 2" xmlns="http://www.w3.org/2000/svg" xmlns:xlink="http://www.w3.org/1999/xlink" width="289.319" height="215.157" viewBox="0 0 289.319 215.157">
  <defs>
    <linearGradient id="linear-gradient" x1="0.5" y1="1" x2="0.5" gradientUnits="objectBoundingBox">
      <stop offset="0.21" stop-color="#fff" stop-opacity="0"/>
      <stop offset="1" stop-color="#fff" stop-opacity="0.2"/>
    </linearGradient>
  </defs>
  <g id="Слой_1" data-name="Слой 1">
    <g id="Mobile" transform="translate(0 41.275)">
      <path id="Path_2175" data-name="Path 2175" d="M76.261,251.664,4.127,210c-6.11-3.524-5.347-9.686,1.736-13.76L180.086,95.651c7.059-4.05,17.73-4.519,23.84-.989l72.133,41.662c6.11,3.53,5.341,9.692-1.736,13.766L100.106,250.669C93.041,254.748,82.371,255.188,76.261,251.664Z" transform="translate(-0.003 -80.161)" fill="#d6d8e5" opacity="0.4"/>
      <path id="Path_2176" data-name="Path 2176" d="M92.052,242.186,19.919,200.524c-6.11-3.53-5.341-9.692,1.736-13.766L195.872,86.172c7.059-4.05,17.73-4.513,23.84-.989l72.133,41.662c6.11,3.524,5.347,9.686-1.736,13.76L115.892,241.2C108.833,245.27,98.162,245.716,92.052,242.186Z" transform="translate(-6.658 -76.168)" fill="#b1b4c4"/>
      <path id="Path_2177" data-name="Path 2177" d="M15.79,270.953V264.31l7.789,2.94Z" transform="translate(-6.655 -152.644)" fill="#b1b4c4"/>
      <path id="Path_2178" data-name="Path 2178" d="M495.487,164.178V157.79l-6.2,3.993Z" transform="translate(-206.168 -107.761)" fill="#b1b4c4"/>
      <path id="Path_2179" data-name="Path 2179" d="M92.052,232.474,19.919,190.812c-6.11-3.524-5.341-9.686,1.736-13.76L195.872,76.461c7.059-4.05,17.73-4.519,23.84-.989l72.133,41.662c6.11,3.53,5.347,9.692-1.736,13.766L115.892,231.485C108.833,235.558,98.162,236,92.052,232.474Z" transform="translate(-6.658 -72.075)" fill="#616e84"/>
      <ellipse id="Ellipse_260" data-name="Ellipse 260" cx="0.775" cy="1.337" rx="0.775" ry="1.337" transform="translate(19.959 125.352) rotate(-30)" fill="#757b89"/>
      <ellipse id="Ellipse_261" data-name="Ellipse 261" cx="0.775" cy="1.337" rx="0.775" ry="1.337" transform="translate(23.429 127.358) rotate(-30)" fill="#757b89"/>
      <ellipse id="Ellipse_262" data-name="Ellipse 262" cx="0.775" cy="1.337" rx="0.775" ry="1.337" transform="translate(26.907 129.363) rotate(-30)" fill="#757b89"/>
      <ellipse id="Ellipse_263" data-name="Ellipse 263" cx="0.775" cy="1.337" rx="0.775" ry="1.337" transform="translate(30.377 131.369) rotate(-30)" fill="#757b89"/>
      <ellipse id="Ellipse_264" data-name="Ellipse 264" cx="0.778" cy="1.341" rx="0.778" ry="1.341" transform="translate(60.431 149.332) rotate(-29.887)" fill="#757b89"/>
      <ellipse id="Ellipse_265" data-name="Ellipse 265" cx="0.775" cy="1.337" rx="0.775" ry="1.337" transform="translate(63.66 150.586) rotate(-30)" fill="#757b89"/>
      <ellipse id="Ellipse_266" data-name="Ellipse 266" cx="0.775" cy="1.337" rx="0.775" ry="1.337" transform="translate(67.132 152.591) rotate(-30)" fill="#757b89"/>
      <ellipse id="Ellipse_267" data-name="Ellipse 267" cx="0.775" cy="1.337" rx="0.775" ry="1.337" transform="translate(70.602 154.597) rotate(-30)" fill="#757b89"/>
      <path id="Path_2180" data-name="Path 2180" d="M81.08,315.609l-9.536-5.5a2.615,2.615,0,0,1-1.094-2.089h0c0-.81.486-1.157,1.094-.827l9.536,5.5a2.621,2.621,0,0,1,1.094,2.095h0C82.173,315.592,81.687,315.962,81.08,315.609Z" transform="translate(-29.687 -170.66)" fill="#757b89"/>
      <path id="Path_2181" data-name="Path 2181" d="M455.069,194.087l-8.871,5.121c-.579.324-1.018,0-1.018-.77h0A2.43,2.43,0,0,1,446.2,196.5l8.871-5.121c.579-.324,1.013,0,1.013.77h0A2.424,2.424,0,0,1,455.069,194.087Z" transform="translate(-187.582 -121.862)" fill="#757b89"/>
      <path id="Path_2182" data-name="Path 2182" d="M431.589,207.634l-8.871,5.121c-.579.324-1.018,0-1.018-.77h0a2.442,2.442,0,0,1,1.018-1.944l8.871-5.133c.579-.324,1.013,0,1.013.77h0a2.43,2.43,0,0,1-1.013,1.956Z" transform="translate(-177.689 -127.563)" fill="#757b89"/>
      <path id="Path_2183" data-name="Path 2183" d="M92.052,230.706,19.919,189.044c-6.11-3.53-5.341-9.692,1.736-13.766L195.872,74.692c7.059-4.05,17.73-4.513,23.84-.989l72.133,41.662c6.11,3.524,5.347,9.686-1.736,13.76L115.892,229.716C108.833,233.79,98.162,234.236,92.052,230.706Z" transform="translate(-6.658 -71.331)" fill="#20232d"/>
      <path id="Path_2184" data-name="Path 2184" d="M292.507,120.2l-28.162-16.26-.069.041a13.312,13.312,0,0,1-12.047,0c-3.327-1.921-3.327-5.04,0-6.944L252.3,97l-28.162-16.26a17.112,17.112,0,0,0-15.49,0L38.935,178.7c-4.276,2.465-4.276,6.469,0,8.94L107.3,227.12a17.112,17.112,0,0,0,15.49,0l169.716-97.981C296.783,126.667,296.783,122.663,292.507,120.2Z" transform="translate(-15.056 -74.515)" fill="#fff"/>
      <path id="Path_2185" data-name="Path 2185" d="M292.508,129.124,122.8,227.106c-3.865,2.234-9.912,2.442-14.194.637a10.693,10.693,0,0,1-1.29-.637L38.942,187.631a7.222,7.222,0,0,1-2.4-2.083c-1.614-2.315-.816-5.005,2.4-6.857L208.646,80.7a17.148,17.148,0,0,1,15.49,0L252.3,96.969l-.069.041c-3.327,1.921-3.327,5.028,0,6.944a13.312,13.312,0,0,0,12.047,0l.064-.035,28.168,16.26C296.784,122.655,296.784,126.654,292.508,129.124Z" transform="translate(-15.057 -74.501)" opacity="0.5" fill="url(#linear-gradient)"/>
      <ellipse id="Ellipse_268" data-name="Ellipse 268" cx="3.235" cy="1.869" rx="3.235" ry="1.869" transform="translate(238.109 25.182)" fill="#2b303f"/>
      <path id="Path_2186" data-name="Path 2186" d="M415.137,118.027a.579.579,0,0,1,0-1.111,2.147,2.147,0,0,1,1.915,0,.579.579,0,0,1,0,1.111,2.147,2.147,0,0,1-1.915,0Z" transform="translate(-174.748 -90.444)" fill="#fff" opacity="0.1"/>
    </g>
    <path id="Path_2187" data-name="Path 2187" d="M309.754,162.635,249.4,127.778c-3.507-2.025-3.067-5.561.984-7.9l40.609-23.435c4.051-2.315,10.184-2.6,13.691-.579l60.375,34.857c3.507,2.025,3.067,5.561-.984,7.9l-40.6,23.441C319.389,164.406,313.261,164.66,309.754,162.635Z" transform="translate(-104.09 -39.824)" fill="#e9eaf2"/>
    <path id="Path_2188" data-name="Path 2188" d="M320.675,139.265l-21.734,3.362,3.489-7.517-34.07,5.271,9.524,5.5,15.415,8.9,15.913,9.189Z" transform="translate(-113.078 -56.929)" fill="#dadce5"/>
    <ellipse id="Ellipse_269" data-name="Ellipse 269" cx="10.78" cy="6.226" rx="10.78" ry="6.226" transform="translate(224.742 86.872)" fill="#dadce5"/>
    <path id="Path_2189" data-name="Path 2189" d="M203.254,224.117,142.9,189.271c-3.507-2.025-3.067-5.561.984-7.9l40.6-23.441c4.05-2.315,10.184-2.592,13.691-.579l60.358,34.846c3.507,2.031,3.067,5.567-.984,7.9l-40.6,23.441C212.889,225.893,206.767,226.142,203.254,224.117Z" transform="translate(-59.215 -65.731)" fill="#e9eaf2"/>
    <path id="Path_2190" data-name="Path 2190" d="M152.349,261.6l-40.6,23.435a12.83,12.83,0,0,1-2.552,1.123,10.7,10.7,0,0,1-1.29-.636L39.531,246.045a7.222,7.222,0,0,1-2.4-2.083,9.484,9.484,0,0,1,1.557-1.105L79.3,219.416c4.05-2.315,10.184-2.592,13.691-.579l60.375,34.857C156.834,255.72,156.4,259.255,152.349,261.6Z" transform="translate(-15.647 -91.64)" fill="#e9eaf2"/>
    <path id="Path_2191" data-name="Path 2191" d="M107.675,262.235,85.941,265.6l3.489-7.517-34.07,5.271,9.53,5.5,15.409,8.9,15.913,9.183Z" transform="translate(-23.328 -108.744)" fill="#dadce5"/>
    <ellipse id="Ellipse_270" data-name="Ellipse 270" cx="10.78" cy="6.226" rx="10.78" ry="6.226" transform="translate(101.492 158.033)" fill="#dadce5"/>
    <path id="Path_2192" data-name="Path 2192" d="M436.241,139.976l-1.221-.706,2.043-1.18,1.221.706Z" transform="translate(-183.301 -58.185)" fill="#e9eaf2"/>
    <path id="Path_2193" data-name="Path 2193" d="M439.067,141.265l-1.227-.706,2.858-1.649,1.227.706Z" transform="translate(-184.489 -58.531)" fill="#e9eaf2"/>
    <path id="Path_2194" data-name="Path 2194" d="M441.887,142.377l-1.227-.706,4.085-2.361,1.227.706Z" transform="translate(-185.678 -58.699)" fill="#e9eaf2"/>
    <path id="Path_2195" data-name="Path 2195" d="M444.711,143.32l-1.221-.706,5.717-3.3,1.227.706Z" transform="translate(-186.87 -58.699)" fill="#e9eaf2"/>
    <path id="Path_2196" data-name="Path 2196" d="M453.394,149.134l-1.9-1.1,3.807-2.2,1.909,1.1Z" transform="translate(-190.241 -61.446)" fill="#e9eaf2"/>
    <path id="Path_2197" data-name="Path 2197" d="M457.784,151.668l-1.9-1.1,3.813-2.2,1.9,1.1Z" transform="translate(-192.091 -62.517)" fill="#e9eaf2"/>
    <path id="Path_2198" data-name="Path 2198" d="M462.174,154.2l-1.9-1.1,3.813-2.2,1.9,1.105Z" transform="translate(-193.941 -63.583)" fill="#e9eaf2"/>
    <path id="Path_2199" data-name="Path 2199" d="M252.914,35.332,193.21.862A4.647,4.647,0,0,0,189,.283h0a3.033,3.033,0,0,0-.446.249L182.32,4l4.537,6.365V55.422a14,14,0,0,0,6.365,10.994l23.389,13.5,2.847,7.343-2.986,12.991,6.6-3.669,6.452-9.206,20.252,11.7.712,6.07,6.539-3.645c1.36-.579,2.228-2.054,2.228-4.288V46.337A13.994,13.994,0,0,0,252.914,35.332Z" transform="translate(-76.824 0)" fill="#edeef7"/>
    <path id="Path_2200" data-name="Path 2200" d="M244.8,41.668,185.1,7.2c-3.507-2.025-6.365-.382-6.365,3.669v50.92A14,14,0,0,0,185.1,72.782l23.389,13.5,6.463,16.665,6.463-9.2L244.8,107.252c3.512,2.025,6.365.382,6.365-3.669V52.674A14.049,14.049,0,0,0,244.8,41.668Z" transform="translate(-75.311 -2.668)" fill="#f8f9ff"/>
    <path id="Path_2201" data-name="Path 2201" d="M244.32,81.723c-.382-5.057-3.35-10.282-7.059-12.429-2.471-1.423-4.739-1.2-6.012.532a14.82,14.82,0,0,0-5.867-7.389c-3.709-2.141-6.678-.341-7.059,4.276a10.821,10.821,0,0,0,.226,3.3,26.687,26.687,0,0,0,3.622,9.044l9.085,14.767,9.258-4.184a6.759,6.759,0,0,0,3.611-4.872A9.131,9.131,0,0,0,244.32,81.723Z" transform="translate(-91.977 -25.931)" fill="#3f51b5"/>
    <ellipse id="Ellipse_271" data-name="Ellipse 271" cx="17.822" cy="10.288" rx="17.822" ry="10.288" transform="translate(123.266 112.263)" opacity="0.05"/>
  </g>
</svg>
