<?xml version="1.0" encoding="UTF-8"?>
<svg width="88px" height="64px" viewBox="0 0 88 64" version="1.1" xmlns="http://www.w3.org/2000/svg" xmlns:xlink="http://www.w3.org/1999/xlink">
    <!-- Generator: Sketch 50.2 (55047) - http://www.bohemiancoding.com/sketch -->
    <title>undraw_upgrade_06a0</title>
    <desc>Created with Sketch.</desc>
    <defs></defs>
    <g id="Page-1" stroke="none" stroke-width="1" fill="none" fill-rule="evenodd">
        <g id="Online-Education" transform="translate(-1122.000000, -163.000000)" fill-rule="nonzero">
            <g id="Body" transform="translate(-2.000000, -2.000000)">
                <g id="right-side-bar" transform="translate(1012.000000, 120.000000)">
                    <g id="Upgrade" transform="translate(24.000000, 24.000000)">
                        <g id="undraw_upgrade_06a0" transform="translate(88.000000, 21.000000)">
                            <path d="M82.1545216,30.5842328 C82.203227,30.024423 82.228818,29.4555173 82.228818,28.8808234 C82.228818,19.8816945 76.1332083,12.5859752 68.614409,12.5859752 C66.2204128,12.5859752 63.9634522,13.3301832 62.0102814,14.6325473 C56.6881801,10.4980583 49.7398124,8 42.1384615,8 C29.7697561,8 19.1305066,14.6209707 14.4102064,24.1162382 C14.1485178,24.0980465 13.8843527,24.0881237 13.6177111,24.0881237 C6.09478424,24.0881237 0,31.3830161 0,40.3821449 C0,43.6897361 0.825515947,46.7682767 2.24045028,49.338275 C2.24045028,57.4344314 8.71662289,64 16.7051407,64 L26.7764353,64 C27.4129081,62.9605895 28.8303189,62.7199622 29.817636,63.2665416 C30.0784991,63.4104219 30.3212008,63.5973008 30.6126079,63.6634526 C31.7790619,63.9115219 32.5624765,62.0319832 33.7429644,62.2147276 C34.3356848,62.3065133 34.7979737,62.9200715 35.3939962,62.8572272 C35.7894184,62.8150554 36.0890807,62.4834694 36.4605629,62.3428968 C37.0557598,62.1163268 37.659212,62.430548 38.0760976,62.9407439 C38.3179737,62.2436691 38.3163227,61.4175982 38.7076173,60.7784062 C39.2995122,59.8158971 40.7169231,59.5752698 41.7042402,60.1218493 C41.9651032,60.2657295 42.2078049,60.4526084 42.499212,60.5187602 C43.665666,60.7668296 44.4490807,58.8872909 45.6295685,59.0700353 C46.2222889,59.1618209 46.6845779,59.7753791 47.2806004,59.7125349 C47.6760225,59.6703631 47.9756848,59.3387771 48.347167,59.1982045 C49.2733959,58.8451191 50.2219137,59.8034936 50.4497561,60.7693103 C50.5380401,61.1948446 50.5847644,61.627976 50.5892683,62.0625784 C51.3883677,61.6747634 52.0636398,60.5840852 52.9758349,60.7254847 C53.5685553,60.8172704 54.0308443,61.4308285 54.6268668,61.3679843 C55.0222889,61.3258125 55.3219512,60.9942265 55.6934334,60.8536539 C56.6196623,60.5005685 57.5681801,61.458943 57.7960225,62.4247597 C57.9173734,62.9374363 57.9256285,63.4699585 57.9462664,63.9958655 L74.6340713,63.9958655 C80.9079925,63.9958655 85.9915197,58.8426384 85.9915197,52.4854481 C87.2644653,50.0047547 88,47.0874592 88,43.9634393 C88,38.423224 85.6885553,33.527989 82.1545216,30.5842328 Z" id="Shape" fill="#7467EF" opacity="0.401506696"></path>
                            <circle id="Oval" fill="#7467EF" cx="51" cy="14" r="7"></circle>
                            <polygon id="Shape" fill="#FFFFFF" points="49 15.2667751 51.4875045 13 54 15.2667751 52.2925741 15.2667751 52.2925741 17 50.7074259 17 50.7074259 15.2781619"></polygon>
                            <path d="M59.6431967,32.8944691 C59.4660504,31.9164033 58.730328,31.1657452 57.8098729,31.0239275 C56.8894179,30.8821097 55.9860779,31.3802317 55.5588678,32.2651822 C54.6356728,32.3729184 53.9522276,33.2352213 54.0026152,34.2287066 C54.0530028,35.2221919 54.8196348,36.0000746 55.7482903,36 L59.5411436,36 C60.3444127,35.9974222 60.9955599,35.3015459 60.9999898,34.4409417 C61.002842,33.6211986 60.4070317,32.9420941 59.6431967,32.8944691 Z M57.9655603,33.8163744 L57.9655603,35.001007 L57.0353348,35.001007 L57.0353348,33.813228 L56.0405,33.813228 L57.4993462,32.2502366 L58.9574583,33.813228 L57.9655603,33.8163744 Z" id="Shape" fill="#FFFFFF"></path>
                            <path d="M72.6431967,53.8944691 C72.4660504,52.9164033 71.730328,52.1657452 70.8098729,52.0239275 C69.8894179,51.8821097 68.9860779,52.3802317 68.5588678,53.2651822 C67.6356728,53.3729184 66.9522276,54.2352213 67.0026152,55.2287066 C67.0530028,56.2221919 67.8196348,57.0000746 68.7482903,57 L72.5411436,57 C73.3444127,56.9974222 73.9955599,56.3015459 73.9999898,55.4409417 C74.002842,54.6211986 73.4070317,53.9420941 72.6431967,53.8944691 Z M70.9655603,54.8163744 L70.9655603,56.001007 L70.0353348,56.001007 L70.0353348,54.813228 L69.0405,54.813228 L70.4993462,53.2502366 L71.9574583,54.813228 L70.9655603,54.8163744 Z" id="Shape" fill="#FFFFFF"></path>
                            <path d="M26.6746435,39.0250021 C26.3679903,37.4614533 25.1054335,36.2629922 23.5276447,36.0377655 C21.9498559,35.8125389 20.4022364,36.6098523 19.6701099,38.0251171 C18.0882178,38.1988172 16.917892,39.5781217 17.0045122,41.1666961 C17.0911323,42.7552705 18.4044966,43.9992274 19.9959022,44 L26.4995301,44 C27.8792711,43.9955263 28.9964092,42.8779926 28.9999857,41.498659 C29.0044069,40.1878267 27.9836132,39.1019249 26.6746435,39.0250021 Z M23.7987123,40.498774 L23.7987123,42.3992069 L22.1982579,42.3992069 L22.1982579,40.498774 L20.4976223,40.498774 L22.9988923,37.9990615 L25.4977189,40.498774 L23.7987123,40.498774 Z" id="Shape" fill="#FFFFFF"></path>
                            <polygon id="Shape" fill="#FFFFFF" points="55.125 45 55.125 43.48125 55.825 44.18125 56 44 55 43 54 44 54.175 44.175 54.875 43.48125 54.875 45"></polygon>
                            <polygon id="Shape" fill="#FFFFFF" points="8.125 48 8.125 46.48125 8.825 47.18125 9 47 8 46 7 47 7.175 47.175 7.875 46.48125 7.875 48"></polygon>
                            <polygon id="Shape" fill="#FFFFFF" points="55.125 27 55.125 25.4812344 55.825 26.1818182 56 26.000834 55 25 54 26.000834 54.175 26.17598 54.875 25.4812344 54.875 27"></polygon>
                            <polygon id="Shape" fill="#FFFFFF" points="37.125 16 37.125 14.4812344 37.825 15.1818182 38 15.000834 37 14 36 15.000834 36.175 15.17598 36.875 14.4812344 36.875 16"></polygon>
                            <polygon id="Shape" fill="#FFFFFF" points="31.125 30 31.125 28.4812344 31.825 29.1818182 32 29.000834 31 28 30 29.000834 30.175 29.17598 30.875 28.4812344 30.875 30"></polygon>
                            <polygon id="Shape" fill="#FFFFFF" points="73.125 38 73.125 36.4812344 73.825 37.1818182 74 37.000834 73 36 72 37.000834 72.175 37.17598 72.875 36.4812344 72.875 38"></polygon>
                            <polygon id="Shape" fill="#FFFFFF" points="29.125 50 29.125 48.4812344 29.825 49.1818182 30 49.000834 29 48 28 49.000834 28.175 49.17598 28.875 48.4812344 28.875 50"></polygon>
                            <circle id="Oval" fill="#FFFFFF" cx="64.5" cy="24.5" r="1"></circle>
                            <circle id="Oval" fill="#FFFFFF" cx="18.5" cy="22.5" r="1"></circle>
                            <circle id="Oval" fill="#FFFFFF" cx="32.5" cy="35.5" r="1"></circle>
                            <circle id="Oval" fill="#FFFFFF" cx="76.5" cy="44.5" r="1"></circle>
                            <circle id="Oval" fill="#FFFFFF" cx="58.5" cy="51.5" r="1"></circle>
                            <circle id="Oval" fill="#FFFFFF" cx="25.5" cy="57.5" r="1"></circle>
                            <circle id="Oval" fill="#FFFFFF" cx="7.5" cy="36.5" r="1"></circle>
                            <circle id="Oval" fill="#FFFFFF" cx="10.5" cy="30.5" r="1"></circle>
                            <circle id="Oval" fill="#FFFFFF" cx="63.5" cy="59.5" r="1"></circle>
                            <circle id="Oval" fill="#FFFFFF" cx="17.5" cy="50.5" r="1"></circle>
                            <circle id="Oval" fill="#FFFFFF" cx="23.5" cy="28.5" r="1"></circle>
                            <polygon id="Shape" fill="#FFFFFF" points="32 17.9393939 31.0606061 17.9393939 31.0606061 17 30.9393939 17 30.9393939 17.9393939 30 17.9393939 30 18.0606061 30.9393939 18.0606061 30.9393939 19 31.0606061 19 31.0606061 18.0606061 32 18.0606061"></polygon>
                            <polygon id="Shape" fill="#FFFFFF" points="64 42.939 63.061 42.939 63.061 42 62.939 42 62.939 42.939 62 42.939 62 43.061 62.939 43.061 62.939 44 63.061 44 63.061 43.061 64 43.061"></polygon>
                            <polygon id="Shape" fill="#FFFFFF" points="59 57.939 58.061 57.939 58.061 57 57.939 57 57.939 57.939 57 57.939 57 58.061 57.939 58.061 57.939 59 58.061 59 58.061 58.061 59 58.061"></polygon>
                            <polygon id="Shape" fill="#FFFFFF" points="20 54.939 19.061 54.939 19.061 54 18.939 54 18.939 54.939 18 54.939 18 55.061 18.939 55.061 18.939 56 19.061 56 19.061 55.061 20 55.061"></polygon>
                            <polygon id="Shape" fill="#FFFFFF" points="15 40.939 14.061 40.939 14.061 40 13.939 40 13.939 40.939 13 40.939 13 41.061 13.939 41.061 13.939 42 14.061 42 14.061 41.061 15 41.061"></polygon>
                            <polygon id="Shape" fill="#3F3D56" points="36.6290984 55.5008834 36.6338798 55.0035336 36.4030055 55 36.398224 55.4973498 36 56.9849823 37 57"></polygon>
                            <polygon id="Shape" fill="#3F3D56" points="38.6291611 55.501292 38.6338216 55.0043066 38.4027963 55 38.3981358 55.4978467 38 56.9853575 39 57"></polygon>
                            <polygon id="Shape" fill="#3F3D56" points="39.6286689 55.5008834 39.6334471 55.0035336 39.4027304 55 39.3979522 55.4973498 39 56.9849823 40 57"></polygon>
                            <polygon id="Shape" fill="#3F3D56" points="48.6291611 55.501292 48.6338216 55.0034453 48.4027963 55 48.3981358 55.4978467 48 56.9844961 49 57"></polygon>
                            <polygon id="Shape" fill="#3F3D56" points="49.6291611 55.501292 49.6338216 55.0034453 49.4027963 55 49.3981358 55.4978467 49 56.9844961 50 57"></polygon>
                            <polygon id="Shape" fill="#3F3D56" points="50.6291611 55.501292 50.6338216 55.0034453 50.4027963 55 50.3981358 55.4978467 50 56.9844961 51 57"></polygon>
                            <polygon id="Shape" fill="#3F3D56" points="42.6291611 55.501292 42.6338216 55.0034453 42.4027963 55 42.3981358 55.4978467 42 56.9844961 43 57"></polygon>
                            <polygon id="Shape" fill="#3F3D56" points="44.6291611 55.501292 44.6338216 55.0034453 44.4034621 55 44.3988016 55.4978467 44 56.9844961 45 57"></polygon>
                            <polygon id="Shape" fill="#3F3D56" points="44.6287425 55.501292 44.6333999 55.0034453 44.4031936 55 44.3985363 55.4978467 44 56.9844961 45 57"></polygon>
                            <path d="M41.9982086,21.6195812 C41.9793986,19.9581161 39.8798464,17.0125641 38.746769,17.0000404 C37.6136916,16.9875168 35.5419066,19.8863141 35.4809981,21.5469442 L35.4272553,21.5469442 L35,54.9273631 L41.5727447,55 L42,21.6204161 L41.9982086,21.6195812 Z" id="Shape" fill="#3F3D56"></path>
                            <path d="M52.9973129,21.6195812 C52.9785029,19.9581161 50.8789507,17.0125641 49.7458733,17.0000404 C48.6127959,16.9875168 46.5410109,19.8863141 46.4809981,21.5469442 L46.4272553,21.5469442 L46,54.9273631 L52.5727447,55 L53,21.6204161 L52.9973129,21.6195812 Z" id="Shape" fill="#3F3D56"></path>
                            <path d="M47.999129,6.67138737 C47.9895483,4.26649889 45.964539,0.0123937816 44.8636307,2.71969686e-05 C43.7627224,-0.0123393876 41.7281324,4.19559713 41.6610676,6.59553899 L41.6096802,6.59553899 L41,54.9274494 L47.3903198,55 L48,6.66726518 L47.999129,6.67138737 Z" id="Shape" fill="#2F2E41"></path>
                            <polygon id="Shape" fill="#7467EF" opacity="0.797712054" points="42 32.2671275 44.488397 30 47 32.2671275 45.2934666 32.2671275 45.2934666 34 43.7074259 34 43.7074259 32.2776987"></polygon>
                            <g id="Group" opacity="0.1" transform="translate(35.000000, 0.000000)" fill="#000000">
                                <path d="M11.5623944,22.621021 C12.168169,21.1584835 13.3509859,19.6331832 14.0868545,19.6422673 C15.0446009,19.6538288 16.7701408,22.2675676 16.9656808,23.9365616 L16.9864319,22.1436937 C16.9696714,20.5003003 15.0988732,17.5867868 14.0892488,17.5743994 C13.3629577,17.5653153 12.2024883,19.050976 11.5895305,20.4961712 L11.5623944,22.621021 Z" id="Shape"></path>
                                <path d="M0.431784038,24.0067568 L0.479671362,24.0067568 C0.53314554,22.3641892 2.38,19.4969219 3.38882629,19.5093093 C4.04807512,19.5175676 5.07366197,20.7620871 5.7113615,22.0825826 L5.86619718,8.67447447 L5.91328638,8.67447447 C5.97553991,6.26636637 7.83915493,2.05135135 8.84798122,2.06786787 C9.80093897,2.07942943 11.5105164,5.88400901 11.703662,8.33588589 L11.7220188,6.68423423 C11.7132394,4.2753003 9.85760563,0.014039039 8.84877934,0.00165165165 C7.83995305,-0.0107357357 5.97553991,4.20427928 5.91408451,6.61238739 L5.86699531,6.61238739 L5.71215962,20.0204955 C5.07366197,18.6991742 4.04887324,17.4554805 3.38962441,17.4472222 C2.38079812,17.4348348 0.533943662,20.3021021 0.480469484,21.9446697 L0.43258216,21.9446697 L0.0518779343,54.962012 L0.0758215962,54.962012 L0.431784038,24.0067568 Z" id="Shape"></path>
                            </g>
                            <rect id="Rectangle-path" fill="#ECECF3" transform="translate(44.500000, 3.000000) rotate(0.680000) translate(-44.500000, -3.000000) " x="44" y="2" width="1" height="2" rx="0.5"></rect>
                        </g>
                    </g>
                </g>
            </g>
        </g>
    </g>
</svg>