<?xml version="1.0" encoding="iso-8859-1"?>
<!-- Generator: Adobe Illustrator 19.0.0, SVG Export Plug-In . SVG Version: 6.00 Build 0)  -->
<svg version="1.1" id="Layer_1" xmlns="http://www.w3.org/2000/svg" xmlns:xlink="http://www.w3.org/1999/xlink" x="0px" y="0px"
	 viewBox="0 0 512 512" style="enable-background:new 0 0 512 512;" xml:space="preserve">
<circle style="fill:#C2D5D8;" cx="256" cy="256" r="256"/>
<path style="fill:#B7C9CC;" d="M464.172,404.916c-0.124-0.304-0.232-0.616-0.372-0.916c-0.252-0.7-0.512-1.388-0.828-2.052
	c-0.252-0.704-0.512-1.384-0.828-2.048c-0.252-0.708-0.512-1.392-0.828-2.052c-0.252-0.7-0.512-1.384-0.828-2.048
	c-0.252-0.708-0.512-1.388-0.828-2.052c-0.248-0.696-0.512-1.384-0.828-2.048c-0.248-0.704-0.512-1.388-0.828-2.052
	c-0.248-0.7-0.512-1.388-0.828-2.052c-0.248-0.696-0.512-1.384-0.828-2.048c-0.248-0.7-0.512-1.384-0.828-2.048
	c-0.244-0.696-0.504-1.376-0.82-2.036c-0.248-0.708-0.512-1.396-0.832-2.068c-0.248-0.7-0.512-1.384-0.828-2.048
	c-0.248-0.704-0.512-1.388-0.828-2.048c-0.248-0.704-0.512-1.384-0.828-2.048c-0.248-0.704-0.512-1.388-0.828-2.048
	c-0.248-0.704-0.512-1.392-0.828-2.056c-0.248-0.7-0.512-1.384-0.828-2.048c-0.248-0.704-0.512-1.384-0.828-2.048
	c-0.248-0.704-0.508-1.388-0.828-2.052c-0.248-0.704-0.508-1.388-0.828-2.052c-0.248-0.704-0.512-1.384-0.824-2.048
	c-0.252-0.704-0.516-1.392-0.828-2.052c-0.252-0.7-0.512-1.384-0.828-2.048c-0.252-0.704-0.512-1.388-0.828-2.052
	c-0.248-0.696-0.504-1.368-0.82-2.032c-0.252-0.708-0.512-1.4-0.832-2.068c-0.252-0.7-0.512-1.384-0.828-2.048
	c-0.252-0.7-0.512-1.388-0.828-2.052c-0.252-0.704-0.512-1.388-0.828-2.052c-0.252-0.7-0.512-1.384-0.828-2.048
	c-0.252-0.708-0.512-1.388-0.828-2.052c-0.252-0.696-0.512-1.384-0.828-2.048c-0.252-0.704-0.512-1.388-0.828-2.048
	c-0.252-0.7-0.512-1.384-0.828-2.048c-0.252-0.704-0.512-1.392-0.828-2.056c-0.252-0.7-0.512-1.384-0.828-2.048
	c-0.248-0.7-0.512-1.384-0.828-2.048c-0.248-0.704-0.512-1.392-0.828-2.056c-0.248-0.696-0.512-1.384-0.828-2.048
	c-0.248-0.704-0.512-1.388-0.828-2.048c-0.244-0.696-0.504-1.376-0.82-2.032c-0.248-0.712-0.512-1.4-0.832-2.064
	c-0.248-0.704-0.512-1.388-0.828-2.052c-0.248-0.7-0.512-1.384-0.828-2.048c-0.248-0.7-0.512-1.388-0.828-2.052
	c-0.248-0.704-0.512-1.388-0.828-2.052c-0.248-0.7-0.508-1.384-0.828-2.048c-0.248-0.708-0.508-1.388-0.828-2.052
	c-0.248-0.704-0.512-1.392-0.828-2.048c-0.248-0.704-0.512-1.388-0.824-2.052c-0.252-0.704-0.516-1.388-0.828-2.048
	c-0.252-0.7-0.516-1.388-0.828-2.052c-0.252-0.704-0.516-1.388-0.828-2.048c-0.252-0.7-0.512-1.384-0.828-2.048
	c-0.252-0.704-0.512-1.392-0.828-2.056c-0.248-0.696-0.504-1.368-0.82-2.024c-0.252-0.712-0.512-1.404-0.832-2.072
	c-0.252-0.704-0.512-1.392-0.828-2.048c-0.252-0.704-0.512-1.384-0.828-2.048c-0.252-0.708-0.512-1.392-0.828-2.052
	c-0.252-0.7-0.512-1.384-0.828-2.048c-0.252-0.708-0.512-1.388-0.828-2.052c-0.252-0.696-0.512-1.384-0.828-2.048
	c-0.252-0.7-0.512-1.384-0.828-2.048c-0.252-0.7-0.512-1.392-0.828-2.056c-0.248-0.696-0.512-1.384-0.828-2.048
	c-0.248-0.704-0.512-1.388-0.828-2.052c-0.248-0.7-0.512-1.384-0.828-2.048c-0.248-0.708-0.512-1.388-0.828-2.052
	c-0.248-0.696-0.512-1.384-0.828-2.048c-0.244-0.696-0.504-1.376-0.82-2.032c-0.248-0.708-0.512-1.396-0.832-2.064
	c-0.248-0.704-0.512-1.388-0.828-2.048c-0.248-0.7-0.512-1.384-0.828-2.048c-0.248-0.7-0.508-1.384-0.828-2.048
	c-0.248-0.704-0.508-1.388-0.828-2.052c-0.248-0.7-0.512-1.384-0.828-2.048c-0.248-0.704-0.512-1.388-0.828-2.048
	c-0.248-0.7-0.512-1.384-0.828-2.048c-0.248-0.704-0.512-1.388-0.828-2.048c-0.248-0.7-0.512-1.384-0.824-2.048
	c-0.252-0.704-0.516-1.388-0.828-2.048c-0.252-0.7-0.512-1.384-0.828-2.048c-0.252-0.704-0.512-1.388-0.828-2.048
	c-0.252-0.7-0.508-1.384-0.828-2.048c-0.248-0.696-0.504-1.376-0.82-2.036c-0.252-0.708-0.512-1.396-0.832-2.064
	c-0.252-0.7-0.512-1.384-0.828-2.048c-0.252-0.704-0.512-1.388-0.828-2.048c-0.252-0.7-0.512-1.384-0.828-2.048
	c-0.252-0.704-0.512-1.388-0.828-2.048c-0.252-0.7-0.512-1.384-0.828-2.048C384.084,205.632,376.736,200,368,200
	c-5.436,0-10.352,2.184-13.956,5.704c-0.092-0.744-0.344-1.456-0.828-2.044c-0.092-0.748-0.34-1.46-0.828-2.048
	c-0.092-0.748-0.34-1.464-0.828-2.052c-0.092-0.748-0.34-1.46-0.828-2.048c-0.092-0.748-0.34-1.46-0.828-2.048
	c-0.092-0.748-0.34-1.46-0.828-2.048c-0.092-0.748-0.34-1.46-0.828-2.048c-0.092-0.748-0.34-1.46-0.824-2.048
	c-0.096-0.748-0.344-1.46-0.828-2.048c-0.096-0.748-0.344-1.46-0.828-2.048c-0.096-0.748-0.34-1.46-0.828-2.048
	c-0.096-0.748-0.34-1.46-0.828-2.048c-0.096-0.748-0.34-1.464-0.828-2.052c-0.096-0.748-0.34-1.456-0.824-2.044
	c-0.092-0.748-0.34-1.464-0.828-2.052c-0.096-0.748-0.34-1.46-0.828-2.048c-0.096-0.748-0.34-1.46-0.828-2.048
	c-0.096-0.748-0.34-1.46-0.828-2.048c-0.096-0.748-0.34-1.46-0.828-2.048c-0.096-0.752-0.34-1.46-0.828-2.048
	c-0.096-0.748-0.34-1.46-0.828-2.048c-0.096-0.748-0.344-1.46-0.828-2.048c-0.092-0.748-0.34-1.464-0.828-2.052
	c-0.096-0.748-0.34-1.46-0.828-2.048c-0.096-0.748-0.34-1.46-0.828-2.048c-0.096-0.748-0.34-1.46-0.828-2.048
	c-0.092-0.748-0.34-1.46-0.828-2.048c-0.092-0.748-0.34-1.46-0.828-2.048c-0.092-0.748-0.34-1.456-0.824-2.044
	c-0.088-0.748-0.34-1.464-0.828-2.052c-0.092-0.748-0.34-1.46-0.828-2.048c-0.092-0.748-0.34-1.46-0.828-2.048
	c-0.092-0.748-0.34-1.46-0.828-2.048c-0.092-0.748-0.34-1.464-0.828-2.052c-0.092-0.748-0.34-1.46-0.828-2.048
	c-0.092-0.748-0.34-1.46-0.828-2.048c-0.092-0.748-0.34-1.46-0.828-2.048c-0.092-0.748-0.34-1.46-0.828-2.048
	c-0.092-0.748-0.34-1.46-0.824-2.048c-0.096-0.748-0.34-1.46-0.828-2.048c-0.096-0.748-0.34-1.46-0.828-2.048
	c-0.096-0.748-0.34-1.46-0.828-2.048c-0.096-0.748-0.34-1.46-0.828-2.048c-0.092-0.748-0.34-1.46-0.824-2.048
	c-0.092-0.748-0.34-1.464-0.828-2.052c-0.096-0.748-0.34-1.46-0.828-2.048c-0.096-0.748-0.34-1.46-0.828-2.048
	c-0.096-0.748-0.34-1.46-0.828-2.048c-0.096-0.748-0.34-1.46-0.828-2.048c-0.096-0.748-0.34-1.46-0.828-2.048
	c-0.156-1.228-0.812-2.38-1.98-3.016c-1.936-1.06-4.372-0.348-5.428,1.592l-10.7,19.584C282.988,115.432,269.908,112,256,112
	s-26.988,3.432-38.54,9.416l-10.7-19.584c-1.064-1.936-3.492-2.66-5.428-1.592c-1.936,1.06-2.652,3.488-1.592,5.428l0.444,0.82
	c0.08,0.416,0.168,0.836,0.384,1.232l0.444,0.82c0.08,0.416,0.168,0.836,0.384,1.232l0.444,0.82
	c0.076,0.416,0.168,0.836,0.384,1.232l0.444,0.82c0.076,0.416,0.168,0.836,0.384,1.232l0.444,0.82
	c0.076,0.416,0.168,0.836,0.384,1.232l0.444,0.82c0.076,0.416,0.168,0.836,0.384,1.232l0.436,0.8
	c0.076,0.424,0.168,0.848,0.388,1.248l0.444,0.816c0.076,0.416,0.168,0.84,0.384,1.236l0.444,0.82
	c0.076,0.416,0.168,0.836,0.384,1.232l0.444,0.82c0.076,0.416,0.168,0.836,0.384,1.232l0.408,0.736
	C186.452,142.044,172,167.3,172,196h0.896c-0.016,0.684-0.068,1.36-0.068,2.048h0.896c-0.016,0.684-0.068,1.36-0.068,2.048h0.896
	c-0.016,0.684-0.068,1.36-0.068,2.048h0.896c-0.016,0.62-0.06,1.232-0.06,1.852H172v32.136c-0.028-0.056-0.06-0.104-0.084-0.16
	c-0.248-0.704-0.512-1.388-0.824-2.048c-0.252-0.7-0.516-1.384-0.828-2.048c-0.252-0.704-0.512-1.388-0.828-2.048
	c-0.252-0.7-0.508-1.384-0.828-2.048c-0.248-0.696-0.504-1.376-0.82-2.036c-0.252-0.708-0.512-1.396-0.832-2.064
	c-0.252-0.7-0.512-1.384-0.828-2.048c-0.252-0.704-0.512-1.388-0.828-2.048c-0.252-0.7-0.512-1.384-0.828-2.048
	c-0.252-0.704-0.512-1.388-0.828-2.048c-0.252-0.7-0.512-1.384-0.828-2.048C160.084,205.632,152.736,200,144,200
	c-11.048,0-20,8.956-20,20v80c0,3.092,0.76,5.996,2.02,8.608c0.252,0.704,0.512,1.388,0.828,2.052
	c0.252,0.704,0.512,1.388,0.828,2.048c0.252,0.7,0.512,1.388,0.828,2.052c0.252,0.704,0.512,1.388,0.828,2.048
	c0.248,0.7,0.512,1.384,0.828,2.048c0.244,0.696,0.504,1.376,0.82,2.032c0.248,0.704,0.512,1.4,0.832,2.064
	c0.248,0.708,0.508,1.392,0.828,2.056c0.248,0.704,0.512,1.392,0.828,2.048c0.248,0.704,0.512,1.384,0.828,2.048
	c0.248,0.708,0.512,1.392,0.828,2.052c0.248,0.7,0.512,1.384,0.828,2.048c0.248,0.708,0.512,1.388,0.828,2.052
	c0.248,0.696,0.512,1.384,0.828,2.048c0.248,0.704,0.512,1.388,0.828,2.048c0.248,0.7,0.512,1.384,0.828,2.048
	c0.248,0.704,0.508,1.384,0.828,2.048c0.248,0.708,0.508,1.392,0.828,2.056c0.248,0.7,0.512,1.384,0.828,2.048
	c0.248,0.704,0.512,1.392,0.824,2.048c0.248,0.696,0.504,1.38,0.82,2.032c0.252,0.712,0.512,1.4,0.832,2.068
	c0.252,0.7,0.512,1.388,0.828,2.052c0.252,0.704,0.512,1.384,0.828,2.048c0.252,0.7,0.512,1.384,0.828,2.048
	c0.252,0.7,0.512,1.384,0.828,2.048c0.252,0.704,0.512,1.392,0.828,2.056c0.252,0.696,0.512,1.384,0.828,2.048
	c0.252,0.704,0.512,1.388,0.828,2.052c0.252,0.7,0.512,1.388,0.828,2.052c0.252,0.704,0.512,1.388,0.828,2.048
	c0.252,0.7,0.512,1.384,0.828,2.048c0.252,0.704,0.512,1.392,0.828,2.048c0.252,0.704,0.512,1.384,0.828,2.048
	c0.252,0.708,0.512,1.392,0.828,2.052c0.244,0.696,0.504,1.372,0.82,2.032c0.248,0.708,0.512,1.404,0.832,2.068
	c0.248,0.704,0.508,1.388,0.828,2.052c0.248,0.704,0.512,1.388,0.828,2.052c0.248,0.704,0.512,1.392,0.828,2.048
	c0.248,0.704,0.512,1.384,0.828,2.048c0.248,0.708,0.512,1.392,0.828,2.052c0.248,0.7,0.512,1.384,0.828,2.048
	c0.248,0.708,0.512,1.388,0.828,2.052c0.248,0.696,0.508,1.384,0.828,2.048c0.248,0.7,0.508,1.384,0.828,2.052
	c0.248,0.7,0.512,1.388,0.828,2.052c0.248,0.696,0.508,1.384,0.828,2.048c0.248,0.704,0.512,1.388,0.824,2.052
	c0.252,0.7,0.516,1.384,0.828,2.048c0.248,0.7,0.508,1.38,0.82,2.036c0.252,0.704,0.512,1.396,0.832,2.064
	c0.252,0.704,0.512,1.388,0.828,2.048c0.252,0.704,0.512,1.384,0.828,2.048c0.252,0.704,0.512,1.384,0.828,2.048
	c0.252,0.708,0.512,1.392,0.828,2.056c0.252,0.7,0.512,1.384,0.828,2.048c0.252,0.704,0.512,1.384,0.828,2.048
	c0.252,0.708,0.512,1.392,0.828,2.056c0.252,0.704,0.512,1.388,0.828,2.048c0.252,0.704,0.512,1.384,0.828,2.048
	c0.252,0.704,0.512,1.392,0.828,2.052c0.252,0.7,0.512,1.384,0.828,2.048c0.252,0.7,0.512,1.388,0.828,2.052
	c0.248,0.704,0.512,1.384,0.828,2.048c0.248,0.704,0.512,1.388,0.828,2.052c0.244,0.696,0.504,1.372,0.82,2.032
	c0.248,0.708,0.512,1.396,0.832,2.068c0.248,0.708,0.512,1.392,0.828,2.052c0.248,0.7,0.512,1.384,0.828,2.048
	c0.248,0.708,0.512,1.388,0.828,2.052c0.248,0.696,0.512,1.384,0.828,2.048c0.248,0.7,0.508,1.384,0.828,2.048
	c0.248,0.704,0.508,1.392,0.828,2.056c0.248,0.696,0.512,1.384,0.828,2.048c0.248,0.7,0.512,1.384,0.828,2.048
	c0.248,0.7,0.508,1.384,0.828,2.048c0.248,0.704,0.512,1.392,0.828,2.056c0.248,0.696,0.512,1.384,0.828,2.048
	c0.248,0.704,0.512,1.388,0.824,2.048c0.252,0.7,0.516,1.384,0.828,2.048c0.248,0.696,0.504,1.376,0.82,2.032
	c0.252,0.712,0.512,1.4,0.832,2.068c0.252,0.7,0.512,1.384,0.828,2.052c0.252,0.704,0.512,1.384,0.828,2.048
	c0.252,0.704,0.512,1.388,0.828,2.052c0.252,0.7,0.512,1.384,0.828,2.048c0.252,0.708,0.512,1.388,0.828,2.052
	c0.252,0.704,0.512,1.392,0.828,2.048c0.252,0.704,0.512,1.388,0.828,2.052c0.252,0.704,0.512,1.388,0.828,2.048
	c0.252,0.7,0.512,1.388,0.828,2.052c0.252,0.7,0.512,1.384,0.828,2.052c0.252,0.7,0.512,1.384,0.828,2.048
	c0.252,0.7,0.512,1.388,0.828,2.052c0.248,0.696,0.512,1.384,0.828,2.048c0.216,0.616,0.456,1.216,0.732,1.804
	C222.332,510.3,238.964,512,256,512C341.82,512,417.724,469.728,464.172,404.916z"/>
<g>
	<path style="fill:#649937;" d="M172,324c0,13.2,10.8,24,24,24h8v40c0,11.044,8.952,20,20,20s20-8.956,20-20v-40h24v40
		c0,11.044,8.952,20,20,20s20-8.956,20-20v-40h8c13.2,0,24-10.8,24-24V204H172V324z"/>
	<path style="fill:#649937;" d="M368,200c-11.048,0-20,8.956-20,20v80c0,11.044,8.952,20,20,20s20-8.956,20-20v-80
		C388,208.956,379.048,200,368,200z"/>
	<path style="fill:#649937;" d="M144,200c-11.048,0-20,8.956-20,20v80c0,11.044,8.952,20,20,20s20-8.956,20-20v-80
		C164,208.956,155.048,200,144,200z"/>
	<path style="fill:#649937;" d="M301.464,125.432l10.796-19.764c1.06-1.94,0.344-4.368-1.592-5.428s-4.372-0.348-5.428,1.592
		l-10.7,19.584C282.988,115.432,269.908,112,256,112s-26.988,3.432-38.54,9.416l-10.7-19.584c-1.064-1.936-3.492-2.66-5.428-1.592
		c-1.936,1.06-2.652,3.488-1.592,5.428l10.796,19.764C187.372,140.388,172,166.376,172,196h168
		C340,166.376,324.628,140.388,301.464,125.432z M220,168c-4.416,0-8-3.584-8-8s3.584-8,8-8s8,3.584,8,8S224.416,168,220,168z
		 M292,168c-4.416,0-8-3.584-8-8s3.584-8,8-8s8,3.584,8,8S296.416,168,292,168z"/>
</g>
<g>
	<path style="fill:#5C8C32;" d="M256,348h12v40c0,11.044,8.952,20,20,20s20-8.956,20-20v-40h8c13.2,0,24-10.8,24-24V204h-84V348z"/>
	<path style="fill:#5C8C32;" d="M301.464,125.432l10.796-19.764c1.06-1.94,0.344-4.368-1.592-5.428s-4.372-0.348-5.428,1.592
		l-10.7,19.584C282.988,115.432,269.908,112,256,112v84h84C340,166.376,324.628,140.388,301.464,125.432z M292,168
		c-4.416,0-8-3.584-8-8s3.584-8,8-8s8,3.584,8,8S296.416,168,292,168z"/>
	<path style="fill:#5C8C32;" d="M368,200c-11.048,0-20,8.956-20,20v80c0,11.044,8.952,20,20,20s20-8.956,20-20v-80
		C388,208.956,379.048,200,368,200z"/>
</g>
<g>
</g>
<g>
</g>
<g>
</g>
<g>
</g>
<g>
</g>
<g>
</g>
<g>
</g>
<g>
</g>
<g>
</g>
<g>
</g>
<g>
</g>
<g>
</g>
<g>
</g>
<g>
</g>
<g>
</g>
</svg>
