<?xml version="1.0" encoding="iso-8859-1"?>
<!-- Generator: Adobe Illustrator 19.0.0, SVG Export Plug-In . SVG Version: 6.00 Build 0)  -->
<svg version="1.1" id="Layer_1" xmlns="http://www.w3.org/2000/svg" xmlns:xlink="http://www.w3.org/1999/xlink" x="0px" y="0px"
	 viewBox="0 0 512 512" style="enable-background:new 0 0 512 512;" xml:space="preserve">
<circle style="fill:#F2CF61;" cx="256" cy="256" r="256"/>
<path style="fill:#E6C45C;" d="M435.792,435.66c-0.264-0.684-0.552-1.356-0.824-2.036c-0.256-0.668-0.532-1.328-0.8-1.992
	c-0.276-0.72-0.576-1.416-0.856-2.124c-0.264-0.688-0.556-1.364-0.828-2.048c-0.264-0.688-0.556-1.368-0.828-2.048
	c-0.264-0.688-0.556-1.368-0.828-2.052c-0.264-0.688-0.556-1.364-0.828-2.048c-0.264-0.688-0.556-1.364-0.828-2.052
	c-0.264-0.688-0.556-1.36-0.828-2.048c-0.264-0.688-0.552-1.364-0.828-2.048c-0.264-0.684-0.548-1.356-0.82-2.036
	c-0.264-0.7-0.56-1.38-0.836-2.068c-0.264-0.688-0.552-1.364-0.828-2.048c-0.264-0.688-0.552-1.364-0.828-2.048
	c-0.264-0.688-0.552-1.368-0.828-2.048c-0.264-0.688-0.552-1.368-0.828-2.052c-0.252-0.66-0.532-1.316-0.796-1.972
	c-0.268-0.72-0.572-1.416-0.852-2.124c-0.264-0.688-0.556-1.368-0.828-2.048c-0.264-0.688-0.552-1.36-0.828-2.04
	c-0.26-0.696-0.556-1.376-0.828-2.064c-0.264-0.688-0.556-1.368-0.828-2.048c-0.264-0.688-0.556-1.368-0.828-2.052
	c-0.264-0.688-0.556-1.364-0.828-2.048c-0.264-0.688-0.556-1.364-0.828-2.052c-0.264-0.688-0.556-1.36-0.828-2.048
	c-0.264-0.688-0.556-1.364-0.828-2.048c-0.264-0.688-0.556-1.364-0.828-2.048c-0.264-0.688-0.548-1.36-0.824-2.04
	c-0.264-0.696-0.56-1.376-0.832-2.064c-0.264-0.688-0.556-1.364-0.828-2.048c-0.264-0.688-0.556-1.368-0.828-2.048
	c-0.256-0.664-0.532-1.32-0.796-1.976c-0.272-0.72-0.572-1.416-0.856-2.124c-0.26-0.688-0.552-1.364-0.828-2.048
	c-0.26-0.688-0.552-1.368-0.828-2.048c-0.26-0.688-0.552-1.368-0.828-2.052c-0.26-0.688-0.552-1.364-0.828-2.048
	c-0.26-0.684-0.548-1.356-0.82-2.036c-0.268-0.696-0.56-1.376-0.836-2.068c-0.26-0.688-0.552-1.364-0.828-2.048
	c-0.26-0.688-0.552-1.364-0.828-2.052c-0.26-0.688-0.552-1.36-0.828-2.048c-0.26-0.688-0.552-1.364-0.828-2.048
	c-0.26-0.688-0.552-1.364-0.828-2.048c-0.26-0.688-0.552-1.368-0.824-2.048c-0.264-0.688-0.556-1.368-0.828-2.052
	c-0.252-0.66-0.532-1.308-0.796-1.956c-0.272-0.724-0.572-1.424-0.86-2.14c-0.26-0.688-0.552-1.368-0.828-2.048
	c-0.26-0.692-0.552-1.368-0.828-2.052c-0.26-0.688-0.552-1.364-0.828-2.048c-0.26-0.692-0.552-1.364-0.828-2.052
	c-0.26-0.688-0.552-1.36-0.828-2.048c-0.26-0.688-0.552-1.364-0.828-2.048c-0.26-0.688-0.548-1.364-0.828-2.048
	c-0.26-0.688-0.548-1.368-0.828-2.048c-0.26-0.688-0.548-1.36-0.82-2.04c-0.264-0.696-0.556-1.376-0.836-2.064
	c-0.26-0.688-0.548-1.368-0.824-2.048c-0.264-0.688-0.552-1.368-0.828-2.052c-0.264-0.688-0.552-1.364-0.828-2.048
	c-0.252-0.664-0.536-1.316-0.796-1.976c-0.276-0.712-0.576-1.416-0.856-2.124c-0.264-0.688-0.556-1.364-0.828-2.048
	c-0.264-0.688-0.556-1.364-0.828-2.052c-0.264-0.68-0.548-1.352-0.82-2.032c-0.264-0.696-0.564-1.38-0.836-2.068
	c-0.264-0.688-0.556-1.364-0.828-2.048c-0.264-0.692-0.552-1.364-0.828-2.052c-0.264-0.688-0.552-1.36-0.828-2.048
	c-0.264-0.688-0.552-1.364-0.828-2.048c-0.264-0.688-0.552-1.364-0.828-2.048c-0.264-0.688-0.552-1.368-0.828-2.048
	c-0.264-0.692-0.552-1.368-0.828-2.052c-0.264-0.688-0.552-1.364-0.828-2.048c-0.264-0.684-0.548-1.356-0.82-2.036
	c-0.256-0.672-0.536-1.328-0.804-1.992c-0.268-0.72-0.572-1.416-0.852-2.124c-0.264-0.688-0.556-1.368-0.828-2.048
	c-0.264-0.688-0.556-1.368-0.828-2.048c-0.264-0.692-0.556-1.368-0.828-2.052c-0.264-0.688-0.556-1.364-0.828-2.048
	c-0.264-0.692-0.556-1.364-0.828-2.052c-7.284-18.872-18.648-35.54-29.164-48.548c-0.064-0.148-0.14-0.288-0.212-0.432
	c-0.264-0.684-0.528-1.376-0.828-2.048c-0.264-0.684-0.528-1.38-0.828-2.048c-0.264-0.684-0.528-1.376-0.828-2.048
	c-0.264-0.684-0.524-1.38-0.828-2.048c-0.264-0.684-0.524-1.372-0.828-2.04c-0.264-0.692-0.524-1.384-0.828-2.06
	c-0.26-0.676-0.516-1.356-0.812-2.016c-0.268-0.7-0.532-1.4-0.836-2.084c-0.268-0.684-0.532-1.38-0.828-2.048
	c-0.268-0.684-0.532-1.376-0.828-2.048c-0.268-0.684-0.532-1.38-0.828-2.048c-0.268-0.684-0.532-1.376-0.828-2.048
	c-0.268-0.684-0.532-1.38-0.828-2.048c-0.268-0.684-0.532-1.376-0.828-2.048c-0.268-0.684-0.524-1.372-0.828-2.04
	c-0.268-0.688-0.532-1.384-0.828-2.06c-0.264-0.684-0.532-1.376-0.828-2.048c-0.264-0.684-0.528-1.38-0.828-2.048
	c-0.264-0.684-0.528-1.376-0.828-2.048c-0.264-0.684-0.528-1.38-0.828-2.048c-0.264-0.684-0.528-1.376-0.828-2.048
	c-0.264-0.676-0.516-1.356-0.812-2.016c-0.272-0.7-0.536-1.4-0.84-2.084c-0.268-0.684-0.528-1.38-0.828-2.048
	c-0.268-0.684-0.528-1.376-0.828-2.048c-0.268-0.684-0.524-1.372-0.828-2.04c-0.268-0.688-0.524-1.384-0.828-2.06
	c-0.268-0.684-0.528-1.376-0.824-2.048c-0.272-0.684-0.532-1.38-0.828-2.048c-0.272-0.684-0.532-1.376-0.828-2.048
	c-0.268-0.684-0.532-1.38-0.828-2.048c-0.268-0.684-0.532-1.376-0.828-2.048c-0.268-0.684-0.532-1.38-0.828-2.048
	c-0.268-0.684-0.532-1.376-0.828-2.048c-0.268-0.684-0.532-1.38-0.828-2.048c-0.268-0.684-0.524-1.372-0.828-2.04
	c-0.264-0.68-0.516-1.364-0.812-2.024c-0.272-0.696-0.54-1.4-0.844-2.084c-0.264-0.684-0.524-1.376-0.828-2.048
	c-0.264-0.684-0.524-1.38-0.828-2.048c-0.264-0.684-0.524-1.376-0.828-2.048c-0.264-0.684-0.524-1.38-0.824-2.048
	c-0.268-0.684-0.528-1.376-0.828-2.048c-6.5-16.604-23.112-28.448-42.64-28.448c-25.18,0-43.628,19.752-45.596,43.884
	c-0.508,6.208,4.228,46.2,5.432,65.252c-22.784,21.336-61.76,74.416-59.652,124.264l0.68,0.808
	c-17.384,4.688-42.212,29.084-34.536,46.884c0.16,0.368,0.356,0.716,0.524,1.08c0.116,0.32,0.168,0.656,0.304,0.972
	c0.16,0.372,0.356,0.716,0.524,1.084c0.116,0.32,0.168,0.656,0.304,0.968c0.16,0.372,0.356,0.72,0.524,1.084
	c0.112,0.32,0.168,0.656,0.304,0.972c0.16,0.368,0.356,0.716,0.524,1.08c0.112,0.32,0.168,0.656,0.304,0.972
	c0.16,0.372,0.356,0.716,0.524,1.084c0.112,0.32,0.168,0.656,0.304,0.968c0.16,0.368,0.356,0.72,0.524,1.084
	c0.112,0.32,0.168,0.656,0.304,0.972c0.152,0.36,0.348,0.7,0.512,1.056c0.116,0.328,0.172,0.668,0.312,0.996
	c0.156,0.364,0.352,0.716,0.524,1.076c0.116,0.328,0.168,0.664,0.304,0.976c0.156,0.368,0.356,0.72,0.524,1.084
	c0.116,0.32,0.168,0.656,0.304,0.972c0.156,0.368,0.356,0.716,0.524,1.08c0.116,0.32,0.168,0.656,0.304,0.972
	c0.156,0.368,0.352,0.716,0.524,1.084c0.116,0.32,0.168,0.656,0.304,0.968c0.156,0.368,0.352,0.72,0.524,1.084
	c0.116,0.32,0.164,0.656,0.304,0.972c0.156,0.368,0.352,0.716,0.524,1.08c0.116,0.32,0.164,0.656,0.304,0.972
	c0.156,0.368,0.352,0.716,0.524,1.084c0.116,0.32,0.164,0.656,0.304,0.968c0.156,0.368,0.352,0.72,0.524,1.084
	c0.116,0.316,0.164,0.652,0.304,0.972c0.156,0.368,0.352,0.716,0.524,1.08c0.116,0.32,0.164,0.656,0.304,0.972
	c0.156,0.368,0.352,0.716,0.524,1.084c0.112,0.32,0.164,0.656,0.304,0.968c0.156,0.368,0.352,0.712,0.524,1.08
	c0.112,0.32,0.164,0.656,0.304,0.976c0.156,0.368,0.352,0.716,0.524,1.08c0.112,0.32,0.164,0.656,0.304,0.972
	c0.156,0.368,0.352,0.716,0.524,1.084c0.112,0.316,0.164,0.652,0.304,0.968c0.156,0.368,0.352,0.72,0.524,1.08
	c0.112,0.32,0.164,0.656,0.3,0.976c0.156,0.36,0.348,0.696,0.512,1.056c0.12,0.328,0.172,0.668,0.312,0.996
	c0.16,0.368,0.36,0.716,0.524,1.08c0.116,0.32,0.172,0.656,0.304,0.972c0.16,0.368,0.36,0.72,0.524,1.08
	c0.116,0.32,0.172,0.656,0.304,0.976c0.16,0.368,0.356,0.712,0.524,1.08c0.116,0.32,0.172,0.656,0.304,0.972
	c0.16,0.368,0.356,0.716,0.524,1.08c0.116,0.32,0.168,0.656,0.304,0.972c0.16,0.368,0.356,0.72,0.524,1.08
	c0.116,0.32,0.168,0.656,0.304,0.976c0.16,0.368,0.356,0.712,0.524,1.08c0.116,0.32,0.168,0.656,0.304,0.968
	c0.156,0.368,0.352,0.716,0.524,1.08c0.116,0.324,0.168,0.66,0.304,0.976c0.16,0.368,0.356,0.716,0.524,1.08
	c0.116,0.32,0.168,0.656,0.304,0.976c0.16,0.368,0.356,0.712,0.524,1.08c0.116,0.32,0.168,0.656,0.304,0.968
	c0.16,0.372,0.356,0.72,0.524,1.084c0.116,0.32,0.168,0.656,0.304,0.972c0.16,0.368,0.356,0.716,0.524,1.08
	c0.116,0.32,0.168,0.656,0.304,0.972c0.16,0.372,0.356,0.716,0.524,1.084c0.116,0.32,0.168,0.656,0.304,0.968
	c0.16,0.372,0.356,0.72,0.524,1.084c0.116,0.32,0.168,0.656,0.304,0.972c0.16,0.368,0.356,0.716,0.524,1.08
	c0.116,0.32,0.168,0.656,0.304,0.972c0.156,0.364,0.348,0.7,0.512,1.06c0.12,0.328,0.172,0.664,0.308,0.992
	c0.164,0.368,0.36,0.72,0.528,1.084c0.112,0.32,0.168,0.656,0.3,0.972c0.156,0.364,0.356,0.716,0.528,1.076
	c0.112,0.324,0.168,0.66,0.3,0.976c0.164,0.372,0.36,0.716,0.528,1.084c0.112,0.32,0.168,0.656,0.3,0.968
	c0.164,0.368,0.36,0.72,0.528,1.084c0.112,0.32,0.168,0.656,0.3,0.972c0.164,0.368,0.36,0.716,0.524,1.08
	c0.116,0.32,0.172,0.656,0.304,0.972c0.164,0.368,0.36,0.716,0.524,1.084c0.116,0.32,0.172,0.656,0.304,0.968
	c0.164,0.368,0.36,0.72,0.524,1.084c0.116,0.32,0.172,0.656,0.304,0.972c0.164,0.368,0.36,0.716,0.524,1.08
	c0.116,0.32,0.172,0.656,0.304,0.972c0.164,0.368,0.36,0.716,0.524,1.084c0.116,0.32,0.172,0.656,0.304,0.968
	c0.164,0.368,0.36,0.72,0.524,1.084c0.116,0.316,0.172,0.652,0.304,0.972c0.164,0.368,0.36,0.716,0.524,1.08
	c0.116,0.32,0.172,0.656,0.304,0.972c0.156,0.364,0.352,0.712,0.524,1.076c0.116,0.328,0.172,0.664,0.304,0.976
	c0.164,0.368,0.36,0.72,0.524,1.08c0.116,0.32,0.172,0.656,0.304,0.976c0.16,0.368,0.36,0.716,0.524,1.08
	c0.116,0.32,0.172,0.656,0.304,0.972c0.156,0.36,0.352,0.7,0.516,1.056c0.116,0.328,0.172,0.668,0.308,0.996
	c0.16,0.368,0.356,0.72,0.528,1.08c0.112,0.32,0.164,0.656,0.3,0.976c0.16,0.368,0.356,0.716,0.528,1.08
	c0.112,0.32,0.164,0.656,0.3,0.972c0.16,0.368,0.356,0.716,0.528,1.08c0.112,0.32,0.164,0.656,0.3,0.972
	c0.16,0.368,0.356,0.72,0.524,1.08c0.116,0.32,0.168,0.656,0.304,0.976c0.16,0.368,0.356,0.712,0.524,1.08
	c0.116,0.32,0.168,0.656,0.304,0.972c0.16,0.368,0.356,0.716,0.524,1.08c0.116,0.32,0.168,0.656,0.304,0.972
	c0.04,0.092,0.088,0.18,0.132,0.272C199.124,507.1,226.98,512,256,512c70.444,0,134.244-28.468,180.532-74.516
	C436.288,436.872,436.04,436.264,435.792,435.66z"/>
<path style="fill:#263740;" d="M217.496,401.54c15.828,6.696,56.56,11.204,100.04-4.928l53.26-70.96
	c19.348-70.692-56.98-134.104-59.408-139.312c-2.396-5.192-7.148-44.452-7.148-44.452c0-24.228-20.416-43.884-45.596-43.884
	s-43.628,19.752-45.596,43.884c-0.508,6.208,4.228,46.2,5.432,65.252c-22.784,21.336-61.76,74.416-59.652,124.26L217.496,401.54z"/>
<path style="fill:#1E2C33;" d="M311.4,186.336c-2.4-5.192-7.156-44.452-7.156-44.452c0-24.228-20.416-43.884-45.592-43.884
	c-2.744,0-5.392,0.276-7.956,0.724c21.336,3.664,37.56,21.58,37.56,43.164c0,0,4.752,39.26,7.148,44.452
	c2.42,5.204,78.752,68.62,59.408,139.312l-53.264,70.956c-18.672,6.924-36.812,10.036-52.716,10.812
	c19.076,0.952,43.412-1.416,68.716-10.812l53.256-70.956C390.144,254.956,313.816,191.544,311.4,186.336z"/>
<path style="fill:#F5F5F5;" d="M322.184,410.788c-10.168-17.46-8.76-73.616,3.152-86.496c16.704-5.044,59.116-4.084,62.668,18.68
	C393.584,378.508,346.828,419.668,322.184,410.788z"/>
<path style="fill:#E6E6E6;" d="M388.004,342.976c-2.668-17.1-27.268-21.9-46.424-21.084c17.412,0.72,36.116,6.296,38.424,21.084
	c4.788,30.5-28.964,65.108-54.216,68.7C351.092,415.796,393.32,376.848,388.004,342.976z"/>
<path style="fill:#F5F5F5;" d="M217.752,404.348c-0.672-20.008-27.428-66.26-49.172-72.432c-15.468-4.852-52.78,25.896-43.6,47.18
	C139.308,412.264,201.416,424.208,217.752,404.348z"/>
<path style="fill:#E6E6E6;" d="M168.58,331.916c-2.252-0.708-4.968-0.64-7.932,0.016c21.732,6.252,48.432,52.424,49.104,72.416
	c-4.804,5.844-13.584,8.916-23.928,9.52c13.736,0.772,25.92-2.216,31.928-9.52C217.08,384.336,190.316,338.084,168.58,331.916z"/>
<path style="fill:#FFD464;" d="M239.644,187c3.024-4,12.204-9.972,20.856-13.428c9.5-1.228,19.332,1.428,24.744,3.752
	c3.588,19.844-8.576,15.176-20.076,34.344C246.976,200.528,242.168,200.832,239.644,187z"/>
<g>
</g>
<g>
</g>
<g>
</g>
<g>
</g>
<g>
</g>
<g>
</g>
<g>
</g>
<g>
</g>
<g>
</g>
<g>
</g>
<g>
</g>
<g>
</g>
<g>
</g>
<g>
</g>
<g>
</g>
</svg>
