<?xml version="1.0" encoding="iso-8859-1"?>
<!-- Generator: Adobe Illustrator 19.0.0, SVG Export Plug-In . SVG Version: 6.00 Build 0)  -->
<svg version="1.1" id="Capa_1" xmlns="http://www.w3.org/2000/svg" xmlns:xlink="http://www.w3.org/1999/xlink" x="0px" y="0px"
	 viewBox="0 0 473.94 473.94" style="enable-background:new 0 0 473.94 473.94;" xml:space="preserve">
<circle style="fill:#27ADE4;" cx="236.97" cy="236.97" r="236.97"/>
<path style="fill:#2D78BC;" d="M80.859,194.744l-7.397-18.264l-7.353,18.264 M243.727,187.47c-1.485,0.917-3.24,0.947-5.343,0.947
	h-13.126v-10.174h13.302c1.882,0,3.847,0.079,5.122,0.819c1.399,0.674,2.264,2.095,2.264,4.056
	C245.95,185.116,245.123,186.729,243.727,187.47 M337.335,194.744l-7.472-18.264l-7.431,18.264L337.335,194.744L337.335,194.744z
	 M162.841,214.511h-11.076l-0.041-35.883l-15.663,35.883h-9.485l-15.7-35.913v35.913H88.904l-4.15-10.219H62.267l-4.195,10.219
	h-11.73l19.341-45.814h16.052l18.368,43.374v-43.374h17.627l14.136,31.079l12.984-31.079h17.99v45.814L162.841,214.511
	L162.841,214.511z M206.975,214.511H170.89v-45.814h36.086v9.545h-25.279v8.258h24.673v9.392h-24.673v9.137h25.279L206.975,214.511
	L206.975,214.511z M257.852,181.041c0,7.296-4.812,11.079-7.614,12.206c2.365,0.917,4.385,2.526,5.343,3.865
	c1.527,2.271,1.792,4.311,1.792,8.396v9.003h-10.896l-0.041-5.777c0-2.758,0.258-6.728-1.706-8.928
	c-1.579-1.609-3.981-1.961-7.873-1.961h-11.599v16.666h-10.802v-45.814h24.849c5.523,0,9.59,0.146,13.077,2.193
	C255.802,172.944,257.852,175.926,257.852,181.041 M275.139,214.511h-11.02v-45.81h11.02V214.511z M402.999,214.511h-15.311
	l-20.471-34.387v34.387h-22.002l-4.198-10.219h-22.439l-4.082,10.219h-12.64c-5.246,0-11.899-1.179-15.663-5.07
	c-3.798-3.888-5.77-9.156-5.77-17.489c0-6.788,1.175-13.01,5.826-17.908c3.491-3.659,8.961-5.347,16.404-5.347h10.454v9.815H302.87
	c-3.94,0-6.163,0.595-8.31,2.717c-1.841,1.934-3.106,5.579-3.106,10.38c0,4.905,0.965,8.445,2.975,10.754
	c1.658,1.815,4.681,2.365,7.525,2.365h4.849l15.225-36.026h16.187l18.286,43.333v-43.333h16.449l18.986,31.902v-31.902H403
	L402.999,214.511L402.999,214.511z M46.218,223.51h18.454l4.161-10.178h9.313l4.15,10.178h36.314v-7.779l3.244,7.809h18.847
	l3.24-7.925v7.895h90.244l-0.045-16.707h1.747c1.224,0.045,1.579,0.161,1.579,2.208v14.499h46.675v-3.888
	c3.768,2.047,9.624,3.888,17.332,3.888h19.633l4.202-10.178h9.317l4.108,10.178h37.837v-9.669l5.732,9.669h30.323v-63.894h-30.013
	v7.547l-4.198-7.547h-30.795v7.547l-3.854-7.547H302.17c-6.956,0-13.077,0.988-18.024,3.731v-3.731h-28.703v3.731
	c-3.143-2.829-7.427-3.731-12.198-3.731H138.382l-7.035,16.501l-7.225-16.501H91.089v7.547l-3.63-7.547H59.296l-13.085,30.379
	L31.21,223.51H46.218z"/>
<path style="fill:#FFFFFF;" d="M80.859,198.485l-7.397-18.264l-7.353,18.264 M243.727,191.211c-1.485,0.917-3.24,0.947-5.343,0.947
	h-13.126v-10.174h13.302c1.882,0,3.847,0.079,5.122,0.819c1.399,0.674,2.264,2.095,2.264,4.056
	C245.95,188.858,245.123,190.471,243.727,191.211 M337.335,198.485l-7.472-18.264l-7.431,18.264L337.335,198.485L337.335,198.485z
	 M162.841,218.253h-11.076l-0.041-35.883l-15.663,35.883h-9.485l-15.7-35.913v35.913H88.904l-4.15-10.219H62.267l-4.195,10.219
	h-11.73l19.341-45.814h16.052l18.368,43.374v-43.374h17.627l14.136,31.079l12.984-31.079h17.99v45.814L162.841,218.253
	L162.841,218.253z M206.975,218.253H170.89v-45.814h36.086v9.545h-25.279v8.258h24.673v9.392h-24.673v9.137h25.279L206.975,218.253
	L206.975,218.253z M257.852,184.783c0,7.296-4.812,11.079-7.614,12.206c2.365,0.917,4.385,2.526,5.343,3.865
	c1.527,2.271,1.792,4.311,1.792,8.396v9.003h-10.896l-0.041-5.777c0-2.758,0.258-6.728-1.706-8.928
	c-1.579-1.609-3.981-1.961-7.873-1.961h-11.599v16.666h-10.802v-45.814h24.849c5.523,0,9.59,0.146,13.077,2.193
	C255.802,176.686,257.852,179.668,257.852,184.783 M275.139,218.253h-11.02v-45.81h11.02V218.253z M402.999,218.253h-15.311
	l-20.471-34.387v34.387h-22.002l-4.198-10.219h-22.439l-4.082,10.219h-12.64c-5.246,0-11.899-1.179-15.663-5.07
	c-3.798-3.888-5.77-9.156-5.77-17.489c0-6.788,1.175-13.01,5.826-17.908c3.491-3.659,8.961-5.347,16.404-5.347h10.454v9.815H302.87
	c-3.94,0-6.163,0.595-8.31,2.717c-1.841,1.934-3.106,5.579-3.106,10.38c0,4.905,0.965,8.445,2.975,10.754
	c1.658,1.815,4.681,2.365,7.525,2.365h4.849l15.225-36.026h16.187l18.286,43.333v-43.333h16.449l18.986,31.902v-31.902H403
	L402.999,218.253L402.999,218.253z M46.218,227.252h18.454l4.161-10.178h9.313l4.15,10.178h36.314v-7.779l3.244,7.809h18.847
	l3.24-7.925v7.895h90.244l-0.045-16.707h1.747c1.224,0.045,1.579,0.161,1.579,2.208v14.499h46.675v-3.888
	c3.768,2.047,9.624,3.888,17.332,3.888h19.633l4.202-10.178h9.317l4.108,10.178h37.837v-9.669l5.732,9.669h30.323v-63.894h-30.013
	v7.547l-4.198-7.547h-30.795v7.547l-3.854-7.547H302.17c-6.956,0-13.077,0.988-18.024,3.731v-3.731h-28.703v3.731
	c-3.143-2.829-7.427-3.731-12.198-3.731H138.382l-7.035,16.501l-7.225-16.501H91.089v7.547l-3.63-7.547H59.296l-13.085,30.379
	L31.21,227.252H46.218z"/>
<path style="fill:#2D78BC;" d="M436.858,266.709v-29.313h-7.476l0,0h-19.584c-6.035,0-10.425,1.463-13.526,3.734v-3.734H366.69
	c-4.73,0-10.286,1.182-12.905,3.734v-3.734H300.95v3.734c-4.202-3.068-11.3-3.734-14.57-3.734h-34.847v3.734
	c-3.326-3.259-10.72-3.734-15.229-3.734h-38.997l-8.924,9.777l-8.359-9.777h-58.255v63.887h57.155l9.197-9.931l8.658,9.931
	l35.236,0.037v-15.034h3.461c4.673,0.075,10.185-0.116,15.049-2.245v17.238h29.062v-16.655h1.407c1.789,0,1.961,0.079,1.961,1.886
	v14.769h88.276c5.609,0,11.469-1.456,14.716-4.086v4.086h27.996c5.83,0,11.521-0.827,15.85-2.945v-0.067
	c6.324-4.079,10.529-11.225,10.529-19.382C440.33,274.409,439.051,270.237,436.858,266.709z M235.959,276.931h-13.485v15.36h-21.003
	l-13.309-15.162l-13.826,15.162h-42.809V246.5h43.468l13.294,15.008l13.747-15.008h34.533c8.572,0,18.207,2.406,18.207,15.083
	C254.776,274.308,245.403,276.931,235.959,276.931z M300.995,274.855c1.527,2.234,1.747,4.318,1.792,8.359v9.078h-10.844v-5.729
	c0-2.754,0.258-6.832-1.751-8.965c-1.583-1.639-3.981-2.036-7.929-2.036h-11.551v16.729h-10.855V246.5h24.95
	c5.47,0,9.452,0.243,13.003,2.163c3.413,2.084,5.557,4.939,5.557,10.166c0,7.308-4.816,11.042-7.659,12.183
	C298.102,271.91,300.074,273.519,300.995,274.855z M345.421,255.974h-25.309v8.325h24.692v9.343h-24.692v9.111l25.309,0.045v9.5
	h-36.067V246.5h36.067L345.421,255.974L345.421,255.974z M372.941,292.295h-21.047v-9.822h20.969c2.05,0,3.502-0.269,4.415-1.137
	c0.737-0.703,1.276-1.736,1.276-2.978c0-1.336-0.576-2.398-1.321-3.035c-0.831-0.703-1.964-1.014-3.847-1.014
	c-10.107-0.344-22.765,0.314-22.765-14.178c0-6.642,4.123-13.631,15.45-13.631h21.669v9.747h-19.824
	c-1.964,0-3.244,0.075-4.333,0.823c-1.179,0.745-1.624,1.841-1.624,3.3c0,1.725,1.01,2.9,2.365,3.413
	c1.145,0.397,2.365,0.513,4.206,0.513l5.822,0.168c5.863,0.138,9.893,1.171,12.34,3.678c2.107,2.2,3.229,4.984,3.229,9.695
	C389.918,287.693,383.845,292.295,372.941,292.295z M428.563,287.872c-2.847,2.915-7.439,4.423-13.429,4.423h-20.872v-9.822h20.785
	c2.065,0,3.51-0.269,4.378-1.137c0.752-0.703,1.276-1.736,1.276-2.978c0-1.336-0.524-2.398-1.321-3.035
	c-0.782-0.703-1.923-1.014-3.809-1.014c-10.148-0.344-22.806,0.314-22.806-14.178c0-6.642,4.161-13.631,15.506-13.631h21.115v9.744
	h-19.281c-1.961,0-3.27,0.079-4.374,0.827c-1.141,0.741-1.579,1.841-1.579,3.293c0,1.732,0.962,2.9,2.365,3.413
	c1.145,0.404,2.365,0.52,4.161,0.52l5.856,0.161c5.912,0.146,9.86,1.175,12.258,3.686c0.438,0.348,0.703,0.741,1.01,1.13
	c-0.123-0.161-0.243-0.314-0.37-0.475c1.871,2.507,2.997,5.624,2.997,9.01C432.428,281.691,430.95,285.212,428.563,287.872z
	 M169.386,255.974l11.824,13.343l-12.348,13.433h-26.574v-9.111h23.727v-9.343h-23.727v-8.322L169.386,255.974L169.386,255.974z
	 M195.122,269.474l16.595-18.054v36.71L195.122,269.474z M243.181,261.586c0,3.97-2.586,6.047-6.739,6.047h-13.964v-11.659h14.095
	C240.468,255.974,243.181,257.579,243.181,261.586z M291.412,260.92c0,1.957-0.838,3.536-2.241,4.393
	c-1.444,0.868-3.233,0.943-5.332,0.943h-13.134v-10.282h13.306c1.927,0,3.854,0.041,5.16,0.827
	C290.578,257.538,291.412,258.956,291.412,260.92z"/>
<path style="fill:#FFFFFF;" d="M436.858,270.451v-29.313h-7.476l0,0h-19.584c-6.035,0-10.425,1.463-13.526,3.734v-3.734H366.69
	c-4.73,0-10.286,1.182-12.905,3.734v-3.734H300.95v3.734c-4.202-3.068-11.3-3.734-14.57-3.734h-34.847v3.734
	c-3.326-3.259-10.72-3.734-15.229-3.734h-38.997l-8.924,9.777l-8.359-9.777h-58.255v63.887h57.155l9.197-9.931l8.658,9.931
	l35.236,0.037v-15.034h3.461c4.673,0.075,10.185-0.116,15.049-2.245v17.238h29.062v-16.655h1.407c1.789,0,1.961,0.079,1.961,1.886
	v14.769h88.276c5.609,0,11.469-1.456,14.716-4.086v4.086h27.996c5.83,0,11.521-0.827,15.85-2.945v-0.067
	c6.324-4.079,10.529-11.225,10.529-19.382C440.33,278.151,439.051,273.979,436.858,270.451z M235.959,280.673h-13.485v15.36h-21.003
	l-13.309-15.162l-13.826,15.162h-42.809v-45.792h43.468l13.294,15.008l13.747-15.008h34.533c8.572,0,18.207,2.406,18.207,15.083
	C254.776,278.05,245.403,280.673,235.959,280.673z M300.995,278.596c1.527,2.234,1.747,4.318,1.792,8.359v9.078h-10.844v-5.729
	c0-2.754,0.258-6.832-1.751-8.965c-1.583-1.639-3.981-2.036-7.929-2.036h-11.551v16.729h-10.855V250.24h24.95
	c5.47,0,9.452,0.243,13.003,2.163c3.413,2.084,5.557,4.939,5.557,10.166c0,7.308-4.816,11.042-7.659,12.183
	C298.102,275.652,300.074,277.261,300.995,278.596z M345.421,259.716h-25.309v8.325h24.692v9.343h-24.692v9.111l25.309,0.045v9.5
	h-36.067v-45.799h36.067L345.421,259.716L345.421,259.716z M372.941,296.037h-21.047v-9.822h20.969c2.05,0,3.502-0.269,4.415-1.137
	c0.737-0.703,1.276-1.736,1.276-2.978c0-1.336-0.576-2.398-1.321-3.035c-0.831-0.703-1.964-1.014-3.847-1.014
	c-10.107-0.344-22.765,0.314-22.765-14.178c0-6.642,4.123-13.631,15.45-13.631h21.669v9.747h-19.824
	c-1.964,0-3.244,0.075-4.333,0.823c-1.179,0.745-1.624,1.841-1.624,3.3c0,1.725,1.01,2.9,2.365,3.413
	c1.145,0.397,2.365,0.513,4.206,0.513l5.822,0.168c5.863,0.138,9.893,1.171,12.34,3.678c2.107,2.2,3.229,4.984,3.229,9.695
	C389.918,291.434,383.845,296.037,372.941,296.037z M428.563,291.614c-2.847,2.915-7.439,4.423-13.429,4.423h-20.872v-9.822h20.785
	c2.065,0,3.51-0.269,4.378-1.137c0.752-0.703,1.276-1.736,1.276-2.978c0-1.336-0.524-2.398-1.321-3.035
	c-0.782-0.703-1.923-1.014-3.809-1.014c-10.148-0.344-22.806,0.314-22.806-14.178c0-6.642,4.161-13.631,15.506-13.631h21.115v9.744
	h-19.281c-1.961,0-3.27,0.079-4.374,0.827c-1.141,0.741-1.579,1.841-1.579,3.293c0,1.732,0.962,2.9,2.365,3.413
	c1.145,0.404,2.365,0.52,4.161,0.52l5.856,0.161c5.912,0.146,9.86,1.175,12.258,3.686c0.438,0.348,0.703,0.741,1.01,1.13
	c-0.123-0.161-0.243-0.314-0.37-0.475c1.871,2.507,2.997,5.624,2.997,9.01C432.428,285.433,430.95,288.954,428.563,291.614z
	 M169.386,259.716l11.824,13.343l-12.348,13.433h-26.574v-9.111h23.727v-9.343h-23.727v-8.322L169.386,259.716L169.386,259.716z
	 M195.122,273.216l16.595-18.054v36.71L195.122,273.216z M243.181,265.328c0,3.97-2.586,6.047-6.739,6.047h-13.964v-11.659h14.095
	C240.468,259.716,243.181,261.321,243.181,265.328z M291.412,264.662c0,1.957-0.838,3.536-2.241,4.393
	c-1.444,0.868-3.233,0.943-5.332,0.943h-13.134v-10.282h13.306c1.927,0,3.854,0.041,5.16,0.827
	C290.578,261.28,291.412,262.698,291.412,264.662z"/>
<g>
</g>
<g>
</g>
<g>
</g>
<g>
</g>
<g>
</g>
<g>
</g>
<g>
</g>
<g>
</g>
<g>
</g>
<g>
</g>
<g>
</g>
<g>
</g>
<g>
</g>
<g>
</g>
<g>
</g>
</svg>
