<?xml version="1.0" encoding="iso-8859-1"?>
<!-- Generator: Adobe Illustrator 19.0.0, SVG Export Plug-In . SVG Version: 6.00 Build 0)  -->
<svg version="1.1" id="Capa_1" xmlns="http://www.w3.org/2000/svg" xmlns:xlink="http://www.w3.org/1999/xlink" x="0px" y="0px"
	 viewBox="0 0 473.94 473.94" style="enable-background:new 0 0 473.94 473.94;" xml:space="preserve">
<circle style="fill:#F3F2F2;" cx="236.97" cy="236.97" r="236.97"/>
<circle style="fill:#F26E21;" cx="252.34" cy="222.26" r="31.18"/>
<g>
	<path style="fill:#0B161F;" d="M84.407,237.19c-3.674,3.289-8.415,4.715-15.944,4.715h-3.124v-39.146h3.124
		c7.528,0,12.082,1.332,15.944,4.789c4.026,3.551,6.428,9.048,6.428,14.728C90.835,227.959,88.433,233.65,84.407,237.19
		L84.407,237.19z M70.798,192.734H53.691v59.187h17.021c9.033,0,15.562-2.118,21.291-6.832c6.795-5.59,10.829-14.02,10.829-22.735
		C102.831,204.88,89.668,192.734,70.798,192.734"/>
	<polyline style="fill:#0B161F;" points="108.2,251.921 119.83,251.921 119.83,192.734 108.2,192.734 108.2,251.921 	"/>
	<path style="fill:#0B161F;" d="M148.301,215.439c-6.99-2.571-9.048-4.262-9.048-7.442c0-3.731,3.663-6.571,8.681-6.571
		c3.491,0,6.35,1.418,9.407,4.782l6.073-7.888c-5.006-4.355-11.001-6.571-17.541-6.571c-10.552,0-18.612,7.278-18.612,16.939
		c0,8.176,3.753,12.344,14.679,16.258c4.565,1.59,6.885,2.649,8.052,3.371c2.324,1.512,3.495,3.633,3.495,6.118
		c0,4.801-3.85,8.344-9.048,8.344c-5.549,0-10.02-2.746-12.707-7.895l-7.506,7.195c5.358,7.798,11.802,11.274,20.669,11.274
		c12.078,0,20.576-8,20.576-19.442C165.476,224.498,161.547,220.236,148.301,215.439"/>
	<path style="fill:#0B161F;" d="M169.143,222.354c0,17.414,13.785,30.903,31.506,30.903c5.014,0,9.302-0.984,14.589-3.454V236.21
		c-4.658,4.621-8.778,6.481-14.058,6.481c-11.723,0-20.048-8.434-20.048-20.419c0-11.356,8.591-20.325,19.517-20.325
		c5.538,0,9.751,1.949,14.589,6.657v-13.583c-5.096-2.567-9.313-3.626-14.327-3.626
		C183.286,191.399,169.143,205.157,169.143,222.354"/>
	<polyline style="fill:#0B161F;" points="309.556,232.491 293.623,192.734 280.916,192.734 306.252,253.437 312.508,253.437 
		338.289,192.734 325.668,192.734 309.556,232.491 	"/>
	<polyline style="fill:#0B161F;" points="343.576,251.921 376.593,251.921 376.593,241.905 355.209,241.905 355.209,225.913 
		375.774,225.913 375.774,215.896 355.209,215.896 355.209,202.758 376.593,202.758 376.593,192.734 343.576,192.734 
		343.576,251.921 	"/>
	<path style="fill:#0B161F;" d="M399.313,219.978h-3.39V202.04h3.573c7.263,0,11.203,3.031,11.203,8.789
		C410.699,216.771,406.759,219.978,399.313,219.978L399.313,219.978z M422.669,210.201c0-11.087-7.689-17.467-21.122-17.467h-17.268
		v59.187h11.641v-23.786h1.527l16.097,23.786h14.32l-18.802-24.935C417.846,225.213,422.669,219.26,422.669,210.201"/>
</g>
<path d="M138.61,306.933v-33.298l22.735,23.786v-21.669h4.707v33.077l-22.735-23.73v21.829h-4.707V306.933z"/>
<path d="M190.729,280.176h-12.501v7.491h12.138v4.426h-12.138v10.417h12.501v4.423h-17.205v-31.176h17.205V280.176z"/>
<path d="M205.509,280.176v26.754h-4.707v-26.754h-7.165v-4.423h19.023v4.423H205.509z"/>
<path d="M220.251,275.757l8.12,20.838l8.486-22.353l8.116,22.353l8.621-20.838h5.111l-13.934,33.156l-8.019-22.091l-8.359,22.114
	l-13.25-33.178L220.251,275.757L220.251,275.757z"/>
<path d="M259.607,291.206c0-4.393,1.613-8.161,4.827-11.308c3.203-3.151,7.057-4.726,11.555-4.726c4.441,0,8.251,1.587,11.427,4.763
	c3.192,3.181,4.782,6.993,4.782,11.454c0,4.479-1.601,8.284-4.801,11.409c-3.218,3.136-7.102,4.707-11.652,4.707
	c-4.022,0-7.641-1.396-10.844-4.18C261.373,300.239,259.607,296.198,259.607,291.206z M264.355,291.255
	c0,3.442,1.16,6.271,3.472,8.494c2.301,2.223,4.962,3.33,7.981,3.33c3.267,0,6.028-1.13,8.277-3.386
	c2.249-2.286,3.371-5.07,3.371-8.352c0-3.326-1.111-6.11-3.334-8.352c-2.208-2.26-4.939-3.39-8.198-3.39
	c-3.244,0-5.983,1.13-8.213,3.39C265.474,285.212,264.355,287.973,264.355,291.255z"/>
<path d="M308.677,293.646l9.654,13.287h-5.755l-8.905-12.759h-0.849v12.759h-4.707v-31.176h5.512c4.123,0,7.094,0.775,8.928,2.324
	c2.021,1.721,3.031,3.996,3.031,6.825c0,2.208-0.632,4.105-1.901,5.691C312.418,292.183,310.753,293.204,308.677,293.646z
	 M302.824,290.072h1.489c4.456,0,6.687-1.703,6.687-5.108c0-3.192-2.167-4.786-6.503-4.786h-1.673L302.824,290.072L302.824,290.072z
	"/>
<path d="M327.722,288.194l12.135-12.438h6.282l-14.095,14.118l14.178,17.059h-6.301l-11.229-13.871l-0.969,0.973v12.898h-4.707
	v-31.176h4.707v12.437L327.722,288.194L327.722,288.194z"/>
<path style="fill:#F26E21;" d="M473.194,254.743c-44.568,56.448-148.017,153.97-331.984,198.987
	c29.283,12.954,61.657,20.202,95.737,20.202C361.836,473.931,464.09,377.3,473.194,254.743z"/>
<g>
</g>
<g>
</g>
<g>
</g>
<g>
</g>
<g>
</g>
<g>
</g>
<g>
</g>
<g>
</g>
<g>
</g>
<g>
</g>
<g>
</g>
<g>
</g>
<g>
</g>
<g>
</g>
<g>
</g>
</svg>
