<?xml version="1.0" encoding="iso-8859-1"?>
<!-- Generator: Adobe Illustrator 19.0.0, SVG Export Plug-In . SVG Version: 6.00 Build 0)  -->
<svg version="1.1" id="Capa_1" xmlns="http://www.w3.org/2000/svg" xmlns:xlink="http://www.w3.org/1999/xlink" x="0px" y="0px"
	 viewBox="0 0 473.94 473.94" style="enable-background:new 0 0 473.94 473.94;" xml:space="preserve">
<circle style="fill:#F3F2F2;" cx="236.97" cy="236.97" r="236.97"/>
<polygon style="fill:#0683C2;" points="318.921,357.297 324.8,357.155 330.558,356.698 336.264,355.991 341.877,354.973 
	347.381,353.724 352.803,352.189 358.079,350.375 363.246,348.362 368.298,346.06 373.199,343.568 377.966,340.811 382.591,337.832 
	387.078,334.689 391.362,331.28 395.504,327.707 399.444,323.932 403.216,319.992 406.797,315.846 410.194,311.535 413.371,307.079 
	416.323,302.454 419.081,297.687 421.573,292.778 423.874,287.734 425.883,282.567 427.706,277.261 429.232,271.873 
	430.482,266.338 431.511,260.752 432.214,255.042 432.667,249.261 432.813,243.387 432.667,237.572 432.214,231.81 431.511,226.133 
	430.482,220.581 429.232,215.069 427.706,209.711 425.883,204.435 423.874,199.297 421.573,194.276 419.081,189.367 416.323,184.63 
	413.371,180.005 410.194,175.548 406.797,171.264 403.216,167.148 399.444,163.208 395.504,159.436 391.362,155.859 387.078,152.48 
	382.591,149.334 377.966,146.385 373.199,143.631 368.298,141.106 363.246,138.838 358.079,136.791 352.803,135.006 
	347.381,133.472 341.877,132.223 336.264,131.209 330.558,130.494 324.8,130.037 318.921,129.899 313.054,130.037 307.266,130.494 
	301.586,131.209 295.973,132.223 290.473,133.472 285.051,135.006 279.771,136.791 274.612,138.838 269.564,141.106 
	264.681,143.631 259.918,146.385 255.289,149.334 250.833,152.48 246.548,155.859 242.406,159.436 238.466,163.208 234.717,167.148 
	231.143,171.264 227.768,175.548 224.588,180.005 221.643,184.63 218.919,189.367 216.39,194.276 214.122,199.297 212.105,204.435 
	210.324,209.711 208.79,215.069 207.511,220.581 206.515,226.133 205.808,231.81 205.355,237.572 205.217,243.387 205.355,249.261 
	205.808,255.042 206.515,260.752 207.511,266.338 208.79,271.873 210.324,277.261 212.105,282.567 214.122,287.734 216.39,292.778 
	218.919,297.687 221.643,302.454 224.588,307.079 227.768,311.535 231.143,315.846 234.717,319.992 238.466,323.932 
	242.406,327.707 246.548,331.28 250.833,334.689 255.289,337.832 259.918,340.811 264.681,343.568 269.564,346.06 274.612,348.362 
	279.771,350.375 285.051,352.189 290.473,353.724 295.973,354.973 301.586,355.991 307.266,356.698 313.054,357.155 "/>
<polygon style="fill:#305499;" points="168.076,357.297 173.951,357.155 179.739,356.698 185.412,355.991 191.032,354.973 
	196.532,353.724 201.95,352.189 207.226,350.375 212.394,348.362 217.441,346.06 222.324,343.568 227.087,340.811 231.716,337.832 
	236.165,334.689 240.449,331.28 244.591,327.707 248.539,323.932 252.281,319.992 255.854,315.846 259.229,311.535 262.41,307.079 
	265.362,302.454 268.086,297.687 270.615,292.778 272.883,287.734 274.892,282.567 276.681,277.261 278.215,271.873 
	279.487,266.338 280.482,260.752 281.19,255.042 281.642,249.261 281.788,243.387 281.642,237.572 281.19,231.81 280.482,226.133 
	279.487,220.581 278.215,215.069 276.681,209.711 274.892,204.435 272.883,199.297 270.615,194.276 268.086,189.367 265.362,184.63 
	262.41,180.005 259.229,175.548 255.854,171.264 252.281,167.148 248.539,163.208 244.591,159.436 240.449,155.859 236.165,152.48 
	231.716,149.334 227.087,146.385 222.324,143.631 217.441,141.106 212.394,138.838 207.226,136.791 201.95,135.006 196.532,133.472 
	191.032,132.223 185.412,131.209 179.739,130.494 173.951,130.037 168.076,129.899 162.198,130.037 156.439,130.494 
	150.741,131.209 145.12,132.223 139.616,133.472 134.202,135.006 128.926,136.791 123.729,138.838 118.707,141.106 113.776,143.631 
	109.005,146.385 104.384,149.334 99.927,152.48 95.617,155.859 91.501,159.436 87.531,163.208 83.756,167.148 80.182,171.264 
	76.803,175.548 73.627,180.005 70.644,184.63 67.924,189.367 65.395,194.276 63.131,199.297 61.084,204.435 59.299,209.711 
	57.739,215.069 56.489,220.581 55.472,226.133 54.764,231.81 54.304,237.572 54.162,243.387 54.304,249.261 54.764,255.042 
	55.472,260.752 56.489,266.338 57.739,271.873 59.299,277.261 61.084,282.567 63.131,287.734 65.395,292.778 67.924,297.687 
	70.644,302.454 73.627,307.079 76.803,311.535 80.182,315.846 83.756,319.992 87.531,323.932 91.501,327.707 95.617,331.28 
	99.927,334.689 104.384,337.832 109.005,340.811 113.776,343.568 118.707,346.06 123.729,348.362 128.926,350.375 134.202,352.189 
	139.616,353.724 145.12,354.973 150.741,355.991 156.439,356.698 162.198,357.155 "/>
<g>
	<polygon style="fill:#0683C2;" points="229.471,173.195 287.146,173.195 287.146,166.841 235.061,166.841 	"/>
	<polygon style="fill:#0683C2;" points="220.423,186.669 287.146,186.669 287.146,180.315 224.479,180.315 	"/>
	<polygon style="fill:#0683C2;" points="213.692,200.315 287.146,200.315 287.146,193.962 216.764,193.962 	"/>
	<polygon style="fill:#0683C2;" points="209.273,213.797 287.146,213.797 287.146,207.439 211.2,207.439 	"/>
	<polygon style="fill:#0683C2;" points="206.377,227.275 287.146,227.275 287.146,220.914 207.54,220.914 	"/>
	<polygon style="fill:#0683C2;" points="205.217,240.719 287.146,240.719 287.146,234.361 205.61,234.361 	"/>
	<polygon style="fill:#0683C2;" points="205.808,254.167 287.146,254.167 287.146,247.809 205.217,247.809 	"/>
	<polygon style="fill:#0683C2;" points="207.735,267.644 287.146,267.644 287.146,261.287 206.575,261.287 	"/>
	<polygon style="fill:#0683C2;" points="211.567,281.089 287.146,281.089 287.146,274.765 209.636,274.765 	"/>
	<polygon style="fill:#0683C2;" points="217.355,294.566 287.146,294.566 287.146,288.213 214.264,288.213 	"/>
	<polygon style="fill:#0683C2;" points="225.415,308.242 287.146,308.242 287.146,301.691 221.183,301.691 	"/>
	<polygon style="fill:#0683C2;" points="236.393,321.69 287.146,321.69 287.146,315.367 230.799,315.367 	"/>
</g>
<g>
	<polygon style="fill:#FFFFFF;" points="405.004,275.528 405.034,275.39 405.173,274.847 405.349,274.338 405.603,273.886 
		405.88,273.433 406.194,273.006 406.568,272.636 406.965,272.295 407.388,271.985 407.841,271.727 408.323,271.502 
		408.836,271.334 409.375,271.218 409.936,271.132 410.509,271.102 411.047,271.132 411.56,271.218 412.073,271.334 
		412.555,271.502 413.038,271.727 413.491,271.985 413.884,272.295 414.28,272.636 414.621,273.006 414.965,273.433 
		415.223,273.886 415.478,274.338 415.646,274.847 415.784,275.39 415.814,275.528 414.819,275.528 414.565,274.735 
		414.142,274.002 413.577,273.347 412.918,272.812 412.181,272.408 411.362,272.157 410.509,272.067 410.056,272.101 
		409.603,272.157 409.15,272.269 408.724,272.408 408.323,272.58 407.957,272.812 407.586,273.062 407.279,273.347 406.965,273.657 
		406.677,274.002 406.452,274.368 406.254,274.735 406.108,275.162 406,275.528 	"/>
	<polygon style="fill:#FFFFFF;" points="408.379,275.528 408.379,274.002 410.711,274.002 411.16,274.028 411.56,274.11 
		411.897,274.226 412.151,274.395 412.357,274.623 412.495,274.877 412.581,275.188 412.604,275.528 411.814,275.528 
		411.844,275.33 411.814,275.135 411.698,274.993 411.56,274.907 411.392,274.821 411.186,274.795 410.961,274.765 410.733,274.765 
		410.509,274.765 409.345,274.765 409.345,275.528 	"/>
	<polygon style="fill:#FFFFFF;" points="404.918,276.381 404.945,275.929 405.004,275.528 406,275.528 405.97,275.588 
		405.91,276.041 405.88,276.381 	"/>
	<polygon style="fill:#FFFFFF;" points="408.379,276.381 408.379,275.528 409.345,275.528 409.345,276.295 410.31,276.295 
		410.654,276.295 410.961,276.243 411.216,276.183 411.444,276.097 411.612,275.981 411.728,275.813 411.814,275.588 
		411.814,275.528 412.604,275.528 412.604,275.528 412.581,275.783 412.495,276.041 412.379,276.243 412.271,276.381 	"/>
	<polygon style="fill:#FFFFFF;" points="414.935,276.381 414.849,275.588 414.819,275.528 415.814,275.528 415.87,275.929 
		415.9,276.381 	"/>
	<polygon style="fill:#FFFFFF;" points="404.918,276.381 404.918,276.494 404.945,277.092 405.034,277.657 405.173,278.226 
		405.349,278.735 405.603,279.218 405.88,279.7 406.194,280.097 406.568,280.494 406.965,280.834 407.388,281.148 407.841,281.433 
		408.323,281.661 408.836,281.829 409.375,281.942 409.936,282.024 410.509,282.054 411.047,282.024 411.56,281.942 
		412.073,281.829 412.555,281.661 413.038,281.433 413.491,281.148 413.884,280.834 414.28,280.494 414.621,280.097 414.965,279.7 
		415.223,279.218 415.478,278.735 415.646,278.226 415.784,277.657 415.87,277.092 415.9,276.494 415.9,276.381 414.935,276.381 
		414.935,276.494 414.849,277.459 414.565,278.342 414.142,279.132 413.577,279.816 412.918,280.351 412.181,280.752 
		411.362,281.01 410.509,281.089 410.056,281.062 409.603,281.01 409.15,280.894 408.724,280.752 408.323,280.58 407.957,280.351 
		407.586,280.097 407.279,279.816 406.965,279.476 406.677,279.132 406.452,278.765 406.254,278.342 406.108,277.912 
		405.97,277.459 405.91,276.976 405.88,276.494 405.88,276.381 	"/>
	<polygon style="fill:#FFFFFF;" points="408.379,276.381 408.379,278.795 409.345,278.795 409.345,276.864 410.31,276.864 
		411.474,278.795 412.436,278.795 411.276,276.864 411.56,276.778 411.814,276.666 412.043,276.553 412.241,276.408 
		412.271,276.381 	"/>
	<path style="fill:#FFFFFF;" d="M410.509,282.458l-0.591-0.03l-1.167-0.206l-0.55-0.18l-0.531-0.243l-0.947-0.64l-0.415-0.359
		l-0.737-0.849l-0.572-1.025l-0.202-0.569l-0.15-0.602l-0.094-0.599l-0.034-0.64l0.03-0.606l0.09-0.58l0.333-1.119l0.569-0.988
		l0.337-0.453l0.827-0.778l0.449-0.329l1.003-0.52l0.558-0.187l1.171-0.217l0.606-0.034l0.584,0.03l1.093,0.21l0.524,0.18
		l1.003,0.513l0.857,0.696l0.737,0.849l0.546,0.962l0.348,1.149l0.094,0.572l0.034,0.61l-0.03,0.64l-0.09,0.61l-0.322,1.141
		l-0.543,1.025l-0.737,0.868l-0.842,0.703l-0.49,0.311l-0.528,0.251l-0.524,0.183l-1.089,0.213L410.509,282.458z M410.486,271.506
		l-0.528,0.03l-1.04,0.191l-0.471,0.157l-0.861,0.453l-0.752,0.606l-0.352,0.352l-0.535,0.801l-0.247,0.442l-0.273,0.954
		l-0.079,0.501l-0.026,0.524l0.03,0.558l0.217,1.059l0.165,0.475l0.501,0.894l0.632,0.718l0.767,0.606l0.427,0.269l0.438,0.202
		l0.464,0.15l1.036,0.18l0.513,0.026l0.52-0.03l0.958-0.187l0.438-0.157l0.442-0.21l0.408-0.262l0.741-0.621l0.647-0.752l0.46-0.887
		l0.269-0.984l0.079-0.535l0.026-0.558l-0.03-0.528l-0.217-0.999l-0.161-0.486l-0.479-0.834l-0.632-0.722l-0.741-0.606l-0.857-0.434
		l-0.442-0.153l-0.958-0.183L410.486,271.506z"/>
	<path style="fill:#FFFFFF;" d="M413.15,279.199h-1.905l-1.164-1.931h-0.337v1.931h-1.77v-5.601l3.199,0.026l0.464,0.094
		l0.385,0.131l0.423,0.277l0.206,0.228l0.195,0.333l0.12,0.393l0.037,0.423l-0.022,0.314l-0.109,0.352l-0.4,0.565l-0.599,0.344
		L413.15,279.199z M411.698,278.394h0.026l-1.059-1.762l1.295-0.513l0.191-0.281l0.056-0.344l-0.022-0.281l-0.18-0.4l-0.101-0.101
		l-0.225-0.15l-0.602-0.146l-0.385-0.015h-1.908v3.989h0.161v-1.931h1.594L411.698,278.394z"/>
	<path style="fill:#FFFFFF;" d="M410.692,276.699h-1.747v-2.335l2.634,0.101l0.43,0.273l0.187,0.228l0.056,0.359l-0.06,0.408
		l-0.086,0.228l-0.262,0.355l-0.258,0.161l-0.531,0.157L410.692,276.699z M409.749,275.895l1.145-0.049l0.43-0.153l0.097-0.18
		l0.019-0.172l-0.007-0.037l-0.161-0.09l-0.363-0.049l-1.164,0.004v0.726H409.749z"/>
	<path style="fill:#FFFFFF;" d="M410.516,281.493l-0.958-0.082l-0.962-0.277l-0.43-0.183l-0.808-0.52l-0.692-0.681l-0.299-0.359
		l-0.258-0.412l-0.221-0.468l-0.303-0.935l-0.105-1.059l0.09-0.98l0.303-0.932l0.46-0.816l0.318-0.389l0.659-0.632l0.797-0.528
		l0.917-0.352l0.479-0.123l0.977-0.097l0.924,0.09l0.894,0.269l0.816,0.434l0.718,0.576l0.61,0.703l0.468,0.797l0.318,0.924
		l0.109,0.995l-0.086,1.04l-0.303,0.973l-0.453,0.857l-0.606,0.748l-0.711,0.595l-0.804,0.441l-0.887,0.288L410.516,281.493z
		 M410.467,272.467l-0.819,0.086l-0.801,0.236l-0.37,0.157l-0.67,0.445l-0.565,0.55l-0.254,0.314l-0.382,0.666l-0.254,0.786
		l-0.071,0.804l0.082,0.891l0.266,0.804l0.389,0.707l0.834,0.879l0.681,0.438l0.741,0.273l0.427,0.109l0.797,0.067l0.827-0.079
		l0.733-0.243l0.67-0.37l0.591-0.494l0.509-0.625l0.382-0.722l0.254-0.819l0.071-0.876l-0.086-0.831l-0.262-0.763l-0.389-0.662
		l-0.52-0.591l-0.61-0.486l-0.677-0.363l-0.741-0.221L410.467,272.467z"/>
	<polygon style="fill:#FFFFFF;" points="401.461,227.836 400.548,227.78 399.706,227.697 398.902,227.608 398.112,227.499 
		397.345,227.383 396.548,227.245 395.732,227.129 394.875,226.986 393.97,226.874 392.975,226.792 391.871,226.732 
		390.681,226.672 389.371,226.672 387.927,226.672 386.311,226.762 384.518,226.874 383.25,227.072 382.026,227.327 
		380.945,227.697 379.953,228.12 379.074,228.603 378.307,229.145 377.66,229.767 377.147,230.421 376.743,231.102 376.488,231.839 
		376.38,232.603 376.38,233.396 376.548,234.193 376.889,235.016 377.345,235.866 377.993,236.689 378.595,237.314 379.272,237.856 
		379.983,238.365 380.776,238.822 381.626,239.244 382.501,239.637 383.444,239.982 384.41,240.352 385.398,240.692 
		386.419,241.007 387.444,241.34 388.466,241.684 389.491,242.051 390.535,242.451 391.53,242.878 392.552,243.33 393.517,243.839 
		394.453,244.408 395.358,245.003 396.234,245.71 397.031,246.451 397.798,247.304 398.509,248.24 399.13,249.261 399.669,250.365 
		400.151,251.611 400.526,252.947 400.802,254.421 401.008,256.008 401.087,257.74 401.038,259.615 400.888,261.658 
		400.694,263.162 400.409,264.58 400.073,265.912 399.642,267.192 399.16,268.411 398.625,269.541 398.026,270.627 397.345,271.641 
		396.638,272.58 395.871,273.459 395.074,274.282 394.224,275.076 393.349,275.783 392.406,276.438 391.47,277.062 390.475,277.605 
		389.461,278.114 388.436,278.593 387.384,279.023 386.311,279.386 385.259,279.73 384.155,280.045 383.074,280.295 381.97,280.523 
		380.889,280.726 379.815,280.894 378.733,281.01 377.66,281.118 376.604,281.208 375.553,281.261 374.558,281.287 373.574,281.287 
		372.204,281.287 370.876,281.287 369.626,281.261 368.436,281.261 367.302,281.234 366.191,281.208 365.177,281.178 
		364.182,281.148 363.216,281.089 362.303,281.036 361.454,281.01 360.631,280.95 359.841,280.864 359.074,280.804 358.363,280.726 
		357.656,280.636 356.998,280.553 356.347,280.467 355.725,280.351 355.127,280.243 354.536,280.127 353.963,280.015 
		353.394,279.899 352.863,279.76 352.32,279.614 351.778,279.476 351.239,279.304 350.704,279.161 350.195,278.993 349.653,278.795 
		349.114,278.619 348.541,278.424 351.445,264.355 351.692,264.438 352.006,264.55 352.35,264.662 352.713,264.778 353.14,264.917 
		353.6,265.033 354.105,265.171 354.614,265.321 355.187,265.459 355.785,265.601 356.436,265.744 357.084,265.886 357.765,266.028 
		358.476,266.166 359.213,266.309 359.98,266.451 360.747,266.567 361.544,266.709 362.363,266.821 363.216,266.933 364.066,267.02 
		364.941,267.102 365.824,267.192 366.704,267.248 367.609,267.304 368.545,267.356 369.458,267.356 370.393,267.386 
		371.329,267.386 372.264,267.356 373.199,267.304 374.135,267.248 375.07,267.132 375.897,266.993 376.664,266.761 
		377.345,266.481 377.936,266.166 378.445,265.8 378.928,265.403 379.332,264.976 379.695,264.524 379.983,264.041 380.238,263.558 
		380.466,263.046 380.66,262.563 380.799,262.054 380.945,261.572 381.065,261.089 381.173,260.093 381.143,259.218 
		380.945,258.425 380.582,257.684 380.092,257.003 379.471,256.382 378.733,255.813 377.914,255.3 377.001,254.795 375.983,254.335 
		374.902,253.882 373.768,253.429 372.608,252.977 371.388,252.494 370.169,252.011 368.919,251.499 367.669,250.96 
		366.419,250.365 365.196,249.714 364.036,249.029 362.902,248.24 361.821,247.413 360.807,246.477 359.871,245.426 
		359.044,244.292 358.307,243.072 357.656,241.714 357.173,240.21 356.799,238.593 356.575,236.831 356.515,234.904 
		356.631,232.835 356.769,231.555 356.945,230.305 357.173,229.115 357.398,227.952 357.712,226.844 358.019,225.767 
		358.393,224.745 358.816,223.75 359.269,222.784 359.752,221.879 360.324,221.003 360.915,220.176 361.566,219.379 
		362.273,218.646 363.011,217.935 363.838,217.254 364.687,216.633 365.63,216.034 366.621,215.499 367.669,214.987 
		368.773,214.504 369.94,214.077 371.16,213.711 372.462,213.37 373.85,213.06 375.299,212.801 376.803,212.577 378.397,212.379 
		380.039,212.233 381.772,212.15 383.583,212.094 385.484,212.064 386.677,212.064 387.837,212.064 388.919,212.094 389.974,212.12 
		390.958,212.15 391.893,212.177 392.806,212.203 393.656,212.233 394.483,212.293 395.25,212.349 395.979,212.379 396.668,212.431 
		397.315,212.487 397.936,212.547 398.509,212.633 399.077,212.685 399.59,212.745 400.095,212.801 400.548,212.858 
		400.978,212.944 401.401,213 401.798,213.06 402.168,213.112 402.512,213.198 402.819,213.254 403.134,213.31 403.448,213.37 
		403.725,213.423 403.983,213.452 404.237,213.512 404.492,213.568 404.72,213.595 	"/>
	<path style="fill:#FFFFFF;" d="M374.561,281.691l-10.391-0.138l-7.873-0.685l-4.614-1.003l-3.603-1.175l0.071-0.344l2.993-14.514
		l4.138,1.239l4.771,0.992l5.815,0.733l2.702,0.165h3.686l1.86-0.109l1.717-0.251l0.715-0.221l0.644-0.266l0.554-0.299l0.928-0.718
		l0.707-0.823l0.501-0.902l0.404-0.958l0.385-1.418l0.101-0.943l-0.034-0.819l-0.187-0.707l-0.337-0.662l-0.453-0.621l-0.58-0.572
		l-0.7-0.539l-0.786-0.486l-0.894-0.494l-2.062-0.894l-7.24-2.926l-1.261-0.599l-1.239-0.662l-1.175-0.692l-1.16-0.804l-1.096-0.838
		l-1.044-0.958l-0.962-1.081l-0.853-1.164l-0.756-1.25l-0.67-1.396l-0.505-1.557l-0.382-1.646l-0.236-1.8l-0.064-1.968l0.116-2.103
		l0.318-2.563l0.457-2.372l0.629-2.219l0.385-1.051l0.887-1.994l0.494-0.924l1.19-1.747l0.666-0.816l1.482-1.482l0.849-0.703
		l0.864-0.636l0.965-0.614l2.08-1.066l1.119-0.49l1.19-0.434l1.242-0.378l1.317-0.344l1.403-0.314l2.982-0.486l1.601-0.198
		l1.658-0.15l3.57-0.142l4.266-0.03l10.136,0.483l7.24,1.1l-0.101,0.438l-3.338,14.574l-2.915-0.247l-4.939-0.737l-3.255-0.198
		h-2.735l-3.379,0.202l-1.235,0.195l-1.197,0.251l-1.033,0.355l-0.969,0.415l-0.842,0.464l-0.73,0.516l-0.602,0.584l-0.471,0.614
		l-0.374,0.636l-0.224,0.666l-0.09,0.688l0.004,0.737l0.161,0.715l0.322,0.748l0.434,0.819l0.61,0.76l0.572,0.599l1.332,1.003
		l1.59,0.846l0.861,0.389l2.862,1.04l4.097,1.362l2.062,0.834l1.029,0.456l0.992,0.524l1.871,1.179l0.909,0.733l0.819,0.756
		l0.793,0.879l0.73,0.962l0.644,1.051l0.561,1.141l0.498,1.28l0.385,1.369l0.284,1.508l0.21,1.609l0.082,1.766l-0.052,1.905
		l-0.146,2.062l-0.202,1.53l-0.288,1.444l-0.341,1.351l-0.442,1.31l-0.49,1.242l-0.543,1.156l-0.614,1.104l-0.7,1.044l-0.718,0.958
		l-0.786,0.902l-0.812,0.838l-0.861,0.808l-0.898,0.726l-1.908,1.302l-2.054,1.074l-1.029,0.486l-1.074,0.438l-2.151,0.718
		l-1.119,0.318l-2.215,0.486l-2.174,0.374l-3.237,0.314L374.561,281.691z M369.626,280.86l4.928,0.026l2.028-0.079l3.188-0.311
		l2.125-0.363l2.167-0.475l2.122-0.647l1.07-0.363l1.029-0.419l2.009-0.977l0.98-0.535l1.841-1.257l0.857-0.692l0.827-0.775
		l0.782-0.808l0.752-0.864l0.692-0.917l0.67-0.995l0.58-1.055l0.52-1.108l0.475-1.197l0.423-1.257l0.326-1.302l0.281-1.399
		l0.195-1.482l0.142-2.021l0.052-1.856l-0.079-1.703l-0.202-1.553l-0.273-1.452l-0.367-1.302l-0.471-1.209l-0.528-1.074
		l-0.602-0.988l-0.688-0.902l-0.745-0.831l-0.771-0.711l-0.857-0.692l-1.796-1.13l-0.947-0.498l-1.983-0.864l-3.061-1.096
		l-4.95-1.706l-1.766-0.838l-0.816-0.464l-1.444-1.089l-0.636-0.662l-0.677-0.849l-0.494-0.913l-0.363-0.857l-0.191-0.868
		l-0.008-0.876l0.112-0.819l0.273-0.812l0.434-0.752l0.543-0.7l0.692-0.666l0.816-0.58l0.913-0.505l1.029-0.442l1.108-0.378
		l1.268-0.269l1.295-0.202l3.446-0.206h2.776l3.323,0.202l7.139,0.939l3.091-13.489l-5.201-0.838l-5.407-0.453l-8.142-0.168
		l-3.701,0.082l-1.725,0.082l-1.628,0.146l-3.076,0.423l-1.437,0.254l-2.657,0.644l-1.205,0.367l-1.149,0.415l-2.11,0.98
		l-0.98,0.528l-0.917,0.584l-0.827,0.606l-0.808,0.67l-1.414,1.411l-0.629,0.771l-1.137,1.669l-0.464,0.876l-0.861,1.927
		l-0.367,1.003l-0.61,2.159l-0.445,2.32l-0.311,2.496l-0.112,2.047l0.06,1.893l0.224,1.721l0.367,1.575l0.475,1.474l0.629,1.31
		l0.718,1.186l0.808,1.104l0.909,1.022l0.992,0.905l1.051,0.801l1.119,0.778l1.138,0.666l1.205,0.647l2.47,1.119l8.086,3.296
		l0.943,0.52l0.838,0.524l0.771,0.595l0.662,0.655l0.531,0.73l0.4,0.801l0.228,0.872l0.041,0.962l-0.112,1.051l-0.412,1.538
		l-0.441,1.051l-0.561,1.007l-0.397,0.501l-0.423,0.453l-1.051,0.816l-0.636,0.341l-0.715,0.299l-0.804,0.243l-1.826,0.269
		l-2.848,0.142l-2.795-0.03l-5.369-0.427l-5.489-0.913l-4.647-1.115l-1.298-0.423l-2.735,13.272l4.49,1.351l4.209,0.73l3.779,0.37
		L369.626,280.86z"/>
	<polygon style="fill:#FFFFFF;" points="151.538,218.021 151.133,217.793 150.711,217.598 150.288,217.37 149.865,217.146 
		149.431,216.944 148.978,216.715 148.495,216.517 148.013,216.289 147.534,216.09 147.021,215.896 146.516,215.698 
		146.003,215.499 145.465,215.293 144.922,215.125 144.353,214.96 143.792,214.758 143.19,214.616 142.598,214.448 141.97,214.306 
		141.349,214.163 140.698,214.047 140.043,213.905 139.392,213.823 138.681,213.711 138.004,213.628 137.293,213.568 
		136.556,213.482 135.818,213.452 135.051,213.396 134.284,213.396 133.495,213.396 132.698,213.396 131.901,213.396 
		131.104,213.423 130.284,213.452 129.439,213.542 128.612,213.628 127.736,213.737 126.879,213.879 126.004,214.047 
		125.117,214.276 124.241,214.564 123.366,214.871 122.449,215.241 121.574,215.668 120.698,216.12 119.841,216.663 
		118.966,217.284 118.116,217.935 117.293,218.676 116.466,219.495 115.647,220.405 114.85,221.366 114.083,222.451 
		113.345,223.611 112.608,224.861 111.897,226.193 111.216,227.637 110.595,229.202 109.967,230.848 109.405,232.603 
		108.837,234.507 108.354,236.487 107.871,238.62 107.448,240.805 107.16,242.99 107.044,245.145 107.074,247.244 107.302,249.313 
		107.673,251.3 108.245,253.231 108.975,255.042 109.918,256.775 111.022,258.365 112.328,259.843 113.828,261.175 115.531,262.339 
		117.431,263.33 119.557,264.153 121.918,264.748 122.284,264.838 122.737,264.89 123.19,264.976 123.699,265.033 124.271,265.119 
		124.87,265.171 125.461,265.231 126.112,265.261 126.793,265.321 127.508,265.343 128.238,265.343 128.978,265.343 
		129.746,265.343 130.513,265.321 131.31,265.261 132.099,265.171 132.922,265.092 133.719,264.976 134.539,264.838 
		135.336,264.662 136.159,264.464 136.948,264.266 137.745,264.011 138.542,263.727 139.302,263.416 140.043,263.046 
		140.78,262.653 141.487,262.223 142.168,261.77 142.827,261.261 143.448,260.722 144.047,260.123 141.15,277.062 140.978,277.201 
		140.78,277.347 140.589,277.515 140.357,277.684 140.099,277.886 139.845,278.088 139.59,278.282 139.28,278.48 138.939,278.709 
		138.572,278.903 138.172,279.132 137.745,279.36 137.263,279.588 136.724,279.79 136.159,279.985 135.534,280.183 134.883,280.381 
		134.142,280.58 133.349,280.752 132.499,280.92 131.594,281.062 130.629,281.178 129.577,281.287 128.466,281.403 127.254,281.459 
		125.974,281.519 124.634,281.541 123.19,281.541 121.66,281.541 120.039,281.489 118.344,281.403 116.522,281.287 115.078,281.178 
		113.63,281.01 112.182,280.726 110.737,280.381 109.259,279.959 107.811,279.476 106.393,278.903 104.949,278.226 103.561,277.515 
		102.173,276.696 100.833,275.813 99.531,274.821 98.255,273.77 97.031,272.636 95.841,271.442 94.738,270.144 93.656,268.774 
		92.661,267.304 91.755,265.773 90.902,264.153 90.113,262.451 89.432,260.662 88.833,258.791 88.321,256.864 87.928,254.818 
		87.613,252.692 87.415,250.507 87.329,248.21 87.385,245.852 87.531,243.387 87.812,240.857 88.234,238.219 88.717,235.581 
		89.286,233.033 89.885,230.56 90.536,228.21 91.217,225.905 91.984,223.724 92.811,221.624 93.656,219.611 94.592,217.684 
		95.557,215.836 96.609,214.077 97.682,212.405 98.854,210.815 100.043,209.31 101.316,207.892 102.651,206.56 104.043,205.284 
		105.488,204.12 106.996,203.039 108.552,202.021 110.195,201.108 111.897,200.263 113.66,199.496 115.471,198.785 117.372,198.194 
		119.328,197.655 121.375,197.198 123.444,196.828 125.6,196.547 127.845,196.315 130.146,196.177 132.499,196.091 133.521,196.091 
		134.539,196.147 135.534,196.177 136.526,196.263 137.491,196.345 138.456,196.461 139.392,196.573 140.327,196.686 
		141.233,196.828 142.146,197 142.995,197.142 143.848,197.311 144.698,197.509 145.495,197.677 146.254,197.879 147.021,198.048 
		147.728,198.246 148.439,198.444 149.124,198.616 149.745,198.815 150.366,198.983 150.939,199.155 151.478,199.327 
		151.99,199.496 152.443,199.638 152.866,199.78 153.262,199.919 153.633,200.035 153.947,200.117 154.205,200.203 154.43,200.263 
		154.628,200.315 	"/>
	<path style="fill:#FFFFFF;" d="M124.638,281.945h-2.978l-3.338-0.138l-3.278-0.228l-1.467-0.168l-1.478-0.292l-1.463-0.348
		l-1.493-0.427l-1.467-0.486l-1.441-0.58l-1.471-0.688l-1.399-0.715l-1.411-0.834l-1.355-0.891l-1.325-1.01l-1.291-1.059
		l-1.239-1.152l-1.201-1.201l-1.126-1.325l-1.089-1.377l-1.014-1.497l-0.92-1.553l-0.861-1.635l-0.801-1.721l-0.692-1.815
		l-0.606-1.89l-0.516-1.949l-0.4-2.073l-0.318-2.144l-0.2-2.208l-0.086-2.316l0.06-2.38l0.146-2.481l0.281-2.548l0.423-2.657
		l0.486-2.649l1.171-5.044l1.332-4.673l0.775-2.2l0.834-2.114l0.853-2.021l0.943-1.946l0.969-1.86l1.066-1.777l1.078-1.684
		l1.182-1.609l1.201-1.519l1.287-1.437l1.351-1.347l1.399-1.291l1.471-1.179l1.523-1.093l1.572-1.029l1.669-0.928l1.717-0.857
		l1.781-0.778l1.826-0.715l1.927-0.602l1.972-0.546l2.065-0.46l2.084-0.378l2.178-0.284l2.256-0.232l2.316-0.142l3.401-0.086
		l4.004,0.258l3.768,0.486l4.284,0.857l9.512,2.739l-0.067,0.359l-3.188,18.264l-3.038-1.575l-3.48-1.403l-4.064-1.115l-3.304-0.528
		l-2.934-0.232l-4.722,0.06l-3.353,0.419l-0.864,0.168l-0.861,0.221l-1.721,0.587l-0.894,0.363l-1.717,0.864l-0.827,0.524
		l-1.695,1.253l-0.804,0.718l-0.808,0.808l-0.804,0.891l-0.786,0.95l-0.748,1.059l-1.459,2.383l-0.703,1.317l-0.67,1.429
		l-1.239,3.18l-1.126,3.633l-0.958,4.086l-0.419,2.174l-0.281,2.159l-0.112,2.125l0.03,2.073l0.225,2.028l0.37,1.957l0.561,1.89
		l0.715,1.777l0.924,1.691l1.078,1.553l1.28,1.441l1.467,1.302l1.661,1.13l1.86,0.969l2.088,0.804l2.675,0.666l4.445,0.471
		l2.919,0.022l1.534-0.082l3.195-0.419l2.38-0.565l1.557-0.528l0.741-0.307l1.441-0.745l1.355-0.861l1.239-1.018l1.474-1.474
		l-3.136,18.338l-2.361,1.762l-1.725,0.909l-2.436,0.816l-1.568,0.378l-1.777,0.314l-3.147,0.344L124.638,281.945z M133.502,196.491
		h-1.003l-2.339,0.086l-2.29,0.138l-2.23,0.228l-2.144,0.281l-2.047,0.37l-2.032,0.449l-1.942,0.535l-1.886,0.587l-1.789,0.7
		l-1.747,0.763l-1.684,0.838l-1.631,0.902l-1.53,1.003l-1.489,1.074l-1.429,1.149l-1.366,1.261l-1.325,1.321l-1.257,1.403
		l-1.175,1.485l-1.16,1.575l-1.059,1.654L95.9,216.04l-0.95,1.83l-0.932,1.916l-0.842,1.994l-0.823,2.095l-0.76,2.163l-1.325,4.629
		l-1.167,4.999l-0.479,2.623l-0.419,2.63l-0.277,2.507l-0.142,2.447l-0.06,2.342l0.086,2.271l0.198,2.163l0.311,2.107l0.389,2.028
		l0.505,1.905l0.595,1.852l0.674,1.766l0.778,1.676l0.846,1.601l0.898,1.515l0.98,1.452l1.063,1.34l1.096,1.291l1.171,1.167
		l1.209,1.126l1.261,1.033l1.291,0.984l1.317,0.864l1.369,0.812l1.366,0.696l1.437,0.674l1.396,0.561l1.426,0.471l1.459,0.419
		l1.429,0.341l1.433,0.281l1.418,0.161l4.932,0.311l1.62,0.056l4.288-0.026l2.481-0.112l3.989-0.479l2.342-0.531l2.346-0.778
		l1.624-0.857l2.036-1.508l2.66-15.588l-1.025,0.834l-1.429,0.909l-1.504,0.778l-1.601,0.614l-0.808,0.262l-2.447,0.58l-1.643,0.262
		l-2.44,0.232l-3.035,0.026l-3.274-0.228l-2.413-0.378l-2.365-0.599l-2.174-0.838l-1.942-1.014l-1.744-1.186l-1.538-1.366
		l-1.34-1.508l-1.134-1.628l-0.969-1.77l-0.748-1.856l-0.584-1.964l-0.382-2.028l-0.228-2.107l-0.034-2.14l0.116-2.181l0.288-2.215
		l0.427-2.211l0.969-4.131l1.141-3.689l1.261-3.233l0.688-1.471l0.718-1.347l1.489-2.436l0.778-1.096l0.816-0.988l0.831-0.92
		l0.842-0.838l0.846-0.752l1.759-1.306l0.872-0.55l1.792-0.902l1.833-0.696l0.883-0.292l0.909-0.236l1.766-0.318l2.574-0.288
		l4.804-0.06l3.678,0.314l3.959,0.745l2.896,0.857l3.547,1.433l2.107,1.051l2.93-16.789l-11.251-3.072l-5.474-0.79l-1.946-0.168
		L133.502,196.491z"/>
	<polygon style="fill:#FFFFFF;" points="171.736,280.92 182.714,214.758 161.921,214.758 150.969,280.92 	"/>
	<path style="fill:#FFFFFF;" d="M172.076,281.324h-21.582l0.079-0.468l11.012-66.499h21.605l-0.079,0.468L172.076,281.324z
		 M151.44,280.52h19.955l10.84-65.361h-19.977L151.44,280.52z"/>
	<polygon style="fill:#FFFFFF;" points="184.809,280.92 205.808,280.92 205.984,280.92 213.692,240.719 214.152,239.611 
		214.687,238.593 215.256,237.654 215.877,236.831 216.566,236.034 217.273,235.357 218.01,234.736 218.773,234.193 219.54,233.68 
		220.307,233.258 221.104,232.887 221.894,232.55 222.661,232.266 223.398,232.038 224.135,231.839 224.846,231.664 225.16,231.615 
		225.553,231.615 225.957,231.615 226.436,231.664 226.919,231.723 227.402,231.81 227.914,231.896 228.39,232.008 228.872,232.12 
		229.332,232.236 229.725,232.318 230.092,232.431 230.376,232.52 230.605,232.577 230.751,232.603 230.799,232.633 
		236.393,213.396 235.398,213.37 234.462,213.34 233.497,213.34 232.592,213.37 231.686,213.396 230.799,213.482 229.954,213.568 
		229.127,213.681 228.307,213.823 227.484,213.965 226.717,214.163 225.957,214.362 225.217,214.59 224.479,214.814 
		223.772,215.099 223.061,215.383 222.403,215.698 221.725,216.008 221.104,216.375 220.446,216.741 219.855,217.146 
		219.256,217.538 218.661,217.991 218.092,218.448 217.557,218.927 217.018,219.409 216.476,219.922 215.967,220.491 
		215.484,221.03 215.002,221.624 214.519,222.223 214.066,222.844 214.833,213.995 196.562,213.995 	"/>
	<path style="fill:#FFFFFF;" d="M206.317,281.324h-21.983l0.082-0.471l11.809-67.262h19.046l-0.688,7.906l1.594-1.845l1.643-1.504
		l1.186-0.932l1.209-0.808l1.302-0.748l2.81-1.22l3.053-0.864l2.518-0.404l1.744-0.176l2.818-0.056l2.462,0.067l-5.878,20.232
		l-0.524-0.266l-3.674-0.849l-0.935-0.105l-1.003,0.049l-2.133,0.587l-1.515,0.61l-0.782,0.367l-0.745,0.412l-1.485,1.025
		l-0.711,0.602l-0.692,0.662l-0.662,0.771l-0.602,0.801l-0.546,0.905l-0.52,0.999l-0.445,1.066L206.317,281.324z M185.288,280.52
		h20.359l7.648-39.876l0.483-1.186l0.546-1.051l0.584-0.962l0.644-0.857l0.703-0.816l0.733-0.707l0.756-0.636l1.564-1.081
		l0.797-0.442l1.624-0.726l1.553-0.528l1.811-0.438l0.861-0.004l2.024,0.288l2.544,0.644l5.336-18.357l-2.361-0.041l-1.8,0.056
		l-2.518,0.281l-1.628,0.284l-2.956,0.838l-2.705,1.171l-2.417,1.5l-1.134,0.887l-1.59,1.452l-1.923,2.26l-1.295,1.774l0.857-9.852
		h-17.496L185.288,280.52z"/>
	<polygon style="fill:#FFFFFF;" points="340.459,281.089 320.063,281.089 321.589,271.304 321.107,271.843 320.624,272.381 
		320.171,272.92 319.718,273.433 319.236,273.942 318.783,274.424 318.3,274.877 317.848,275.33 317.365,275.783 316.856,276.213 
		316.343,276.64 315.808,277.006 315.27,277.403 314.697,277.773 314.106,278.114 313.477,278.424 312.826,278.735 312.119,279.049 
		311.408,279.304 310.641,279.558 309.844,279.816 308.998,280.015 308.093,280.213 307.15,280.411 306.162,280.553 
		305.111,280.696 304.007,280.804 302.866,280.92 301.616,280.98 300.344,281.036 298.978,281.089 297.56,281.089 296.568,281.062 
		295.573,280.95 294.585,280.778 293.65,280.553 292.707,280.273 291.771,279.929 290.896,279.506 290.02,279.023 289.163,278.51 
		288.344,277.912 287.547,277.261 286.81,276.58 286.073,275.813 285.362,275.019 284.714,274.17 284.086,273.264 283.521,272.295 
		282.952,271.304 282.469,270.252 281.987,269.178 281.594,268.045 281.219,266.851 280.875,265.628 280.628,264.382 280.4,263.076 
		280.224,261.744 280.116,260.378 280.06,258.96 280.06,257.515 280.116,256.037 280.254,254.537 280.422,253.007 286.585,214.564 
		306.982,214.564 301.586,248.576 301.361,250.223 301.279,251.727 301.309,253.145 301.485,254.451 301.732,255.615 
		302.076,256.692 302.529,257.658 303.064,258.507 303.663,259.274 304.344,259.895 305.051,260.438 305.848,260.891 
		306.667,261.231 307.52,261.459 308.4,261.598 309.283,261.658 310.386,261.628 311.55,261.485 312.74,261.287 313.93,260.977 
		315.15,260.576 316.343,260.093 317.533,259.472 318.674,258.765 319.778,257.908 320.8,256.947 321.765,255.839 322.615,254.619 
		323.382,253.231 324.01,251.697 324.512,250.024 324.886,248.21 330.076,214.758 350.472,214.758 	"/>
	<path style="fill:#FFFFFF;" d="M340.807,281.493h-21.216l1.392-8.905l-1.908,2.114l-2.473,2.249l-1.684,1.164l-1.261,0.674
		l-1.377,0.632l-2.309,0.782l-2.735,0.606l-2.069,0.292l-2.26,0.228l-3.914,0.168l-2.436-0.03l-1.025-0.112l-1.014-0.176
		l-0.962-0.232l-0.962-0.288l-0.962-0.352l-0.913-0.442l-1.766-1.01l-0.849-0.621l-0.816-0.662l-0.756-0.696l-1.474-1.587
		l-0.67-0.876l-0.64-0.924l-1.152-1.987l-0.984-2.163l-0.786-2.372l-0.348-1.239l-0.483-2.589l-0.18-1.351l-0.112-1.384l-0.06-1.433
		v-1.463l0.06-1.493l0.311-3.061l6.215-38.798h21.212l-5.691,36.115l-0.079,1.47l0.03,1.388l0.172,1.265l0.243,1.13l0.333,1.04
		l0.434,0.917l0.509,0.808l0.576,0.733l0.632,0.569l0.685,0.52l0.748,0.423l0.775,0.318l0.808,0.213l0.834,0.131l0.849,0.052
		l1.066-0.03l2.297-0.333l1.156-0.303l1.197-0.393l1.167-0.471l1.156-0.606l1.115-0.696l1.07-0.831l0.995-0.935l0.935-1.081
		l0.823-1.186l0.745-1.351l0.606-1.493l0.494-1.639l0.363-1.777l5.238-33.773h21.208L340.807,281.493z M286.926,214.968
		l-6.107,38.102l-0.303,3.005l-0.06,1.456v1.429l0.06,1.403l0.108,1.347l0.172,1.313l0.471,2.526l0.703,2.376l0.389,1.123
		l0.95,2.092l1.115,1.923l1.25,1.714l1.418,1.527l0.722,0.662l0.778,0.632l0.801,0.587l1.688,0.965l0.857,0.415l0.898,0.326
		l0.917,0.273l0.917,0.221l0.962,0.165l0.969,0.105l2.369,0.026l3.869-0.168l4.243-0.509l2.664-0.587l2.23-0.756l1.946-0.917
		l1.123-0.688l2.058-1.59l2.32-2.32l2.769-3.128l-1.661,10.66h19.577L350,215.147h-19.584l-5.134,33.115l-0.378,1.83l-0.516,1.71
		l-0.64,1.568l-0.79,1.429l-0.868,1.257l-0.992,1.141l-1.051,0.988l-1.134,0.879l-1.171,0.733l-1.216,0.636l-1.227,0.498
		l-1.246,0.412l-1.212,0.318l-2.41,0.352l-1.141,0.03l-0.92-0.06l-0.913-0.146l-0.898-0.236l-0.864-0.359l-0.842-0.475l-0.756-0.569
		l-0.703-0.644l-0.647-0.801l-0.554-0.883l-0.479-1.007l-0.363-1.126l-0.258-1.201l-0.18-1.34l-0.034-1.463l0.079-1.534l0.232-1.68
		l5.321-33.556h-19.584v0.005L286.926,214.968L286.926,214.968z"/>
	<polygon style="fill:#FFFFFF;" points="230.436,280.92 251.177,280.92 251.177,280.92 259.061,240.719 259.543,239.611 
		260.056,238.593 260.655,237.654 261.276,236.831 261.957,236.034 262.664,235.357 263.401,234.736 264.142,234.193 
		264.939,233.68 265.706,233.258 266.496,232.887 267.289,232.55 268.056,232.266 268.797,232.038 269.534,231.839 270.241,231.664 
		270.555,231.615 270.952,231.615 271.345,231.615 271.828,231.664 272.31,231.723 272.793,231.81 273.306,231.896 273.788,232.008 
		274.271,232.12 274.724,232.236 275.117,232.318 275.491,232.431 275.775,232.52 276.003,232.577 276.142,232.603 276.198,232.633 
		281.788,213.396 280.797,213.37 279.861,213.34 278.896,213.34 277.99,213.37 277.077,213.396 276.198,213.482 275.345,213.568 
		274.496,213.681 273.669,213.823 272.883,213.965 272.112,214.163 271.345,214.362 270.578,214.59 269.871,214.814 
		269.134,215.099 268.453,215.383 267.772,215.698 267.121,216.008 266.466,216.375 265.845,216.741 265.223,217.146 
		264.625,217.538 264.052,217.991 263.491,218.448 262.919,218.927 262.38,219.409 261.867,219.922 261.362,220.491 260.883,221.03 
		260.393,221.624 259.918,222.223 259.465,222.844 260.224,213.995 242.152,213.995 	"/>
	<path style="fill:#FFFFFF;" d="M251.51,281.324h-21.553l0.082-0.471l11.772-67.262h18.847l-0.681,7.899l1.587-1.837l1.085-1.025
		l1.721-1.403l1.886-1.194l1.34-0.696l1.373-0.606l1.482-0.52l2.327-0.629l2.511-0.404l1.744-0.176l2.825-0.056l2.462,0.067
		l-5.871,20.202l-0.535-0.239l-3.678-0.849l-0.935-0.105l-0.995,0.049l-2.133,0.587l-1.523,0.61l-0.775,0.367l-0.745,0.412
		l-0.775,0.49l-0.715,0.528l-0.715,0.602l-0.692,0.662l-0.651,0.767l-0.606,0.804l-0.58,0.913l-0.494,0.984l-0.471,1.089
		L251.51,281.324z M230.915,280.52h19.929l7.824-39.876l0.509-1.19l0.524-1.04l0.617-0.973l0.64-0.849l0.696-0.816l0.737-0.707
		l0.756-0.636l0.76-0.558l0.819-0.524l0.79-0.438l1.624-0.726l1.542-0.535l1.811-0.438l0.857-0.004l2.024,0.288l2.552,0.644
		l5.336-18.357l-2.361-0.041l-1.807,0.056l-2.541,0.281l-1.594,0.284l-2.96,0.838l-1.384,0.554l-1.317,0.617l-2.447,1.504
		l-2.2,1.833l-1.467,1.587l-1.392,1.785l-0.849,1.164l0.846-9.848h-17.298L230.915,280.52z"/>
	<path style="fill:#FFFFFF;" d="M196.562,213.995h18.469H196.562z"/>
	<rect x="196.56" y="213.58" style="fill:#FFFFFF;" width="18.469" height="0.804"/>
	<path style="fill:#FFFFFF;" d="M242.152,213.995h18.271H242.152z"/>
	<rect x="242.15" y="213.58" style="fill:#FFFFFF;" width="18.271" height="0.804"/>
</g>
<g>
</g>
<g>
</g>
<g>
</g>
<g>
</g>
<g>
</g>
<g>
</g>
<g>
</g>
<g>
</g>
<g>
</g>
<g>
</g>
<g>
</g>
<g>
</g>
<g>
</g>
<g>
</g>
<g>
</g>
</svg>
