<?xml version="1.0" encoding="iso-8859-1"?>
<!-- Generator: Adobe Illustrator 19.0.0, SVG Export Plug-In . SVG Version: 6.00 Build 0)  -->
<svg version="1.1" id="Capa_1" xmlns="http://www.w3.org/2000/svg" xmlns:xlink="http://www.w3.org/1999/xlink" x="0px" y="0px"
	 viewBox="0 0 473.94 473.94" style="enable-background:new 0 0 473.94 473.94;" xml:space="preserve">
<circle style="fill:#F3F2F2;" cx="236.97" cy="236.97" r="236.97"/>
<path style="fill:#0F549D;" d="M78.94,355.093h58.465c20.557,0,44.325-19.27,44.325-44.325V112.851h-56.531
	c-26.338,0-46.259,16.699-46.259,45.612V355.093z"/>
<path style="fill:#B41F36;" d="M194.583,355.093h58.465c20.557,0,44.332-19.27,44.332-44.325V112.851h-56.538
	c-26.346,0-46.259,16.699-46.259,45.612L194.583,355.093L194.583,355.093z"/>
<path style="fill:#329947;" d="M311.82,355.093h58.465c20.557,0,44.332-19.27,44.332-44.325V112.851h-56.534
	c-26.338,0-46.259,16.699-46.259,45.612v196.629h-0.004V355.093z"/>
<g>
	<path style="fill:#F3F2F2;" d="M78.704,240.988H62.648c4.501,17.99,25.695,32.13,49.47,32.13c21.844,0,51.397-12.213,51.397-35.341
		V196.02h-36.621v41.758c0,12.213-9.639,21.848-23.132,21.848C91.561,259.622,80.635,251.914,78.704,240.988z"/>
	<path style="fill:#F3F2F2;" d="M399.253,249.343c0,9.631-8.344,17.343-19.27,17.343h-80.945v-70.671h80.945
		c9.631,0,17.994,8.355,17.994,17.994c0,9.631-8.359,17.99-17.994,17.99C390.909,231.997,399.253,239.708,399.253,249.343z
		 M329.87,228.143h25.059c6.425,0,12.206-5.781,12.206-12.213c0-6.417-5.781-12.206-12.206-12.206H329.87V228.143z M355.572,258.975
		c6.417,0,12.206-5.781,12.206-12.206c0-6.425-5.788-12.206-12.206-12.206H329.87v24.408h25.702V258.975z"/>
	<path style="fill:#F3F2F2;" d="M279.67,254.481v12.206h-61.679c-19.27,0-35.333-16.06-35.333-35.333
		c0-19.266,16.063-35.333,35.333-35.333h61.679v12.853c-14.776-3.214-28.92-5.141-35.984-5.141
		c-15.412,0-27.618,12.206-27.618,27.625s12.206,27.625,27.618,27.625C250.75,258.975,264.894,257.695,279.67,254.481z"/>
</g>
<g>
</g>
<g>
</g>
<g>
</g>
<g>
</g>
<g>
</g>
<g>
</g>
<g>
</g>
<g>
</g>
<g>
</g>
<g>
</g>
<g>
</g>
<g>
</g>
<g>
</g>
<g>
</g>
<g>
</g>
</svg>
