<?xml version="1.0" encoding="iso-8859-1"?>
<!-- Generator: Adobe Illustrator 19.0.0, SVG Export Plug-In . SVG Version: 6.00 Build 0)  -->
<svg version="1.1" id="Capa_1" xmlns="http://www.w3.org/2000/svg" xmlns:xlink="http://www.w3.org/1999/xlink" x="0px" y="0px"
	 viewBox="0 0 473.94 473.94" style="enable-background:new 0 0 473.94 473.94;" xml:space="preserve">
<circle style="fill:#CA3092;" cx="236.97" cy="236.97" r="236.97"/>
<path style="fill:#FFFFFF;" d="M280.488,210.846c25.261,38.806,14.29,90.738-24.512,116.014
	c-38.799,25.268-90.738,14.294-116.007-24.505l24.09-16.191c16.404,25.197,50.132,32.325,75.33,15.918
	c25.193-16.411,32.322-50.14,15.91-75.333L280.488,210.846z"/>
<path d="M336.544,175.232c-25.313-38.765-77.264-49.672-116.037-24.352c-38.765,25.317-49.672,77.272-24.355,116.04l24.524-15.513
	c-16.441-25.179-9.358-58.911,15.82-75.348c25.175-16.445,58.907-9.369,75.356,15.809L336.544,175.232z"/>
<path style="fill:#FFFFFF;" d="M77.339,235.512c0-87.939,71.292-159.232,159.228-159.232s159.228,71.292,159.228,159.232
	c0,87.932-71.292,159.224-159.228,159.224S77.339,323.444,77.339,235.512z M236.567,383.589
	c81.781,0,148.078-66.301,148.078-148.077c0-81.784-66.297-148.078-148.078-148.078c-81.777,0-148.078,66.293-148.078,148.078
	C88.49,317.289,154.79,383.589,236.567,383.589z"/>
<g>
</g>
<g>
</g>
<g>
</g>
<g>
</g>
<g>
</g>
<g>
</g>
<g>
</g>
<g>
</g>
<g>
</g>
<g>
</g>
<g>
</g>
<g>
</g>
<g>
</g>
<g>
</g>
<g>
</g>
</svg>
