<?xml version="1.0" encoding="iso-8859-1"?>
<!-- Generator: Adobe Illustrator 19.0.0, SVG Export Plug-In . SVG Version: 6.00 Build 0)  -->
<svg version="1.1" id="Capa_1" xmlns="http://www.w3.org/2000/svg" xmlns:xlink="http://www.w3.org/1999/xlink" x="0px" y="0px"
	 viewBox="0 0 473.94 473.94" style="enable-background:new 0 0 473.94 473.94;" xml:space="preserve">
<circle style="fill:#F3F2F2;" cx="236.97" cy="236.97" r="236.97"/>
<path style="fill:#EE3B3F;" d="M103.876,196.159c-46.2-0.007-47.992,35.951-47.76,45.291c0,0-2.26,42.043,46.63,42.043
	c42.005,0,44.071-26.38,44.071-26.38l-19.326,0.034c0,0-3.764,14.537-24.67,14.148c-26.874-0.498-27.917-26.537-27.917-26.537h74.45
	C149.357,244.758,155.007,196.171,103.876,196.159z M75.521,232.006c0,0,1.325-23.543,27.899-23.555
	c26.473-0.007,26.473,23.555,26.473,23.555L75.521,232.006L75.521,232.006z"/>
<path style="fill:#0468B2;" d="M201.076,196.159c-23.229-0.131-33.223,13.751-33.223,13.751v-46.454H149.23l0.314,98.188
	c0,0-0.112,11.435-0.816,18.99h18.084l0.775-11.027c0,0,8.438,13.886,33.092,13.886c24.662,0,44.127-15.18,44.647-43.341
	C245.843,211.991,224.305,196.283,201.076,196.159z M196.807,270.939c-29.336,0.374-28.86-31.105-28.86-31.105
	s-1.066-30.308,28.812-31.083c29.874-0.778,28.909,31.727,28.909,31.727S226.142,270.572,196.807,270.939z"/>
<path style="fill:#F7AB1B;" d="M331.365,261.259c0.045-12.703,0.415-24.041,0-32.041c-0.49-9.276,0.389-31.659-39.712-33.317
	c0,0-38.443-3.502-42.436,25.111h19.663c0,0,1.527-13.107,21.478-12.73c18.881,0.359,22.324,9.616,22.222,21.003
	c0,0-16.187,0.052-21.586,0.075c-9.736,0.049-43.79,1.13-46.971,21.874c-3.783,24.67,18.23,32.359,35.457,32.265
	c17.231-0.094,27.053-5.253,34.361-14.499l0.778,11.484l17.134-0.101C331.754,280.376,331.313,273.955,331.365,261.259z
	 M282.7,271.62c0,0-18.66,0.026-19.76-14.889c-1.167-15.914,28.714-14.952,28.714-14.952l21.115-0.026
	C312.765,241.753,316.181,272.054,282.7,271.62z"/>
<polygon style="fill:#6BB745;" points="321.176,199.273 342.785,199.273 374.381,262.281 406.048,199.273 425.583,199.273 
	368.409,311.594 347.519,311.594 364.065,280.376 "/>
<g>
	<path style="fill:#231F20;" d="M432.891,203.767v-2.327h-0.715v-0.864h0.715v-1.212h1.302v1.212h1.523v0.864h-1.523v2.166
		c0,0.397,0.254,0.554,0.696,0.554c0.292,0,0.55-0.052,0.812-0.15v0.831c-0.322,0.138-0.681,0.228-1.171,0.228
		C433.565,205.069,432.891,204.743,432.891,203.767z"/>
	<path style="fill:#231F20;" d="M437.037,200.575h1.298v0.67c0.367-0.393,0.857-0.76,1.732-0.76c0.812,0,1.396,0.311,1.695,0.778
		c0.453-0.468,1.051-0.778,1.916-0.778c1.227,0,1.983,0.61,1.983,1.691v2.821h-1.298v-2.514c0-0.703-0.419-1.081-1.156-1.081
		c-0.703,0-1.209,0.389-1.209,1.096v2.5h-1.302v-2.518c0-0.688-0.427-1.078-1.152-1.078c-0.715,0-1.212,0.419-1.212,1.096v2.5
		h-1.298v-4.423L437.037,200.575L437.037,200.575z"/>
</g>
<g>
</g>
<g>
</g>
<g>
</g>
<g>
</g>
<g>
</g>
<g>
</g>
<g>
</g>
<g>
</g>
<g>
</g>
<g>
</g>
<g>
</g>
<g>
</g>
<g>
</g>
<g>
</g>
<g>
</g>
</svg>
