<?xml version="1.0" encoding="iso-8859-1"?>
<!-- Generator: Adobe Illustrator 19.0.0, SVG Export Plug-In . SVG Version: 6.00 Build 0)  -->
<svg version="1.1" id="Capa_1" xmlns="http://www.w3.org/2000/svg" xmlns:xlink="http://www.w3.org/1999/xlink" x="0px" y="0px"
	 viewBox="0 0 473.94 473.94" style="enable-background:new 0 0 473.94 473.94;" xml:space="preserve">
<circle style="fill:#686969;" cx="236.97" cy="236.97" r="236.97"/>
<g>
	<path style="fill:#D2D2D2;" d="M215.43,200.204h20.329c0,0,20.127-0.408,19.921,17.889c-0.206,13.616-19.513,15.656-19.513,15.656
		H215.43V200.204L215.43,200.204z M276.245,265.873c0.569,2.66,2.5,5.587,8.917,5.886c8.535,0.206,13.414-3.046,13.414-3.046v6.301
		c0,0-9.351,2.238-13.822,2.238c-4.677,0-18.496-1.014-18.496-13.818c0-10.368,11.383-13.62,17.886-13.62
		c11.386,0.397,16.872,4.468,16.666,16.056C300.806,266.037,282.078,265.906,276.245,265.873L276.245,265.873z M276.271,260.784
		h15.6c0,0,0-5.89-7.525-5.89C278.685,254.891,276.836,257.94,276.271,260.784L276.271,260.784z M325.61,254.415
		c2.256-2.447,6.043-4.412,12.4-4.412c12.606,0,14.634,10.571,14.432,13.422c-0.206,2.848-1.22,13.62-15.854,13.62
		c-5.53,0-8.913-1.882-10.982-4.228v3.413h-9.961v-36.591h9.961v14.776L325.61,254.415L325.61,254.415z M334.149,271.358
		c5.897-0.206,8.539-5.287,8.539-7.723c0-2.443-1.422-7.525-8.943-7.525c-5.841,0-7.615,4.408-8.135,6.567v2.653
		C326.123,267.519,327.915,271.358,334.149,271.358L334.149,271.358z M420.143,270.34l0.206,5.691c0,0-4.677,1.014-7.723,1.014
		c-3.05,0-10.982-1.822-10.982-9.557c0-3.147,0-7.607,0-11.787h-8.337v-5.283h8.337c0-3.663,0-6.309,0-6.309h10.166v6.309h8.337
		v5.283h-8.337v10.163c0,0,0,5.081,4.067,5.081S420.143,270.34,420.143,270.34L420.143,270.34z M389.243,205.694h11.787v28.254
		h9.964v-28.254h11.992v-5.897H389.24v5.897H389.243z M385.176,207.115l1.216-5.901c0,0-5.078-2.23-14.02-2.23
		c-8.745,0-22.773,4.879-22.773,18.092c0,13.01,14.84,17.485,23.989,17.485c9.149,0,12.198-1.422,12.198-1.422l-1.014-6.511
		c0,0-4.064,1.224-10.978,1.224c-6.709-0.206-13.624-5.489-13.624-11.379c0.206-5.291,6.301-11.188,14.23-11.188
		C380.502,205.286,385.176,207.115,385.176,207.115L385.176,207.115z M295.321,200.002c0,0,16.677-0.812,16.677,8.947
		c0,8.337-9.56,8.947-9.56,8.947s2.645,0.404,3.865,2.238c1.014,1.624,7.719,13.818,7.719,13.818h-10.159
		c0,0-1.631-2.028-2.44-3.454c-0.614-1.422-2.436-4.468-2.436-4.468s-1.429-5.085-6.305-5.085c-0.123,0-2.11-0.075-3.663-0.131
		v13.141h-9.755V200.01h16.056v-0.008H295.321z M289.019,215.246h5.283c0,0,7.323-0.408,7.727-4.879
		c0.202-4.273-7.113-4.879-7.113-4.879h-5.897L289.019,215.246L289.019,215.246z M329.883,220.533h16.262v-6.305h-16.262v-7.723
		h17.687v-6.503h-27.648v33.945h27.846v-6.095h-17.886L329.883,220.533L329.883,220.533z M369.528,246.554h9.961v-6.915h-9.961
		V246.554L369.528,246.554z M369.528,276.234h9.961v-25.811h-9.961V276.234L369.528,276.234z M260.967,233.948h9.755v-33.945h-9.755
		V233.948L260.967,233.948z M215.43,242.49h20.329c0,0,20.127-0.408,19.921,17.889c-0.206,13.62-19.513,15.652-19.513,15.652H215.43
		V242.49L215.43,242.49z M225.39,269.727h6.503c0,0,13.414-0.816,13.414-11.173c0-10.376-14.223-11.394-14.223-11.394h-5.695
		L225.39,269.727L225.39,269.727z M225.39,227.445h6.503c0,0,13.414-1.014,13.414-11.18c0-10.567-14.223-11.386-14.223-11.386
		h-5.695L225.39,227.445L225.39,227.445z"/>
	<path style="fill:#D2D2D2;" d="M124.156,220.414v68.018c0,0-39.442-7.109-39.442-34.151
		C84.71,232.721,113.908,223.213,124.156,220.414L124.156,220.414z M124.156,219.149c-23.708-1.717-77.451,9.392-77.451,33.71
		c0,15.854,28.456,39.038,74.806,39.641c1.833,0,54.484-2.036,53.672-58.548c-0.685-47.468-36.213-55.775-47.573-57.231v-2.885
		c45.291,2.877,80.912,30.11,80.912,63.169c0,34.967-39.843,63.427-88.838,63.427s-88.635-28.46-88.635-63.427
		s39.644-63.423,88.635-63.423c1.497,0,2.99,0.03,4.471,0.079L124.156,219.149L124.156,219.149z"/>
</g>
<g>
</g>
<g>
</g>
<g>
</g>
<g>
</g>
<g>
</g>
<g>
</g>
<g>
</g>
<g>
</g>
<g>
</g>
<g>
</g>
<g>
</g>
<g>
</g>
<g>
</g>
<g>
</g>
<g>
</g>
</svg>
