<?xml version="1.0" encoding="iso-8859-1"?>
<!-- Generator: Adobe Illustrator 19.0.0, SVG Export Plug-In . SVG Version: 6.00 Build 0)  -->
<svg version="1.1" id="Capa_1" xmlns="http://www.w3.org/2000/svg" xmlns:xlink="http://www.w3.org/1999/xlink" x="0px" y="0px"
	 viewBox="0 0 473.94 473.94" style="enable-background:new 0 0 473.94 473.94;" xml:space="preserve">
<circle style="fill:#003473;" cx="236.97" cy="236.97" r="236.97"/>
<g>
	<path style="fill:#009DDD;" d="M230.767,308.282c20.61-18.604,33.616-45.616,33.616-75.618c0-30.009-13.01-57.006-33.616-75.816
		c-18.009-16.4-42.002-26.406-68.411-26.406c-56.404,0-102.226,45.814-102.226,102.218c0,56.419,45.822,102.024,102.226,102.024
		C188.766,334.688,212.758,324.69,230.767,308.282L230.767,308.282z"/>
	<path style="fill:#009DDD;" d="M230.767,308.282c20.61-18.604,33.616-45.616,33.616-75.618c0-30.009-13.01-57.006-33.616-75.816
		V308.282L230.767,308.282z"/>
</g>
<path style="fill:#ED1C2E;" d="M299.392,130.446c-26.413,0-50.421,10.006-68.624,26.406c-3.596,3.398-6.993,7.001-10.204,10.81
	h20.602c2.806,3.39,5.407,7.199,7.805,10.795h-36.213c-2.193,3.603-4.195,7.21-6.002,10.803h48.015
	c1.609,3.596,3.199,7.21,4.4,10.806h-56.598c-1.205,3.6-2.208,7.21-3.005,11.001h62.608c1.396,6.803,2.208,14.208,2.208,21.601
	c0,11.203-1.811,22.211-5.212,32.411h-56.598c1.19,3.596,2.593,7.203,4.187,10.803h48.015c-1.796,3.603-3.603,7.401-5.804,10.803
	h-36.213c2.413,3.802,5.007,7.401,7.805,10.803h20.602c-3.195,3.802-6.601,7.405-10.398,10.803
	c18.204,16.408,42.211,26.406,68.624,26.406c56.411,0,102.024-45.605,102.024-102.024
	C401.411,176.261,355.803,130.446,299.392,130.446L299.392,130.446z"/>
<g>
	<path style="fill:#FFFFFF;" d="M366.194,254.67c0-1.804,1.609-3.199,3.405-3.199c1.804,0,3.199,1.396,3.199,3.199
		c0,1.807-1.396,3.405-3.199,3.405C367.803,258.075,366.194,256.477,366.194,254.67L366.194,254.67z M369.599,257.274
		c1.396,0,2.398-1.201,2.398-2.604c0-1.399-1.003-2.402-2.398-2.402c-1.403,0-2.593,1.003-2.593,2.402
		C367.006,256.073,368.196,257.274,369.599,257.274L369.599,257.274z M369.198,256.073h-0.797v-2.803h1.197
		c0.393,0,0.599,0,0.804,0.202c0.198,0.198,0.393,0.393,0.393,0.599c0,0.404-0.198,0.804-0.599,0.804l0.599,1.197h-0.804
		l-0.393-1.003h-0.4V256.073L369.198,256.073z M369.198,254.475h0.4c0,0,0.198,0,0.393,0c0,0,0-0.206,0-0.404v-0.206
		c-0.198,0-0.393,0-0.591,0h-0.206v0.61H369.198z"/>
	<polygon style="fill:#FFFFFF;" points="149.552,258.075 136.755,258.075 144.354,218.266 126.955,258.075 115.341,258.075 
		113.346,218.464 105.747,258.075 94.14,258.075 103.947,206.266 123.943,206.266 124.942,238.266 138.963,206.266 159.546,206.266 
			"/>
	<path style="fill:#FFFFFF;" d="M291.586,257.48c-3.603,0.992-6.204,1.392-9.209,1.392c-6.395,0-10.006-3.199-10.006-9.194
		c0-1.205,0.206-2.41,0.4-3.809l0.797-4.202l0.614-3.195l5.796-32.202h12.599l-1.792,9.594h6.593l-1.796,10.211h-6.6l-3.199,17.598
		c-0.206,0.801-0.4,1.403-0.4,1.8c0,2.204,1.403,3.195,4.408,3.195c1.396,0,2.586-0.198,3.398-0.397L291.586,257.48L291.586,257.48z
		"/>
	<path style="fill:#FFFFFF;" d="M328.593,216.272c-1.003-0.408-1.197-0.408-1.396-0.408c-0.606-0.206-1.003-0.206-1.003-0.397
		c-0.408,0-0.804,0-1.396,0c-4.21,0-7.207,1.8-11.012,6.795l1.197-6.398h-11.607l-7.798,42.211h12.804
		c4.599-25.815,6.402-30.41,12.599-30.41c0.4,0,1.01,0.202,1.602,0.202l1.403,0.397L328.593,216.272L328.593,216.272z"/>
	<path style="fill:#FFFFFF;" d="M241.166,229.263c0,5.205,3.005,9.003,9.807,11.611c5.205,2.193,6.006,2.799,6.006,4.801
		c0,2.597-2.406,3.802-7.405,3.802c-3.802,0-7.409-0.602-11.607-1.796l-1.601,9.803h0.606l2.193,0.595
		c0.797,0,1.994,0.202,3.398,0.202c3.005,0.393,5.407,0.393,7.207,0.393c13.403,0,19.805-4.4,19.805-13.998
		c0-5.804-2.601-9.201-9.201-11.802c-5.407-2.002-6.002-2.601-6.002-4.602c0-2.193,2.2-3.398,6.402-3.398
		c2.398,0,5.994,0.206,9.194,0.595l1.804-9.598c-3.398-0.591-8.397-0.797-11.203-0.797
		C246.172,215.067,241.166,221.465,241.166,229.263L241.166,229.263z"/>
	<path style="fill:#FFFFFF;" d="M190.76,258.075h-10.406l0.206-4.408c-3.199,3.405-7.6,5.003-13.403,5.003
		c-6.795,0-11.6-4.599-11.6-11.401c0-10.208,8.191-16.206,22.406-16.206c1.388,0,3.195,0,5.197,0.206c0.4-1.399,0.4-2.006,0.4-2.601
		c0-2.799-2.208-3.802-8.206-3.802c-3.603,0-7.592,0.4-10.398,1.003l-1.796,0.602l-1.205,0.195l1.796-9.399
		c6.41-1.609,10.406-2.2,15.214-2.2c10.993,0,16.599,4.195,16.599,12.194c0,2.204-0.198,3.805-0.995,8.408l-2.601,15.005l-0.4,2.597
		l-0.408,2.208l-0.198,1.392L190.76,258.075L190.76,258.075z M181.559,239.265c-1.411-0.198-2.002-0.198-2.799-0.198
		c-7.207,0-10.803,2.2-10.803,6.406c0,2.597,1.594,4.4,4.393,4.4C177.563,249.873,181.357,245.473,181.559,239.265L181.559,239.265z
		"/>
	<path style="fill:#FFFFFF;" d="M232.563,257.072c-4.393,1.201-8.595,1.796-13.003,1.796c-14.185,0-21.601-6.604-21.601-19.005
		c0-14.406,9.407-25.006,22.211-25.006c10.398,0,17.014,6.002,17.014,15.203c0,3.195-0.408,6.211-1.403,10.406h-25.418
		c0,0.797,0,0.995,0,1.403c0,4.801,3.603,7.398,11.005,7.398c4.602,0,8.801-0.797,13.197-2.593L232.563,257.072L232.563,257.072z
		 M225.768,232.073c0-0.804,0-1.609,0-2.204c0-3.398-2.208-5.407-6.002-5.407c-4.004,0-6.803,2.799-8.011,7.611H225.768
		L225.768,232.073z"/>
	<path style="fill:#FFFFFF;" d="M368.196,238.868c-2.002,13.994-11.802,20.198-24.812,20.198c-14.193,0-19.989-8.595-19.989-19.397
		c0-14.806,9.792-25.018,24.995-25.018c13.205,0,20.206,8.404,20.206,19.008C368.6,236.275,368.6,236.47,368.196,238.868
		L368.196,238.868z M354.998,233.461c0-4.4-1.804-8.389-6.993-8.389c-6.417,0-10.413,7.592-10.413,14.398
		c0,5.605,2.806,9.403,7.207,9.403c2.799,0,8.801-3.798,9.8-10.2C354.998,237.065,354.998,235.272,354.998,233.461L354.998,233.461z
		"/>
</g>
<g>
</g>
<g>
</g>
<g>
</g>
<g>
</g>
<g>
</g>
<g>
</g>
<g>
</g>
<g>
</g>
<g>
</g>
<g>
</g>
<g>
</g>
<g>
</g>
<g>
</g>
<g>
</g>
<g>
</g>
</svg>
