<?xml version="1.0" encoding="iso-8859-1"?>
<!-- Generator: Adobe Illustrator 19.0.0, SVG Export Plug-In . SVG Version: 6.00 Build 0)  -->
<svg version="1.1" id="Capa_1" xmlns="http://www.w3.org/2000/svg" xmlns:xlink="http://www.w3.org/1999/xlink" x="0px" y="0px"
	 viewBox="0 0 473.94 473.94" style="enable-background:new 0 0 473.94 473.94;" xml:space="preserve">
<circle style="fill:#F3F2F2;" cx="236.97" cy="236.97" r="236.97"/>
<path style="fill:#E0EFFA;" d="M140.114,204.203c0-51.752,41.941-93.716,93.716-93.716c51.752,0,93.709,41.964,93.709,93.716
	c0,51.76-41.956,93.716-93.709,93.716C182.055,297.919,140.114,255.963,140.114,204.203z"/>
<circle style="fill:#65B1E2;" cx="233.82" cy="204.2" r="73.16"/>
<path style="fill:#FFFFFF;" d="M334.614,100.395c1.089,20.138,8.093,34.361,16.916,46.768
	c-56.25,19.723-96.305,55.172-118.008,109.439c-10.174-19.959-19.547-41.418-47.064-48.673
	c11.049-8.527,16.598-13.111,20.561-28.729c13.122,9.44,18.413,18.409,23.521,35.854
	C255.068,164.948,290.997,131.414,334.614,100.395z"/>
<path style="fill:#005595;" d="M325.054,102.569c0.995,18.353,7.368,31.307,15.412,42.619
	c-51.251,17.975-88.145,50.308-107.912,99.752c-12.329-18.81-23.442-38.832-53.503-39.895c10.058-7.772,20.872-14.802,24.479-29.025
	c11.962,8.602,21.642,19.476,26.301,35.363C252.183,165.73,285.309,130.838,325.054,102.569z"/>
<path style="fill:#65B1E2;" d="M131.676,368.754c-5.721,0-9.478-0.43-11.21-0.681l-0.715-0.109V322.03l0.696-0.123
	c2.713-0.475,8.179-0.95,13.388-0.95c6.754,0,10.511,0.722,13.871,2.668c3.667,1.949,5.789,5.482,5.789,9.661
	c0,4.078-2.223,7.484-6.166,9.575c4.816,1.949,7.719,6.125,7.719,11.27c0,4.108-1.732,7.682-5.021,10.335
	C146.404,367.351,140.395,368.754,131.676,368.754z M131.583,359.415c0.827,0.067,1.841,0.067,3.121,0.067
	c2.376,0,7.899-0.561,7.899-5.751c0-4.763-5.238-5.482-8.367-5.482h-2.653V359.415z M134.097,339.243
	c4.73,0,7.431-1.725,7.431-4.745c0-3.641-3.487-4.4-6.417-4.4c-1.433,0-2.593,0.052-3.528,0.161v8.98h2.514L134.097,339.243
	L134.097,339.243z"/>
<path style="fill:#FFFFFF;" d="M133.832,321.799c6.256,0,10.077,0.599,13.44,2.552c3.166,1.688,5.384,4.778,5.384,8.939
	c0,3.97-2.361,7.667-7.461,9.616v0.131c5.182,1.351,9.003,5.313,9.003,11.094c0,4.172-1.878,7.397-4.707,9.676
	c-3.289,2.63-8.808,4.108-17.818,4.108c-5.036,0-8.801-0.337-11.087-0.674V322.74C123.28,322.267,128.66,321.799,133.832,321.799
	 M130.741,340.085h3.353c5.452,0,8.273-2.223,8.273-5.583c0-3.427-2.623-5.238-7.255-5.238c-2.286,0-3.566,0.131-4.37,0.262
	L130.741,340.085 M134.703,360.32c4.64,0,8.741-1.818,8.741-6.593c0-4.501-4.101-6.32-9.208-6.32h-3.495v12.774
	C131.751,360.32,132.956,360.32,134.703,360.32 M133.832,320.119c-5.261,0-10.787,0.483-13.534,0.965l-1.388,0.239v1.418v44.501
	v1.456l1.433,0.213c1.755,0.247,5.553,0.688,11.334,0.688c9.048,0,15.042-1.418,18.862-4.464c3.502-2.829,5.343-6.627,5.343-10.997
	c0-4.962-2.514-9.07-6.769-11.356c3.36-2.264,5.22-5.583,5.22-9.485c0-4.486-2.271-8.281-6.241-10.406
	C144.604,320.863,140.739,320.119,133.832,320.119L133.832,320.119z M132.421,331.03c0.76-0.06,1.65-0.086,2.69-0.086
	c5.575,0,5.575,2.683,5.575,3.558c0,3.397-4.131,3.903-6.593,3.903h-1.673v-7.375L132.421,331.03L132.421,331.03z M132.421,349.088
	h1.811c2.814,0,7.536,0.606,7.536,4.64c0,4.269-4.43,4.905-7.068,4.905c-0.883,0-1.639,0-2.279-0.015V349.088L132.421,349.088z"/>
<rect x="159.54" y="318.87" style="fill:#65B1E2;" width="11.899" height="49.4"/>
<path style="fill:#FFFFFF;" d="M170.609,319.707v47.737h-10.222v-47.737H170.609 M172.289,318.035h-1.68h-10.222h-1.68v1.673v47.737
	v1.68h1.68h10.222h1.68v-1.68v-47.737V318.035L172.289,318.035z"/>
<path style="fill:#65B1E2;" d="M189.827,369.024c-4.632,0-12.4-1.972-12.4-15.158v-20.142h11.899v18.518
	c0,6.825,3.267,6.825,4.34,6.825c2.354,0,3.802-1.624,4.318-3.02c0.236-0.543,0.352-1.171,0.352-1.923V333.72h11.899v23.158
	c0,4.445,0.138,7.951,0.269,10.518l0.037,0.876H200.03l-0.359-3.502C197.999,366.663,194.893,369.024,189.827,369.024z"/>
<path style="fill:#FFFFFF;" d="M209.393,334.573v22.312c0,4.303,0.138,7.798,0.269,10.559h-8.872l-0.475-4.64h-0.198
	c-1.28,2.017-4.37,5.381-10.29,5.381c-6.716,0-11.562-4.172-11.562-14.316v-19.292h10.215v17.672c0,4.778,1.549,7.667,5.182,7.667
	c2.821,0,4.501-1.946,5.107-3.558c0.269-0.606,0.4-1.343,0.4-2.223v-19.558h10.222 M211.073,332.886h-1.68h-10.215h-1.68v1.688
	v19.558c0,0.636-0.086,1.156-0.262,1.542l-0.015,0.045l-0.022,0.045c-0.153,0.408-1.051,2.47-3.528,2.47
	c-0.958,0-3.502,0-3.502-5.987v-17.672v-1.688h-1.68h-10.215h-1.68v1.688v19.293c0,10.166,4.831,15.989,13.242,15.989
	c4.284,0,7.252-1.587,9.194-3.252l0.094,1.01l0.153,1.512h1.519h8.872h1.762l-0.079-1.77c-0.123-2.552-0.269-6.043-0.269-10.473
	v-22.312v-1.684h-0.009L211.073,332.886L211.073,332.886z"/>
<path style="fill:#65B1E2;" d="M232.786,368.949c-11.51,0-18.38-6.571-18.38-17.575c0-8.857,5.452-18.387,17.444-18.387
	c11.424,0,15.495,8.909,15.495,17.238c0,1.673-0.183,3.259-0.359,4.187l-0.116,0.688h-20.909c0.812,3.36,4.868,4.576,8.31,4.576
	c3.319,0,6.028-0.423,8.801-1.366l0.913-0.314l1.658,8.542l-0.629,0.262C241.613,368.234,237.501,368.949,232.786,368.949z
	 M236.139,346.435c-0.183-1.71-1.036-4.977-4.905-4.977c-3.353,0-4.853,2.806-5.328,4.977H236.139z"/>
<path style="fill:#FFFFFF;" d="M231.851,333.829c10.619,0,14.653,8.273,14.653,16.4c0,1.755-0.206,3.296-0.337,4.034h-21.178
	c0.269,4.239,4.501,6.256,9.28,6.256c3.495,0,6.316-0.475,9.078-1.411l1.343,6.922c-3.36,1.418-7.469,2.092-11.906,2.092
	c-11.158,0-17.545-6.455-17.545-16.744C215.237,343.037,220.42,333.829,231.851,333.829 M224.921,347.273h12.093
	c0-2.485-1.074-6.657-5.781-6.657C226.938,340.616,225.19,344.586,224.921,347.273 M231.851,332.145
	c-5.759,0-10.552,2.163-13.893,6.271c-2.799,3.427-4.393,8.157-4.393,12.958c0,11.356,7.368,18.417,19.221,18.417
	c4.823,0,9.055-0.745,12.55-2.215l1.265-0.528l-0.262-1.343l-1.343-6.922l-0.367-1.893l-1.826,0.621
	c-2.675,0.913-5.306,1.325-8.527,1.325c-2.836,0-5.882-0.789-7.083-2.885h18.978h1.403l0.247-1.381
	c0.176-0.973,0.359-2.615,0.359-4.34c0-4.763-1.31-9.122-3.682-12.262C241.613,334.158,237.235,332.145,231.851,332.145
	L231.851,332.145z M227.043,345.593c0.546-1.478,1.717-3.289,4.195-3.289c2.623,0,3.588,1.74,3.933,3.289H227.043L227.043,345.593z"
	/>
<path style="fill:#005595;" d="M252.43,368.279v-46.256l0.696-0.116c3.719-0.629,8.426-0.95,13.994-0.95
	c6.462,0,11.158,1.242,14.376,3.817c3.274,2.529,5.152,6.593,5.152,11.139c0,4.756-1.579,8.793-4.449,11.386
	c-3.528,3.259-8.812,4.984-15.281,4.984c-1.051,0-1.923-0.037-2.653-0.123v16.123H252.43V368.279z M264.262,342.603
	c0.644,0.094,1.441,0.131,2.586,0.131c4.984,0,7.966-2.425,7.966-6.481c0-3.757-2.574-5.818-7.229-5.818
	c-1.688,0-2.728,0.094-3.326,0.183v11.985L264.262,342.603L264.262,342.603z"/>
<path style="fill:#FFFFFF;" d="M267.121,321.799c6.316,0,10.825,1.205,13.848,3.626c2.952,2.286,4.838,6.05,4.838,10.488
	s-1.411,8.273-4.172,10.758c-3.495,3.229-8.666,4.771-14.72,4.771c-1.343,0-2.552-0.067-3.495-0.262v16.269h-10.144v-44.707
	C256.427,322.199,260.864,321.799,267.121,321.799 M266.847,343.576c5.444,0,8.801-2.754,8.801-7.323
	c0-4.172-2.885-6.657-8.06-6.657c-2.017,0-3.427,0.131-4.165,0.337v13.373C264.292,343.512,265.298,343.576,266.847,343.576
	 M267.121,320.119c-5.62,0-10.368,0.322-14.133,0.965l-1.396,0.236v1.426v44.703v1.68h1.688h10.144h1.68v-1.68V353.08
	c0.543,0.03,1.141,0.045,1.811,0.045c6.679,0,12.161-1.804,15.858-5.22c3.035-2.732,4.715-7.001,4.715-11.992
	c0-4.801-2.002-9.107-5.489-11.809C278.638,321.417,273.77,320.119,267.121,320.119L267.121,320.119z M265.1,331.363
	c0.576-0.052,1.381-0.086,2.485-0.086c2.915,0,6.387,0.861,6.387,4.977c0,5.093-4.984,5.643-7.124,5.643
	c-0.703,0-1.272-0.015-1.747-0.045L265.1,331.363L265.1,331.363z"/>
<path style="fill:#005595;" d="M298.783,369.024c-7.446,0-11.465-5.635-11.465-10.926c0-8.333,7.008-13.19,19.278-13.403
	c-0.213-2.017-1.938-3.035-5.13-3.035c-3.353,0-6.746,1.182-8.625,2.354l-0.947,0.595l-2.376-8.296l0.584-0.329
	c1.287-0.715,6.035-3.061,13.175-3.061c9.968,0,15.229,5.22,15.229,15.091v11.495c0,3.543,0.183,6.226,0.52,7.745l0.228,1.022
	h-10.956l-0.468-2.529C305.56,367.867,302.402,369.024,298.783,369.024z M306.948,352.762c-5.22,0.138-7.865,1.594-7.865,4.325
	c0,2.754,2.23,3.053,3.195,3.053c2.017,0,3.918-1.336,4.509-3.18c0.101-0.4,0.161-0.943,0.161-1.489L306.948,352.762
	L306.948,352.762z"/>
<path style="fill:#FFFFFF;" d="M303.281,333.761c10.963,0,14.391,6.455,14.391,14.252v11.495c0,3.091,0.138,6.118,0.535,7.936
	h-9.212l-0.606-3.296h-0.198c-2.148,2.623-5.512,4.034-9.407,4.034c-6.657,0-10.627-4.846-10.627-10.084
	c0-8.535,7.667-12.569,19.293-12.569v-0.408c0-1.811-0.943-4.296-5.987-4.296c-3.36,0-6.922,1.141-9.078,2.485l-1.878-6.586
	C292.8,335.441,297.302,333.761,303.281,333.761 M302.278,360.99c2.485,0,4.64-1.688,5.306-3.772
	c0.138-0.543,0.206-1.141,0.206-1.747v-3.558c-5.381,0-9.545,1.28-9.545,5.175C298.244,359.714,299.992,360.99,302.278,360.99
	 M303.281,332.081c-7.139,0-11.884,2.223-13.586,3.173l-1.164,0.651l0.367,1.28l1.878,6.593l0.614,2.14l1.893-1.182
	c1.785-1.111,4.999-2.23,8.187-2.23c2.578,0,3.611,0.681,4.026,1.381c-12.116,0.49-19.016,5.613-19.016,14.215
	c0,5.706,4.311,11.76,12.307,11.76c3.267,0,6.189-0.883,8.486-2.552l0.079,0.438l0.247,1.381h1.396h9.208h2.099l-0.453-2.047
	c-0.322-1.47-0.498-4.086-0.498-7.57v-11.495C319.352,337.739,313.649,332.081,303.281,332.081L303.281,332.081z M302.278,359.303
	c-2.354,0-2.354-1.665-2.354-2.215c0-2.054,2.077-3.214,6.181-3.45v1.833c0,0.453-0.052,0.898-0.138,1.287
	C305.474,358.214,303.895,359.303,302.278,359.303L302.278,359.303z"/>
<path style="fill:#005595;" d="M323.094,373.05l0.861-0.183c1.28-0.269,2.806-0.868,4.195-1.658
	c1.433-0.745,3.076-2.339,3.925-3.787c0.314-0.513,0.423-0.883,0.423-1.059c0-0.277-0.045-0.644-0.344-1.358l-12.569-31.281h13.227
	l5.093,16.801c0.269,0.958,0.599,2.125,0.905,3.289c0.247-1.134,0.528-2.279,0.767-3.311l4.262-16.778h12.729l-8.052,22.772
	c-5.021,13.972-8.236,18.746-11.794,21.923c-4.056,3.588-8.187,4.486-10.29,4.715l-0.722,0.075L323.094,373.05z"/>
<path style="fill:#FFFFFF;" d="M355.392,334.573l-7.674,21.639c-4.7,13.111-7.865,18.286-11.562,21.582
	c-3.495,3.091-7.263,4.232-9.815,4.501l-2.215-8.602c1.28-0.269,2.885-0.868,4.438-1.747c1.542-0.812,3.296-2.492,4.232-4.108
	c0.337-0.535,0.543-1.066,0.543-1.478c0-0.4-0.075-0.868-0.408-1.68l-12.093-30.11h11.356l4.913,16.194
	c0.535,1.886,1.205,4.37,1.609,6.118h0.269c0.4-1.811,0.943-4.232,1.411-6.181l4.108-16.131h10.889 M357.761,332.886h-2.369h-10.896
	h-1.317l-0.322,1.272l-4.093,16.131c-0.015,0.037-0.022,0.075-0.022,0.101c-0.015-0.022-0.022-0.052-0.03-0.079l-4.917-16.224
	l-0.359-1.197h-1.25H320.83h-2.481l0.921,2.309l12.101,30.117c0.269,0.636,0.284,0.891,0.284,1.029
	c-0.015,0.075-0.079,0.292-0.284,0.614l-0.015,0.015l-0.015,0.03c-0.775,1.328-2.271,2.784-3.558,3.457l-0.022,0.007l-0.022,0.022
	c-1.317,0.737-2.761,1.317-3.955,1.564l-1.725,0.359l0.438,1.703l2.215,8.61l0.367,1.396l1.441-0.146
	c2.2-0.236,6.526-1.175,10.75-4.917c4.325-3.85,7.585-9.889,12.045-22.267l7.659-21.654L357.761,332.886L357.761,332.886z"/>
<g>
</g>
<g>
</g>
<g>
</g>
<g>
</g>
<g>
</g>
<g>
</g>
<g>
</g>
<g>
</g>
<g>
</g>
<g>
</g>
<g>
</g>
<g>
</g>
<g>
</g>
<g>
</g>
<g>
</g>
</svg>
