<?xml version="1.0" encoding="iso-8859-1"?>
<!-- Generator: Adobe Illustrator 19.0.0, SVG Export Plug-In . SVG Version: 6.00 Build 0)  -->
<svg version="1.1" id="Capa_1" xmlns="http://www.w3.org/2000/svg" xmlns:xlink="http://www.w3.org/1999/xlink" x="0px" y="0px"
	 viewBox="0 0 473.94 473.94" style="enable-background:new 0 0 473.94 473.94;" xml:space="preserve">
<circle style="fill:#1B7EC1;" cx="236.97" cy="236.97" r="236.97"/>
<g>
	<path style="fill:#EAF3F8;" d="M30.185,202.788c6.907-0.722,15.15-0.109,22.574-0.307c2.653,14.245,5.467,28.34,8.037,42.671
		c4.546-13.803,8.03-28.662,12.367-42.671c7.323,0,14.645,0,21.96,0c3.779,14.361,8.026,28.247,11.753,42.671
		c3.353-13.65,5.714-28.299,8.34-42.671c7.528,0,15.053,0,22.582,0c-5.781,25.65-11.326,51.543-17.006,77.305
		c-7.629,0-15.259,0-22.881,0c-4.34-15.772-9.268-30.937-13.916-46.383c-4.969,15.135-9.134,31.068-13.923,46.383
		c-7.622,0-15.251,0-22.881,0C41.754,253.893,36.063,228.244,30.185,202.788z"/>
	<path style="fill:#EAF3F8;" d="M180.783,202.482c2.163,0,4.333,0,6.488,0c26.712,1.22,39.367,16.494,38.346,45.447
		c-18.148,0-36.284,0-54.424,0c0.161,11.656,9.44,18.148,19.483,14.222c4.67-1.826,7.102-5.553,7.102-5.553l25.672,2.47
		c0.075,1.411-0.943,2.982-1.856,4.325c-6.526,9.616-17.306,16.179-33.399,16.393c-2.477,0-4.939,0-7.416,0
		c-21.751-0.943-35.7-13.317-37.118-34.327C141.906,219.174,156.843,204.214,180.783,202.482z M176.136,222.272
		c-3.042,2.713-4.378,6.855-4.939,12.374c8.962,0,17.934,0,26.9,0C199.297,221.733,184.809,214.556,176.136,222.272z"/>
	<path style="fill:#EAF3F8;" d="M239.533,203.095c0,0,43.636-4.262,55.973,3.704c5.919,3.835,8.961,11.15,8.961,19.491
		c0,20.763-17.074,26.806-40.815,24.729l-0.307,28.142h-23.809v-76.066H239.533z M281.594,226.912
		c-0.037-8.097-8.602-9.347-17.942-8.658c-0.715,5.145-0.109,11.641-0.307,17.306C272.655,236.258,281.62,235.016,281.594,226.912z"
		/>
	<path style="fill:#EAF3F8;" d="M326.42,203.095h25.665l28.452,75.763l-24.729,0.307l-3.405-12.367h-26.9l-4.019,12.367h-23.809
		L326.42,203.095z M330.439,250.41h16.707l-8.666-27.528L330.439,250.41z"/>
	<polygon style="fill:#EAF3F8;" points="369.091,203.41 394.453,203.095 410.232,228.764 425.992,203.095 451.047,203.095 
		422.288,247.319 422.288,279.165 398.471,279.165 398.471,247.626 	"/>
</g>
<g>
</g>
<g>
</g>
<g>
</g>
<g>
</g>
<g>
</g>
<g>
</g>
<g>
</g>
<g>
</g>
<g>
</g>
<g>
</g>
<g>
</g>
<g>
</g>
<g>
</g>
<g>
</g>
<g>
</g>
</svg>
