<?xml version="1.0" encoding="iso-8859-1"?>
<!-- Generator: Adobe Illustrator 19.0.0, SVG Export Plug-In . SVG Version: 6.00 Build 0)  -->
<svg version="1.1" id="Capa_1" xmlns="http://www.w3.org/2000/svg" xmlns:xlink="http://www.w3.org/1999/xlink" x="0px" y="0px"
	 viewBox="0 0 473.94 473.94" style="enable-background:new 0 0 473.94 473.94;" xml:space="preserve">
<circle style="fill:#3C80AD;" cx="236.97" cy="236.97" r="236.97"/>
<path style="fill:#931B1D;" d="M159.5,121.955c-59.797,0.378-108.212,49.133-108.212,109.143
	c0,60.246,48.789,109.136,108.911,109.136c28.202,0,53.923-10.773,73.275-28.437l-0.004-0.004h0.015
	c3.97-3.618,7.667-7.532,11.061-11.689h-22.308c-2.982-3.603-5.691-7.368-8.123-11.248h38.477c2.35-3.749,4.46-7.644,6.35-11.678
	H207.77c-1.747-3.749-3.263-7.57-4.554-11.465h60.28c3.641-10.881,5.605-22.525,5.605-34.615c0-8.03-0.872-15.843-2.507-23.379
	h-66.577c0.831-3.88,1.867-7.708,3.102-11.461h60.31c-1.347-4.004-2.915-7.899-4.696-11.686h-50.97
	c1.837-3.94,3.921-7.76,6.245-11.465h38.454c-2.563-4.09-5.392-7.996-8.449-11.678h-21.44c3.319-3.918,6.963-7.603,10.918-11.019
	c-19.345-17.672-45.069-28.452-73.286-28.452C159.96,121.955,159.728,121.955,159.5,121.955z"/>
<path style="fill:#F16622;" d="M415.189,231.132c0.011,60.269-48.721,109.14-108.885,109.158
	c-60.138,0.019-108.908-48.834-108.926-109.113v-0.045c-0.019-60.287,48.729-109.162,108.878-109.177
	c60.145-0.022,108.919,48.834,108.934,109.117C415.189,231.072,415.189,231.099,415.189,231.132z"/>
<path style="fill:#F7981D;" d="M415.189,232.337c0.011,60.272-48.721,109.151-108.885,109.162
	c-60.138,0.022-108.908-48.837-108.926-109.106v-0.056c-0.019-60.276,48.729-109.155,108.878-109.17
	c60.145-0.022,108.919,48.834,108.934,109.113C415.189,232.281,415.189,232.315,415.189,232.337z"/>
<path style="fill:#CB2026;" d="M159.5,123.194c-59.797,0.385-108.212,49.129-108.212,109.143
	c0,60.25,48.789,109.143,108.911,109.143c28.202,0,53.923-10.78,73.275-28.441l-0.004-0.011h0.015
	c3.97-3.615,7.667-7.517,11.061-11.689h-22.308c-2.982-3.596-5.691-7.353-8.123-11.233h38.477c2.35-3.753,4.46-7.659,6.35-11.689
	H207.77c-1.747-3.753-3.263-7.573-4.554-11.461h60.28c3.641-10.889,5.605-22.529,5.605-34.619c0-8.026-0.872-15.843-2.507-23.375
	h-66.577c0.831-3.876,1.867-7.712,3.102-11.461h60.31c-1.347-4.007-2.915-7.903-4.696-11.693h-50.97
	c1.837-3.925,3.921-7.76,6.245-11.461h38.454c-2.563-4.086-5.392-7.989-8.449-11.686h-21.44c3.319-3.91,6.963-7.596,10.918-11.019
	c-19.345-17.669-45.069-28.449-73.286-28.449C159.96,123.194,159.728,123.194,159.5,123.194z"/>
<g>
	<path style="fill:#FFFFFF;" d="M199.357,260.123l1.456-9.875c-0.793,0-1.961,0.337-2.99,0.337c-4.034,0-4.483-2.148-4.221-3.738
		l3.259-20.157h6.133l1.482-10.93h-5.781l1.179-6.788h-11.599c-0.251,0.254-6.847,38.215-6.847,42.828
		c0,6.844,3.828,9.893,9.238,9.848C194.893,261.609,198.197,260.438,199.357,260.123z"/>
	<path style="fill:#FFFFFF;" d="M203.035,241.291c0,16.423,10.81,20.329,20.026,20.329c8.509,0,12.247-1.912,12.247-1.912
		l2.047-11.21c0,0-6.469,2.874-12.314,2.874c-12.449,0-10.267-9.309-10.267-9.309h23.569c0,0,1.515-7.536,1.515-10.604
		c0-7.652-3.809-16.984-16.535-16.984C211.66,214.478,203.035,227.061,203.035,241.291z M223.372,224.876
		c6.541,0,5.332,7.371,5.332,7.966h-12.872C215.828,232.083,217.045,224.876,223.372,224.876z"/>
	<path style="fill:#FFFFFF;" d="M296.793,260.123l2.077-12.681c0,0-5.691,2.874-9.594,2.874c-8.224,0-11.521-6.309-11.521-13.059
		c0-13.725,7.076-21.276,14.96-21.276c5.905,0,10.649,3.33,10.649,3.33l1.89-12.303c0,0-7.031-2.859-13.055-2.859
		c-13.388,0-26.417,11.626-26.417,33.5c0,14.481,7.038,24.063,20.875,24.063C290.566,261.714,296.793,260.123,296.793,260.123z"/>
	<path style="fill:#FFFFFF;" d="M135.583,214.654c-7.951,0-14.047,2.556-14.047,2.556l-1.68,10.013c0,0,5.036-2.043,12.636-2.043
		c4.318,0,7.472,0.483,7.472,4.004c0,2.133-0.385,2.922-0.385,2.922s-3.401-0.288-4.98-0.288c-10.024,0-20.561,4.288-20.561,17.227
		c0,10.185,6.907,12.527,11.192,12.527c8.183,0,11.7-5.317,11.895-5.34l-0.382,4.445h10.208l4.557-32.011
		C151.508,215.091,139.687,214.654,135.583,214.654z M138.071,240.704c0.221,1.957-1.227,11.124-8.209,11.124
		c-3.6,0-4.539-2.761-4.539-4.393c0-3.177,1.725-6.997,10.226-6.997C137.521,240.438,137.734,240.655,138.071,240.704z"/>
	<path style="fill:#FFFFFF;" d="M162.362,261.328c2.608,0,17.538,0.67,17.538-14.769c0-14.436-13.818-11.588-13.818-17.388
		c0-2.877,2.253-3.798,6.368-3.798c1.635,0,7.925,0.528,7.925,0.528l1.467-10.267c0,0-4.071-0.906-10.694-0.906
		c-8.587,0-17.287,3.42-17.287,15.165c0,13.317,14.518,11.97,14.518,17.575c0,3.742-4.06,4.049-7.188,4.049
		c-5.403,0-10.271-1.86-10.294-1.774l-1.545,10.151C149.622,259.989,152.63,261.328,162.362,261.328z"/>
	<path style="fill:#FFFFFF;" d="M392.84,205.445l-2.496,15.551c0,0-4.367-6.035-11.195-6.035c-10.63,0-19.483,12.834-19.483,27.588
		c0,9.523,4.718,18.844,14.38,18.844c6.948,0,10.791-4.853,10.791-4.853l-0.505,4.142h11.278l8.864-55.262L392.84,205.445z
		 M387.459,235.78c0,6.133-3.038,14.323-9.321,14.323c-4.176,0-6.125-3.51-6.125-9.018c0-9.003,4.034-14.96,9.122-14.96
		C385.315,226.126,387.459,229.007,387.459,235.78z"/>
	<path style="fill:#FFFFFF;" d="M72.792,260.73l7.068-41.721l1.029,41.721h7.992l14.903-41.721L97.18,260.73h11.869l9.149-55.322
		h-18.36l-11.431,33.938l-0.595-33.938H70.895l-9.276,55.322H72.792L72.792,260.73z"/>
	<path style="fill:#FFFFFF;" d="M251.454,260.808c3.375-19.229,4-34.851,12.06-32.003c1.411-7.439,2.769-10.316,4.303-13.47
		c0,0-0.718-0.153-2.238-0.153c-5.182,0-9.033,7.109-9.033,7.109l1.025-6.526h-10.799l-7.225,45.043H251.454z"/>
	<path style="fill:#FFFFFF;" d="M323.546,214.654c-7.951,0-14.043,2.556-14.043,2.556l-1.676,10.013c0,0,5.025-2.043,12.632-2.043
		c4.314,0,7.476,0.483,7.476,4.004c0,2.133-0.389,2.922-0.389,2.922s-3.401-0.288-4.992-0.288c-10.028,0-20.553,4.288-20.553,17.227
		c0,10.185,6.911,12.527,11.192,12.527c8.183,0,11.704-5.317,11.891-5.34l-0.378,4.445h10.215l4.554-32.011
		C339.479,215.091,327.662,214.654,323.546,214.654z M326.038,240.704c0.221,1.957-1.22,11.124-8.213,11.124
		c-3.596,0-4.528-2.761-4.528-4.393c0-3.177,1.725-6.997,10.211-6.997C325.492,240.438,325.698,240.655,326.038,240.704z"/>
	<path style="fill:#FFFFFF;" d="M348.799,260.808c3.379-19.229,4.004-34.851,12.063-32.003c1.411-7.439,2.769-10.316,4.311-13.47
		c0,0-0.73-0.153-2.241-0.153c-5.197,0-9.036,7.109-9.036,7.109l1.033-6.526h-10.806l-7.229,45.04H348.8L348.799,260.808
		L348.799,260.808z"/>
</g>
<g>
</g>
<g>
</g>
<g>
</g>
<g>
</g>
<g>
</g>
<g>
</g>
<g>
</g>
<g>
</g>
<g>
</g>
<g>
</g>
<g>
</g>
<g>
</g>
<g>
</g>
<g>
</g>
<g>
</g>
</svg>
