<?xml version="1.0" encoding="iso-8859-1"?>
<!-- Generator: Adobe Illustrator 19.0.0, SVG Export Plug-In . SVG Version: 6.00 Build 0)  -->
<svg version="1.1" id="Capa_1" xmlns="http://www.w3.org/2000/svg" xmlns:xlink="http://www.w3.org/1999/xlink" x="0px" y="0px"
	 viewBox="0 0 473.94 473.94" style="enable-background:new 0 0 473.94 473.94;" xml:space="preserve">
<circle style="fill:#FFDF1B;" cx="236.97" cy="236.97" r="236.97"/>
<polyline points="33.01,191.447 47.509,191.447 50.952,217.146 51.06,217.146 54.858,191.447 71.617,191.447 75.411,217.146 
	75.52,217.146 78.985,191.447 93.469,191.447 84.631,232.322 67.086,232.322 63.292,205.827 63.176,205.827 59.389,232.322 
	41.844,232.322 33.01,191.447 "/>
<polyline points="103.385,191.447 134.46,191.447 134.46,202.089 118.894,202.089 118.894,206.448 133.274,206.448 133.274,217.093 
	118.894,217.093 118.894,221.673 134.973,221.673 134.973,232.322 103.385,232.322 103.385,191.447 "/>
<path d="M168.091,203.054c-0.06-2.552-1.471-3.398-3.573-3.398c-2.601,0-3.734,1.13-3.734,2.384c0,1.463,0.965,2.092,2.66,2.597
	c3.121,0.902,8.827,2.043,12.965,3.798c5.152,2.148,7.416,5.826,7.416,10.754c0,10.024-8.157,14.207-19.704,14.207
	c-9.845,0-18.907-3.057-18.907-13.702h15.513c0,1.137,0.228,2.275,0.849,3.117c0.614,0.797,1.643,1.295,3.166,1.295
	c2.384,0,3.91-1.519,3.91-3.334c0-1.527-1.19-2.324-2.72-2.769l-11.495-3.401c-6.286-1.867-8.486-5.661-8.486-10.922
	c0-8.494,6.847-13.302,18.787-13.302c10.196,0,17.833,3.169,17.833,12.681H168.09"/>
<polyline points="203.133,202.422 193.056,202.422 193.056,191.447 229.4,191.447 229.4,202.422 219.331,202.422 219.331,232.322 
	203.133,232.322 203.133,202.422 "/>
<polyline points="240.382,191.447 271.472,191.447 271.472,202.089 255.906,202.089 255.906,206.448 270.282,206.448 
	270.282,217.093 255.906,217.093 255.906,221.673 271.977,221.673 271.977,232.322 240.382,232.322 240.382,191.447 "/>
<path d="M283.985,191.447h24.176c8.771,0,13.916,2.66,13.916,10.357c0,4.707-1.972,8.262-8.097,9.744v0.109
	c3.97,0.337,6.125,2.099,6.922,5.212c0.898,3.51,0.79,9.283,2.653,15.457h-15.858c-0.958-3.061-1.463-8.221-2.024-11.723
	c-0.352-2.032-1.366-2.836-3.97-2.836h-1.863v14.559h-15.85v-40.879 M301.193,208.491c3.106,0,5.373-1.078,5.373-4.135
	c0-3.005-2.099-3.626-5.261-3.626h-1.471v7.76h1.359V208.491z"/>
<polyline points="334.813,191.447 354.229,191.447 362.891,216.188 363.007,216.188 363.007,191.447 376.14,191.447 376.14,232.322 
	356.728,232.322 348.07,207.413 347.954,207.413 347.954,232.322 334.813,232.322 334.813,191.447 "/>
<path d="M183.496,267.491c0,9.852-7.083,14.776-19.423,14.776c-12.337,0-19.416-4.924-19.416-14.776v-27.173h16.194v26.499
	c0,3.222,1.527,4.464,3.222,4.464c1.702,0,3.229-1.242,3.229-4.464v-26.499h16.194V267.491"/>
<polyline points="196.906,240.318 216.326,240.318 224.985,265.059 225.097,265.059 225.097,240.318 238.234,240.318 
	238.234,281.19 218.811,281.19 210.148,256.281 210.047,256.281 210.047,281.19 196.906,281.19 196.906,240.318 "/>
<rect x="251.93" y="240.33" width="16.179" height="40.871"/>
<path d="M301.474,239.244c14.099,0,21.107,8.771,21.107,21.511c0,12.733-7.008,21.511-21.107,21.511
	c-14.106,0-21.122-8.778-21.122-21.511C280.351,248.015,287.367,239.244,301.474,239.244 M301.474,271.626
	c2.485,0,4.355-1.418,4.355-10.87c0-9.235-1.762-10.874-4.355-10.874c-2.608,0-4.363,1.639-4.363,10.874
	C297.111,270.207,298.982,271.626,301.474,271.626z"/>
<polyline points="334.813,240.318 354.229,240.318 362.891,265.059 363.007,265.059 363.007,240.318 376.14,240.318 376.14,281.19 
	356.728,281.19 348.07,256.281 347.954,256.281 347.954,281.19 334.813,281.19 334.813,240.318 "/>
<rect x="387.91" y="190.64" width="5.175" height="90.7"/>
<rect x="424.54" y="191.5" width="5.167" height="89.77"/>
<path d="M434.179,196.349c0-2.997,2.44-5.437,5.452-5.437s5.437,2.44,5.437,5.437c0,3.02-2.425,5.455-5.437,5.455
	S434.179,199.368,434.179,196.349 M444.207,196.349c0-2.649-1.923-4.711-4.576-4.711c-2.645,0-4.591,2.062-4.591,4.711
	c0,2.672,1.946,4.745,4.591,4.745C442.284,201.093,444.207,199.02,444.207,196.349z M442.351,199.395h-0.891l-1.74-2.81h-1.366v2.81
	h-0.737v-6.084h2.645c1.616,0,2.163,0.606,2.163,1.609c0,1.19-0.834,1.639-1.908,1.665L442.351,199.395z M439.492,196.001
	c0.868,0,2.133,0.142,2.133-1.089c0-0.954-0.782-1.066-1.527-1.066h-1.747v2.155H439.492z"/>
<g>
</g>
<g>
</g>
<g>
</g>
<g>
</g>
<g>
</g>
<g>
</g>
<g>
</g>
<g>
</g>
<g>
</g>
<g>
</g>
<g>
</g>
<g>
</g>
<g>
</g>
<g>
</g>
<g>
</g>
</svg>
