<?xml version="1.0" encoding="iso-8859-1"?>
<!-- Generator: Adobe Illustrator 19.0.0, SVG Export Plug-In . SVG Version: 6.00 Build 0)  -->
<svg version="1.1" id="Capa_1" xmlns="http://www.w3.org/2000/svg" xmlns:xlink="http://www.w3.org/1999/xlink" x="0px" y="0px"
	 viewBox="0 0 473.94 473.94" style="enable-background:new 0 0 473.94 473.94;" xml:space="preserve">
<circle style="fill:#F3F2F2;" cx="236.97" cy="236.97" r="236.97"/>
<g>
	<path style="fill:#231F20;" d="M188.413,206.788h26.492v2.866h-8.471l17.773,50.967h0.269l10.342-30.267l-6.9-20.699h-7.951v-2.866
		h32.864v2.866h-12.453l17.504,50.967h0.262l18.035-50.967h-10.866v-2.866h17.751v2.866h-2.915l-23.326,65.017h-6.892
		l-13.265-39.247h-0.262l-13.792,39.247h-6.627l-22.537-65.017h-5.036L188.413,206.788L188.413,206.788z"/>
	<path style="fill:#231F20;" d="M285.949,229.501v-21.485c3.45-1.403,6.81-2.544,10.069-3.42c3.267-0.868,6.664-1.302,10.204-1.302
		c4.15,0,7.73,0.513,10.728,1.527c3.005,1.018,5.497,2.324,7.491,3.914c1.987,1.598,3.45,3.398,4.37,5.441
		c0.928,2.028,1.388,4.064,1.388,6.107v49.605h6.365v2.866h-17.957v-11.641h-0.344c-1.594,4.15-4.165,7.491-7.697,10.013
		c-3.536,2.514-7.697,3.783-12.46,3.783c-6.028,0-10.889-1.62-14.6-4.846c-3.719-3.225-5.568-7.764-5.568-13.609
		c0-3.891,0.681-7.005,2.047-9.351c1.381-2.346,3.214-4.202,5.527-5.568c2.309-1.373,4.89-2.391,7.775-3.053
		c2.881-0.659,5.826-1.265,8.834-1.796c3.012-0.528,5.964-1.123,8.834-1.792c2.881-0.662,5.429-1.654,7.652-2.982v-13.938
		c0-4.247-1.051-7.266-3.128-9.085c-2.092-1.818-4.905-2.728-8.449-2.728c-2.301,0-4.254,0.359-5.848,1.059
		c-1.601,0.707-3.046,1.931-4.325,3.663c-1.287,1.717-2.552,4.105-3.794,7.147c-1.242,3.053-2.66,6.885-4.254,11.472
		L285.949,229.501L285.949,229.501z M318.607,235.372c-3.727,1.777-7.244,2.975-10.559,3.588c-3.319,0.621-6.219,1.444-8.703,2.455
		c-2.477,1.022-4.449,2.582-5.905,4.718c-1.463,2.122-2.193,5.579-2.193,10.361c0,5.051,0.913,8.587,2.72,10.627
		c1.818,2.039,4.494,3.053,8.045,3.053c5.036-0.176,9.063-2.503,12.075-6.971c3.012-4.471,4.524-10.376,4.524-17.732v-10.099
		L318.607,235.372L318.607,235.372z"/>
	<path style="fill:#231F20;" d="M329.08,206.755h28.355v2.874h-9.938l19.405,46.289l15.962-46.289h-11.54v-2.874h21.201v2.874
		h-5.979l-24.321,69.862c-1.235,3.704-2.462,6.709-3.656,9.01c-1.205,2.301-2.455,4.086-3.787,5.373
		c-1.328,1.283-2.739,2.144-4.254,2.582c-1.512,0.441-3.195,0.662-5.051,0.662c-4.786,0-8.157-1.044-10.099-3.128v-20.681h2.866
		l3.581,12.857c0.98,3.45,1.964,5.661,2.982,6.634c1.021,0.965,2.062,1.459,3.113,1.459c1.328,0,2.593-0.539,3.787-1.59
		c1.19-1.063,2.324-2.522,3.383-4.378c1.051-1.86,2.054-4.052,2.975-6.567c0.928-2.518,1.796-5.201,2.593-8.03l-26.608-64.066
		h-4.969L329.08,206.755L329.08,206.755z"/>
	<circle style="fill:#231F20;" cx="119.16" cy="222.19" r="73.18"/>
</g>
<path style="fill:#F3F2F2;" d="M132.675,250.556c-2.223,1.624-5.635,2.039-11.809,2.039c-8.281,0-13.175-3.027-16.647-6.705
	c-3.641-3.869-5.444-6.357-5.538-16.572h71.007c0.067-1.897-0.037-6.417-0.037-7.375c0-15.566-5.605-30.073-14.054-38.649
	c-8.434-8.576-22.129-12.37-35.438-12.37c-13.755,0-28.269,4.647-36.89,13.407c-8.632,8.763-13.571,22.746-13.571,38.611
	c0,15.341,5.538,29.811,14.069,38.316c8.527,8.498,22.765,12.228,37.339,12.228c11.547,0,23.364-2.915,30.795-8.228
	c7.431-5.321,13.938-13.549,16.684-23.188l-28.77-0.385C138.004,246.017,136.978,247.409,132.675,250.556z M105.832,197.621
	c3.641-3.308,8.037-5.018,13.71-5.018c5.964,0,12.4,2.818,15.697,6.739c1.71,2.021,5.085,5.122,5.066,12.879H99.658
	C99.583,205.707,101.798,201.292,105.832,197.621z"/>
<g>
	<path style="fill:#231F20;" d="M223.435,285.676c-76.882,0.733-145.199,12.034-190.156,33.612c0,0,47.423-16.105,190.231-16.105
		c76.53,0,102.876,1.014,190.063,15.51C414.366,318.82,344.283,284.531,223.435,285.676z"/>
	<path style="fill:#231F20;" d="M400.84,209.045h-3.712v-2.294h10.159v2.294h-3.719v10.103h-2.728V209.045z"/>
	<path style="fill:#231F20;" d="M408.709,206.747h3.835l2.9,8.531h0.037l2.739-8.531h3.843v12.396h-2.559v-8.782h-0.037
		l-3.035,8.782h-2.107l-3.042-8.696h-0.037v8.696h-2.552v-12.396H408.709z"/>
</g>
<g>
</g>
<g>
</g>
<g>
</g>
<g>
</g>
<g>
</g>
<g>
</g>
<g>
</g>
<g>
</g>
<g>
</g>
<g>
</g>
<g>
</g>
<g>
</g>
<g>
</g>
<g>
</g>
<g>
</g>
</svg>
