<?xml version="1.0" encoding="iso-8859-1"?>
<!-- Generator: Adobe Illustrator 19.0.0, SVG Export Plug-In . SVG Version: 6.00 Build 0)  -->
<svg version="1.1" id="Capa_1" xmlns="http://www.w3.org/2000/svg" xmlns:xlink="http://www.w3.org/1999/xlink" x="0px" y="0px"
	 viewBox="0 0 473.94 473.94" style="enable-background:new 0 0 473.94 473.94;" xml:space="preserve">
<circle style="fill:#43567E;" cx="236.97" cy="236.97" r="236.97"/>
<path style="fill:#BC202A;" d="M131.68,194.175c3.704,0,7.409,0,11.124,0c0,3.704,0,7.409,0,11.121c-3.712,0-7.416,0-11.124,0
	C131.68,201.584,131.68,197.879,131.68,194.175z"/>
<g>
	<path style="fill:#FFFFFF;" d="M423.354,194.175c0,24.262,0,48.527,0,72.788c-3.704,0-7.409,0-11.124,0c0-2.185,0-4.378,0-6.571
		c-3.742,9.351-23.7,9.706-31.842,3.536c-12.138-9.182-12.707-35.846-1.01-46.001c7.431-6.451,25.556-7.465,32.351,3.038
		c0-8.932,0-17.863,0-26.791C415.601,194.175,419.481,194.175,423.354,194.175z M387.968,256.352c5.482,4.812,14.507,3.693,18.709,0
		c11.431-10.058,6.511-38.027-12.643-33.874C381.495,225.205,378.243,247.798,387.968,256.352z"/>
	<path style="fill:#FFFFFF;" d="M180.207,212.876c0,3.708,0,7.42,0,11.12c-22.971-4.131-19.27,22.424-19.214,42.967
		c-3.873,0-7.753,0-11.618,0c0-17.523,0-35.042,0-52.568c3.704,0,7.405,0,11.117,0c0,3.364,0,6.739,0,10.106
		C163.691,217.254,168.937,212.049,180.207,212.876z"/>
	<path style="fill:#FFFFFF;" d="M228.734,243.708c-12.973,0-25.945,0-38.914,0c-3.214,17.373,23.633,20.759,27.296,7.083
		c3.536,0,7.076,0,10.612,0c-2.499,17.605-27.925,22.821-40.437,12.636c-17.743-14.424-9.003-48.153,13.141-50.551
		C219.84,210.773,228.951,224.7,228.734,243.708z M189.816,236.131c9.1,0,18.189,0,27.296,0
		C218.597,218.044,188.218,217.464,189.816,236.131z"/>
	<path style="fill:#FFFFFF;" d="M281.811,231.585c-3.536,0-7.076,0-10.612,0c-2.499-3.427-3.151-6.993-6.578-8.595
		c-26.682-12.512-28.669,44.19-2.522,35.887c4.584-1.456,7.023-4.853,8.082-11.626c3.88,0,7.753,0,11.626,0
		c-2.062,8.958-5.006,16.075-11.626,18.705c-18.05,7.162-35.782-1.949-37.908-19.206c-3.222-26.106,19.36-42.158,39.932-30.836
		C277.07,218.582,280.651,223.791,281.811,231.585z"/>
	<path style="fill:#FFFFFF;" d="M332.874,258.369c0.876,1.317,3.353,1.029,5.553,1.014c0,2.529,0,5.055,0,7.577
		c-5.534,2.578-15.682,2.26-16.172-4.546c-8.471,6.473-26.323,9.822-33.874,0c-5.351-6.971-2.945-18.327,3.536-22.245
		c8.947-5.384,32.003-0.561,29.826-12.636c-1.755-9.822-23.7-6.2-23.248,2.529c-3.536,0-7.076,0-10.619,0
		c-1.182-20.265,36.235-22.817,43.476-8.595C336.44,231.447,330.719,245.033,332.874,258.369z M296.976,253.321
		c1.036,7.409,17.818,8.602,22.75,1.512c2.47-3.543,1.631-7.914,1.01-14.148C313.125,244.928,295.266,241.022,296.976,253.321z"/>
	<path style="fill:#FFFFFF;" d="M373.308,213.389c0,3.536,0,7.076,0,10.608c-23.18-4.352-19.255,22.432-19.214,42.967
		c-3.865,0-7.745,0-11.618,0c0-17.523,0-35.042,0-52.568c3.536,0,7.083,0,10.612,0c0,3.364,0,6.739,0,10.106
		C356.369,217.662,362.655,211.17,373.308,213.389z"/>
	<path style="fill:#FFFFFF;" d="M49.788,214.395c4.041,0,8.082,0,12.131,0c3.296,13.212,7.068,25.96,10.114,39.423
		c4.584-12.093,6.701-26.649,10.612-39.423c3.88,0,7.745,0,11.626,0c3.143,13.197,6.103,26.581,9.601,39.423
		c4.079-12.771,7.102-26.589,11.124-39.423c3.873,0,7.753,0,11.626,0c-5.826,17.257-11.005,35.154-16.685,52.568
		c-3.873,0-7.753,0-11.626,0c-3.334-12.842-6.776-25.575-9.601-38.914c-5.085,11.424-6.608,26.413-10.612,38.914
		c-4.049,0-8.09,0-12.131,0C60.703,249.306,55.127,231.963,49.788,214.395z"/>
	<path style="fill:#FFFFFF;" d="M142.804,214.395c0,17.526,0,35.045,0,52.568c-3.712,0-7.416,0-11.124,0
		c0.329-17.354-0.674-36.059,0.505-52.568C135.721,214.395,139.261,214.395,142.804,214.395z"/>
</g>
<g>
</g>
<g>
</g>
<g>
</g>
<g>
</g>
<g>
</g>
<g>
</g>
<g>
</g>
<g>
</g>
<g>
</g>
<g>
</g>
<g>
</g>
<g>
</g>
<g>
</g>
<g>
</g>
<g>
</g>
</svg>
