<?xml version="1.0" encoding="iso-8859-1"?>
<!-- Generator: Adobe Illustrator 19.0.0, SVG Export Plug-In . SVG Version: 6.00 Build 0)  -->
<svg version="1.1" id="Capa_1" xmlns="http://www.w3.org/2000/svg" xmlns:xlink="http://www.w3.org/1999/xlink" x="0px" y="0px"
	 viewBox="0 0 473.94 473.94" style="enable-background:new 0 0 473.94 473.94;" xml:space="preserve">
<circle style="fill:#F3F2F2;" cx="236.97" cy="236.97" r="236.97"/>
<g>
	<path style="fill:#231F20;" d="M91.505,226.034v-22.956c0-2.99-1.545-6.286-9.07-6.286v-1.957h28.621v1.957
		c-7.514,0-9.055,3.297-9.055,6.286v51.685c0,2.982,1.542,6.282,9.055,6.282v1.953H82.435v-1.953c7.525,0,9.07-3.3,9.07-6.282
		v-24.505H60.303v24.505c0,2.982,1.542,6.282,9.066,6.282v1.953H40.744v-1.953c7.517,0,9.063-3.3,9.063-6.282v-51.685
		c0-2.99-1.545-6.286-9.063-6.286v-1.957h28.625v1.957c-7.525,0-9.066,3.297-9.066,6.286v22.956L91.505,226.034"/>
	<path style="fill:#231F20;" d="M113.477,242.307h2.365c3.199,9.575,10.402,18.226,21.321,18.226
		c8.337,0,13.994-7.214,11.633-15.244c-4.228-14.413-32.329-15.035-32.329-34.698c0-10.196,8.127-17.194,18.222-17.194
		c10.911,0,15.85,7.615,18.32,0h2.159l2.264,21.934h-2.571c-2.372-9.583-9.167-17.71-18.743-17.71c-6.178,0-10.81,3.39-10.81,9.89
		c0,5.968,6.485,10.185,10.907,12.861c14.002,8.449,23.472,12.872,23.472,25.227c0,9.272-7.719,18.844-21.714,18.844
		c-10.713,0-18.125-7.51-19.162,0h-2.26L113.477,242.307"/>
	<path style="fill:#231F20;" d="M193.739,225.316c10.398,0,16.471-4.43,16.471-12.767c0-7.832-4.935-12.052-12.142-13.381
		c-9.478-0.621-12.774-0.827-12.774,2.776v23.371L193.739,225.316 M185.293,253.731c0,3.611,0.932,5.459,8.445,5.459
		c10.709,0,18.634-3.195,18.634-15.237c0-12.254-12.254-14.522-21.931-14.522h-5.149L185.293,253.731L185.293,253.731z
		 M174.79,203.078c0-2.99-1.542-6.286-9.882-6.286v-1.957h27.588c15.858,0,28.217,4.228,28.217,17.407
		c0,8.647-5.77,13.074-13.691,14.829v0.206c8.849,1.643,17.186,7.094,17.186,16.988c0,12.355-10.698,18.735-26.87,18.735h-32.43
		v-1.953c8.34,0,9.882-3.3,9.882-6.282V203.078z"/>
	<path style="fill:#231F20;" d="M286.007,216.043h-2.47c-2.982-11.334-10.496-19.053-22.237-19.053
		c-16.984,0-24.292,13.695-24.292,32.224c0,14.417,7.514,29.957,24.4,29.957c10.088,0,16.988-3.296,24.09-10.294l1.751,2.062
		c-6.279,7.723-16.887,12.872-26.769,12.872c-20.071,0-35.416-12.872-35.416-35.427c0-20.486,14.514-35.626,35.214-35.626
		c14.103,0,19.255,8.453,22.66,0.109h2.152L286.007,216.043"/>
</g>
<rect x="341.62" y="192.99" style="fill:#FFFFFF;" width="69.25" height="69.25"/>
<g>
	<polyline style="fill:#EE3725;" points="341.621,192.93 410.867,192.93 376.244,227.553 341.621,192.93 	"/>
	<polyline style="fill:#EE3725;" points="341.621,262.176 410.867,262.176 376.244,227.553 341.621,262.176 	"/>
	<polyline style="fill:#EE3725;" points="341.621,192.93 341.621,262.176 306.991,227.553 341.621,192.93 	"/>
	<polyline style="fill:#EE3725;" points="410.867,192.93 410.867,262.176 445.494,227.553 410.867,192.93 	"/>
</g>
<g>
</g>
<g>
</g>
<g>
</g>
<g>
</g>
<g>
</g>
<g>
</g>
<g>
</g>
<g>
</g>
<g>
</g>
<g>
</g>
<g>
</g>
<g>
</g>
<g>
</g>
<g>
</g>
<g>
</g>
</svg>
