<?xml version="1.0" encoding="iso-8859-1"?>
<!-- Generator: Adobe Illustrator 19.0.0, SVG Export Plug-In . SVG Version: 6.00 Build 0)  -->
<svg version="1.1" id="Capa_1" xmlns="http://www.w3.org/2000/svg" xmlns:xlink="http://www.w3.org/1999/xlink" x="0px" y="0px"
	 viewBox="0 0 473.94 473.94" style="enable-background:new 0 0 473.94 473.94;" xml:space="preserve">
<circle style="fill:#F3F2F2;" cx="236.97" cy="236.97" r="236.97"/>
<polygon style="fill:#32357F;" points="223.654,183.318 193.11,183.318 193.11,332.667 223.654,332.667 "/>
<path id="SVGCleanerId_0" style="fill:#32357F;" d="M251.65,183.565v28h25.714v84.258c0,11.622,3.195,20.961,9.332,28.004
	c6.14,7.282,14.327,10.889,24.643,11.136c10.238,0.239,19.326-2.047,27.023-6.791l0.494-0.247v-0.494l7.285-28.411l-1.8,1.145
	c-8.187,4.999-15.723,7.454-22.6,7.454c-9.497,0-14.327-5.654-14.327-16.786v-79.266h31.203v-28h-31.203V136.89l-30.047,16.135
	v30.54H251.65L251.65,183.565z"/>
<polygon style="fill:#32357F;" points="399.447,183.318 368.66,183.318 368.66,332.667 399.447,332.667 "/>
<path id="SVGCleanerId_1" style="fill:#32357F;" d="M175.587,206.82l-0.655-0.49c-14.084-17.115-31.685-25.47-52.812-25.47
	c-22.103,0-40.288,6.795-54.858,20.228c-15.476,14.163-23.255,33.238-23.255,57.148c0,23.906,7.779,42.825,23.255,57.148
	c14.331,13.429,32.756,20.06,54.858,20.06c21.126,0,38.892-8.434,52.812-25.302l0.655-0.49l-17.276-20.879l-0.655,0.651
	c-11.214,11.139-23.255,16.872-36.191,16.872c-13.512,0-24.643-4.587-33.489-13.676c-8.928-8.924-13.179-20.471-13.179-34.383
	c0-13.923,4.254-25.545,13.179-34.634c8.846-8.846,19.977-13.433,33.489-13.433c12.935,0,24.976,5.729,36.191,16.868l0.655,0.659
	L175.587,206.82L175.587,206.82z"/>
<path style="fill:#EA2230;" d="M208.174,158.76c12.037-12.284,25.467-21.62,40.774-28.254c14.735-6.387,30.462-9.5,46.671-9.5
	c16.135,0,31.854,3.113,46.918,9.5c14.982,6.63,28.415,15.97,40.452,28.254l0.49,0.404h35.042l-1.313-2.05
	c-13.919-19.566-31.929-35.042-53.549-46.342c-21.613-11.214-44.131-16.707-68.044-16.707c-23.659,0-46.507,5.493-68.123,16.707
	c-21.613,11.3-39.626,26.776-53.463,46.342l-1.396,2.05h35.293L208.174,158.76L208.174,158.76z"/>
<polygon style="fill:#32357F;" points="223.654,183.318 193.11,183.318 193.11,332.667 223.654,332.667 "/>
<g>
	<path id="SVGCleanerId_0_1_" style="fill:#32357F;" d="M251.65,183.565v28h25.714v84.258c0,11.622,3.195,20.961,9.332,28.004
		c6.14,7.282,14.327,10.889,24.643,11.136c10.238,0.239,19.326-2.047,27.023-6.791l0.494-0.247v-0.494l7.285-28.411l-1.8,1.145
		c-8.187,4.999-15.723,7.454-22.6,7.454c-9.497,0-14.327-5.654-14.327-16.786v-79.266h31.203v-28h-31.203V136.89l-30.047,16.135
		v30.54H251.65L251.65,183.565z"/>
</g>
<polygon style="fill:#32357F;" points="399.447,183.318 368.66,183.318 368.66,332.667 399.447,332.667 "/>
<g>
	<path id="SVGCleanerId_1_1_" style="fill:#32357F;" d="M175.587,206.82l-0.655-0.49c-14.084-17.115-31.685-25.47-52.812-25.47
		c-22.103,0-40.288,6.795-54.858,20.228c-15.476,14.163-23.255,33.238-23.255,57.148c0,23.906,7.779,42.825,23.255,57.148
		c14.331,13.429,32.756,20.06,54.858,20.06c21.126,0,38.892-8.434,52.812-25.302l0.655-0.49l-17.276-20.879l-0.655,0.651
		c-11.214,11.139-23.255,16.872-36.191,16.872c-13.512,0-24.643-4.587-33.489-13.676c-8.928-8.924-13.179-20.471-13.179-34.383
		c0-13.923,4.254-25.545,13.179-34.634c8.846-8.846,19.977-13.433,33.489-13.433c12.935,0,24.976,5.729,36.191,16.868l0.655,0.659
		L175.587,206.82L175.587,206.82z"/>
</g>
<path style="fill:#E92F30;" d="M208.174,158.76c12.037-12.284,25.467-21.62,40.774-28.254c14.735-6.387,30.462-9.5,46.671-9.5
	c16.135,0,31.854,3.113,46.918,9.5c14.982,6.63,28.415,15.97,40.452,28.254l0.49,0.404h35.042l-1.313-2.05
	c-13.919-19.566-31.929-35.042-53.549-46.342c-21.613-11.214-44.131-16.707-68.044-16.707c-23.659,0-46.507,5.493-68.123,16.707
	c-21.613,11.3-39.626,26.776-53.463,46.342l-1.396,2.05h35.293L208.174,158.76L208.174,158.76z"/>
<g>
</g>
<g>
</g>
<g>
</g>
<g>
</g>
<g>
</g>
<g>
</g>
<g>
</g>
<g>
</g>
<g>
</g>
<g>
</g>
<g>
</g>
<g>
</g>
<g>
</g>
<g>
</g>
<g>
</g>
</svg>
