<?xml version="1.0" encoding="iso-8859-1"?>
<!-- Generator: Adobe Illustrator 19.0.0, SVG Export Plug-In . SVG Version: 6.00 Build 0)  -->
<svg version="1.1" id="Capa_1" xmlns="http://www.w3.org/2000/svg" xmlns:xlink="http://www.w3.org/1999/xlink" x="0px" y="0px"
	 viewBox="0 0 473.94 473.94" style="enable-background:new 0 0 473.94 473.94;" xml:space="preserve">
<circle style="fill:#F3F2F2;" cx="236.97" cy="236.97" r="236.97"/>
<path style="fill:#F16823;" d="M259.34,399.451l140.25-140.253c12.322-12.307,12.322-32.284,0-44.587L259.34,74.368
	c-12.307-12.348-32.273-12.348-44.587,0L74.503,214.61c-12.314,12.303-12.314,32.28,0,44.587l140.25,140.253
	C227.067,411.758,247.033,411.758,259.34,399.451z"/>
<path style="fill:#0063A6;" d="M329.457,144.474l-70.117-70.11c-12.307-12.348-32.273-12.348-44.587,0L74.503,214.607
	c-12.314,12.303-12.314,32.28,0,44.587l70.106,70.106L329.457,144.474z"/>
<g>
	<path style="fill:#FFFFFF;" d="M308.028,251.306c-5.321,27.925-29.833,51.607-60.097,54.66c-11.921,1.182-23.517-0.775-33.96-5.137
		c-1.658,1.426-22.144,21.931-24.381,24.52c17.972,10.627,39.397,15.835,61.784,13.586c37.863-3.824,68.841-28.699,83.015-61.388
		L308.028,251.306z"/>
	<path style="fill:#FFFFFF;" d="M169.649,310.048c3.88,3.865,7.974,7.323,12.445,10.503l141.758-141.687
		c-3.143-4.43-6.649-8.572-10.451-12.43L169.649,310.048z"/>
	<path style="fill:#FFFFFF;" d="M307.047,160.706c-4.737-4.056-9.1-7.237-13.351-9.852c-18.103-10.84-40.172-16.509-62.783-14.238
		c-55.813,5.613-96.43,55.405-90.922,111.21c1.673,16.917,6.948,31.659,15.742,45.122c2.462,3.794,8.165,10.904,8.165,10.904
		L307.047,160.706z M237.315,169.365c11.787-1.186,23.094,0.692,33.302,4.992l-89.825,89.799
		c-2.537-6.077-4.239-12.741-4.924-19.611C172.074,206.82,199.591,173.166,237.315,169.365z"/>
</g>
<g>
</g>
<g>
</g>
<g>
</g>
<g>
</g>
<g>
</g>
<g>
</g>
<g>
</g>
<g>
</g>
<g>
</g>
<g>
</g>
<g>
</g>
<g>
</g>
<g>
</g>
<g>
</g>
<g>
</g>
</svg>
