<?xml version="1.0" encoding="iso-8859-1"?>
<!-- Generator: Adobe Illustrator 19.0.0, SVG Export Plug-In . SVG Version: 6.00 Build 0)  -->
<svg version="1.1" id="Capa_1" xmlns="http://www.w3.org/2000/svg" xmlns:xlink="http://www.w3.org/1999/xlink" x="0px" y="0px"
	 viewBox="0 0 473.94 473.94" style="enable-background:new 0 0 473.94 473.94;" xml:space="preserve">
<circle style="fill:#008061;" cx="236.97" cy="236.97" r="236.97"/>
<path style="fill:#E2E4D5;" d="M427.956,222.431c0-16.34-12.688-46.836-53.713-46.959c-17.796-0.056-31.206,7.798-37.373,12.969
	v-11.6l-27.442-0.011v11.611c-6.724-5.807-14.892-11.042-23.117-12.281c-8.741-1.321-17.482-0.924-28.292,2.331
	c-8.988,2.709-14.72,6.705-20.266,12.962c-11.461-12.812-29.56-15.368-43.988-15.895c-16.423-0.599-32.98,1.426-45.889,10.844
	c-12.438-6.354-28.157-11.345-45.605-11.248c-15.341,0.086-30.035,3.543-40.452,12.531c-3.757,3.24-5.437,5.815-7.3,10.41
	c-3.682,9.108-2.148,19.622,1.957,25.111c7.659,10.238,16.247,14.215,31.659,15.947c13.542,1.519,23.019,1.527,33.04,3.371
	c4.737,0.864,9.078,4.367,9.078,9.557c0,6.054-8.471,15.977-28.924,14.645c-17.044-1.108-23.48-3.51-39.51-13.927l-18.095,14.619
	c0,0,3.083,2.462,5.19,3.843c2.032,1.328,4.135,2.582,6.316,3.753h0.052c18.249,9.841,41.343,13.957,62.252,10.612
	c10.26-1.643,19.989-5.078,28.355-10.522c6.769,4.625,15.712,12.554,37.358,11.585c13.624-0.614,23.738-0.123,33.193-10.993v10.859
	h26.507l-0.007-10.859c0,0,4.18,3.375,7.117,5.137c16.831,10.092,43.599,6.275,59.431-5.762l0.037,14.05
	c-0.453,8.666-8.419,14.6-16.793,17.946c-14.462,5.766-27.641,0.595-39.405-7.697l-20.082,13.418
	c5.422,5.426,10.376,8.595,18.103,12.131c21.721,9.934,47.132,6.548,64.662-3.843c11.562-6.855,16.034-15.259,18.825-28.179
	c1.482-6.87,1.631-11.899,1.856-17.908l0,0c0.007-0.176,0.007-0.333,0.015-0.486c0.236,0.165,0.468,0.326,0.696,0.486
	c5.59,3.899,10.537,6.788,18.103,9.089c12.213,3.708,26.106,3.876,41.612-0.168c7.214-1.886,13.586-4.898,19.27-8.92h0.015
	c3.076-2.189,5.957-4.666,8.666-7.416l-17.321-12.322c-5.867,4.782-14.6,9.609-24.557,10.866
	c-11.495,1.456-24.535-0.621-31.592-8.269c-3.817-4.131-5.145-5.433-5.145-15.903l81.5,0.09v-19.603h0.003L427.956,222.431
	L427.956,222.431z M254.415,230.038c0.221-6.021,0.79-12.456,1.433-18.78c0.314-3.083,4.041-6.806,9.28-9.665
	c4.756-2.589,10.765-4.464,16.599-4.494c4.438-0.026,8.988,0.812,13.018,2.365c7.023,2.702,12.468,7.558,13.029,13.774
	c0.52,5.789,1.119,11.263,1.388,16.505c0.337,6.552,0.176,12.752-1.25,18.765c-0.913,3.824-2.814,7.076-6.739,10.185
	c-4.438,3.51-11.304,6.627-19.446,6.166c-11.394-0.636-21.583-5.149-24.591-11.457C254.606,248.088,254.071,239.59,254.415,230.038z
	 M206.042,265.094c-5.688,1.777-14.761,2.687-24.43,1.515c-8.045-0.969-15.712-1.538-18.847-8.763
	c-1.695-3.914-1.336-7.51,1.302-10.851c4.15-5.25,13.762-6.275,19.521-6.331h31.566
	C215.987,248.878,218.621,261.162,206.042,265.094z M112.295,220.234c-12.651-0.677-24.292-0.92-30.615-5.979
	c-3.641-2.911-2.922-11.293,2.178-14.327c7.345-4.367,16.224-4.221,21.339-3.955c10.365,0.535,22.29,3.918,31.689,10.174
	l10.993-10.174c0,0,11.607,10.627,11.607,10.174c13.534-9.422,18.316-9.441,30.922-9.433c17.238,0.015,22.189,3.36,24.722,7.147
	c1.601,2.391,0.022,16.977,0.022,16.977s-15.222,0.468-26.2-0.079c-8.718-0.438-13.601-0.471-22.372,0.958
	c-7.85,1.28-13.235,3.573-18.701,8.097c0,0-4.677-3.267-9.77-5.598C128.845,219.98,122.218,220.762,112.295,220.234z
	 M347.092,222.124c0-6.571,1.725-11.832,4.561-15.918c5.665-8.157,15.764-11.652,25.478-11.633
	c9.56,0.022,19.412,3.454,25.272,10.926c3.311,4.217,5.351,9.725,5.351,16.625H347.092z"/>
<g>
</g>
<g>
</g>
<g>
</g>
<g>
</g>
<g>
</g>
<g>
</g>
<g>
</g>
<g>
</g>
<g>
</g>
<g>
</g>
<g>
</g>
<g>
</g>
<g>
</g>
<g>
</g>
<g>
</g>
</svg>
