<?xml version="1.0" encoding="iso-8859-1"?>
<!-- Generator: Adobe Illustrator 19.0.0, SVG Export Plug-In . SVG Version: 6.00 Build 0)  -->
<svg version="1.1" id="Capa_1" xmlns="http://www.w3.org/2000/svg" xmlns:xlink="http://www.w3.org/1999/xlink" x="0px" y="0px"
	 viewBox="0 0 473.961 473.961" style="enable-background:new 0 0 473.961 473.961;" xml:space="preserve">
<g>
	<circle style="fill:#00A051;" cx="236.99" cy="236.99" r="236.97"/>
	<path style="fill:#00A051;" d="M437.247,363.604c23.21-36.64,36.711-80.044,36.711-126.622C473.957,106.095,367.859,0,236.975,0
		C106.098,0,0,106.095,0,236.982c0,46.578,13.489,89.983,36.703,126.622h17.283H437.247z"/>
</g>
<path style="fill:#231F20;" d="M197.884,246.337c4.861,9.919,11.349,19.034,19.117,26.896l24.505-24.617
	c-5.19-5.171-9.538-11.203-12.774-17.781c-3.237-6.578-5.366-13.702-6.264-20.973c-0.906-7.278-0.591-14.705,0.928-21.878
	c1.512-7.173,4.239-14.088,8.011-20.385c3.772-6.294,8.58-11.974,14.645-16.913c6.065-4.932,13.381-9.126,21.216-11.835
	s16.194-3.929,24.497-3.615s16.539,2.166,24.176,5.441c7.622,3.274,14.653,7.974,20.602,13.755l24.329-24.408
	c-9.01-9.01-19.712-16.34-31.397-21.437c-11.671-5.085-24.329-7.936-37.074-8.367c-12.737-0.423-25.556,1.572-37.511,5.912
	c-11.948,4.333-23.034,11.008-32.105,18.709c-9.07,7.697-16.131,16.415-21.639,26.009c-5.504,9.598-9.448,20.075-11.615,30.915
	c-2.17,10.832-2.559,22.02-1.141,32.976C189.81,225.697,193.024,236.417,197.884,246.337z"/>
<path style="fill:#FFFFFF;" d="M199.796,328.982c12.696,0.393,25.463-1.631,37.425-5.89c9.538-3.431,18.563-8.277,26.683-14.35
	c8.112-6.069,15.311-13.366,21.276-21.564s10.683-17.291,13.979-26.874c4.026-11.809,5.86-24.382,5.351-36.849
	c-0.52-12.471-3.383-24.845-8.426-36.269c-5.029-11.42-12.221-21.889-21.033-30.724l-24.344,24.408
	c4.984,5.167,9.171,11.121,12.314,17.579c3.136,6.462,5.231,13.422,6.189,20.539c0.958,7.124,0.782,14.395-0.561,21.44
	c-1.343,7.042-3.85,13.856-6.915,19.659c-3.061,5.807-6.687,10.604-10.874,14.836s-8.939,7.899-14.099,10.851
	c-5.16,2.952-10.728,5.19-16.494,6.642c-7.484,1.871-15.289,2.485-22.978,1.777c-7.682-0.703-15.244-2.728-22.252-5.953
	c-7.008-3.222-13.47-7.648-19.023-13.006l-24.557,24.224c9.018,8.943,19.712,16.209,31.375,21.257
	C174.483,325.767,187.104,328.589,199.796,328.982z"/>
<path style="fill:#231F20;" d="M236.975,473.961c84.299,0,158.266-44.052,200.272-110.357H53.986H36.703
	C78.716,429.909,152.676,473.961,236.975,473.961z"/>
<g>
	<path style="fill:#FFFFFF;" d="M146.981,387.728l-6.301,0.21l0,0c0.423-2.095,0.584-4.281-1.643-6.069
		c-2.537-1.804-4.977-1.826-7.383-1.68c-1.471,0.109-3.151,0.546-4.303,0.995c-0.546,0.213-0.906,0.393-1.242,0.614
		s-0.659,0.471-0.943,0.752c-1.833,1.886-1.792,3.787-0.737,5.328c0.513,0.614,1.051,0.868,1.572,1.014l0,0l11.439,3.012l0,0
		c1.673,0.49,3.603,1.328,4.905,2.874c0.554,0.651,1.003,1.403,1.287,2.215c0.752,2.17,0.423,4.34-0.329,6.342
		c-0.688,1.777-2.238,3.903-3.996,5.512c-0.606,0.554-1.25,1.059-2.092,1.616c-0.834,0.55-1.863,1.149-2.945,1.643
		c-3.45,1.602-6.907,2.017-10.062,1.991c-2.099-0.011-4.408-0.236-6.219-0.625c-0.883-0.183-1.579-0.404-2.253-0.703
		c-0.666-0.299-1.302-0.67-1.886-1.111c-0.584-0.43-1.119-0.939-1.557-1.426c-2.728-3.222-3.207-6.9-2.11-10.021l0,0l7.229-0.76l0,0
		c-0.109,0.483-0.183,0.98-0.228,1.478c-0.101,1.916-0.239,3.888,1.336,5.628c0.868,0.849,1.504,1.242,2.578,1.616
		c0.43,0.146,1.003,0.296,1.579,0.408c1.777,0.344,3.551,0.262,5.328-0.06c2.339-0.516,4.73-1.156,6.922-3.424
		c1.504-1.983,2.069-4.019,0.965-5.762c-0.73-1.048-1.287-1.197-1.923-1.396l0,0l-9.706-2.309l0,0
		c-2.024-0.576-4.056-0.913-5.86-2.66c-0.468-0.445-0.876-0.95-1.227-1.489c-0.561-0.891-0.958-1.901-1.141-2.937
		c-0.367-2.092,0.116-4.21,1.388-6.11c0.636-0.954,1.448-1.89,2.346-2.724c0.906-0.831,1.908-1.56,2.967-2.167
		c1.066-0.599,2.208-1.089,3.581-1.5c1.373-0.408,2.997-0.756,4.632-0.924c3.274-0.337,6.623,0.015,9.755,1.014
		c1.021,0.303,1.987,0.786,2.844,1.429c0.849,0.64,1.587,1.441,2.148,2.339c0.576,0.898,0.98,1.905,1.19,2.949
		C147.258,384.48,147.28,386.126,146.981,387.728L146.981,387.728L146.981,387.728L146.981,387.728z"/>
	<polygon style="fill:#FFFFFF;" points="185.87,413.385 183.37,385.965 166.165,413.385 160.029,413.385 157.87,376.076 
		164.56,376.076 165.836,402.482 182.674,376.076 188.975,376.076 191.269,403.058 207.714,376.076 214.984,376.076 
		191.913,413.385 	"/>
	<polygon style="fill:#FFFFFF;" points="221.263,413.385 214.15,413.385 224.485,376.124 231.246,376.124 	"/>
	<polygon style="fill:#FFFFFF;" points="271.242,381.962 259.227,381.962 250.816,413.415 243.822,413.415 252.279,381.962 
		239.912,381.962 241.581,376.124 272.822,376.151 	"/>
	<path style="fill:#FFFFFF;" d="M314.916,387.773l-6.533,0.834l0,0c-0.236-2.137-0.688-4.4-2.982-6.275
		c-0.382-0.292-0.797-0.539-1.302-0.767c-0.498-0.236-1.074-0.453-1.665-0.636c-0.591-0.176-1.19-0.314-1.804-0.415
		c-3.925-0.554-7.82,0.142-11.304,2.376c-0.988,0.644-1.916,1.388-2.746,2.234c-0.827,0.838-1.564,1.774-2.193,2.765
		c-1.411,2.092-2.432,4.239-3.158,6.387c-0.696,2.125-1.141,4.135-1.111,5.77c0.007,1.53,0.337,3.079,0.98,4.52
		c0.49,1.014,1.227,2.009,2.369,2.836c0.513,0.363,1.059,0.651,1.695,0.913c0.629,0.258,1.336,0.483,2.062,0.636
		c3.042,0.703,6.432,0.123,9.317-1.126c1.609-0.681,3.42-1.867,5.19-3.439c0.913-0.827,1.762-1.729,2.529-2.694
		c0.767-0.969,1.448-1.994,2.039-3.079l0,0l6.35,0.973l0,0c-0.842,1.676-1.848,3.263-3.012,4.733
		c-1.171,1.463-2.485,2.806-3.925,4.007c-1.441,1.201-3.005,2.249-4.846,3.184c-1.848,0.928-3.978,1.732-6.174,2.238
		c-2.196,0.505-4.471,0.707-6.724,0.591c-2.253-0.12-4.479-0.554-6.006-0.98c-1.519-0.427-2.339-0.834-3.106-1.328
		c-0.76-0.49-1.47-1.066-2.099-1.717s-1.182-1.373-1.688-2.245c-0.513-0.876-0.965-1.893-1.317-2.952
		c-0.715-2.185-0.827-4.449-0.584-6.586c0.599-5.029,2.477-10.211,6.776-15.031c0.767-0.857,1.594-1.661,2.522-2.436
		c0.935-0.775,1.964-1.515,3.053-2.17c3.641-2.174,7.255-3.057,10.773-3.405c2.455-0.247,5.152-0.123,7.308,0.217
		c1.059,0.172,1.938,0.385,2.784,0.685c0.849,0.292,1.673,0.659,2.455,1.1c1.482,0.823,3.098,2.073,4.378,4.015
		c0.606,0.913,1.051,1.935,1.343,2.997C314.845,385.561,314.961,386.673,314.916,387.773L314.916,387.773L314.916,387.773
		L314.916,387.773z"/>
	<polygon style="fill:#FFFFFF;" points="353.641,413.617 346.624,413.617 351.324,397.004 330.408,396.981 325.913,413.617 
		318.916,413.617 328.967,376.353 336.035,376.353 332.147,391.211 352.944,391.211 357.023,376.353 363.578,376.353 	"/>
</g>
<g>
</g>
<g>
</g>
<g>
</g>
<g>
</g>
<g>
</g>
<g>
</g>
<g>
</g>
<g>
</g>
<g>
</g>
<g>
</g>
<g>
</g>
<g>
</g>
<g>
</g>
<g>
</g>
<g>
</g>
</svg>
