<?xml version="1.0" encoding="iso-8859-1"?>
<!-- Generator: Adobe Illustrator 19.0.0, SVG Export Plug-In . SVG Version: 6.00 Build 0)  -->
<svg version="1.1" id="Capa_1" xmlns="http://www.w3.org/2000/svg" xmlns:xlink="http://www.w3.org/1999/xlink" x="0px" y="0px"
	 viewBox="0 0 473.94 473.94" style="enable-background:new 0 0 473.94 473.94;" xml:space="preserve">
<circle style="fill:#F4C82E;" cx="236.97" cy="236.97" r="236.97"/>
<g>
	<path style="fill:#505F7C;" d="M42.735,290.626h43.569v-34.559c9.306-0.015,18.612,0.086,27.914-0.067
		c1.388-0.052,2.784-0.037,4.165-0.228c5.643-0.367,11.263-1.358,16.101-2.975c4.831-1.616,8.887-3.779,12.303-6.32
		c3.424-2.544,6.2-5.452,8.46-8.894c2.26-3.45,3.989-7.424,5.108-11.932c1.126-4.509,1.639-9.56,1.497-14.447
		c-0.142-4.887-0.935-9.624-2.26-13.74c-1.328-4.116-3.195-7.622-5.643-10.713c-2.44-3.091-5.459-5.766-9.063-7.981
		c-3.596-2.2-7.768-3.94-12.875-5.122c-5.108-1.182-11.15-1.71-17.167-1.71H42.735V290.626z M86.304,199.129
		c6.896,0.138,13.743-0.505,20.673,0.599c1.482,0.254,2.941,0.688,4.232,1.25c1.291,0.554,2.413,1.25,3.39,2.054
		c4.711,4.209,5.579,8.819,4.733,14.024c-0.483,2.279-1.403,4.43-3.386,6.481c-0.879,0.906-1.934,1.71-3.169,2.425
		c-4.296,2.544-10.267,3.035-15.843,3.005h-10.63C86.304,228.966,86.304,199.129,86.304,199.129z"/>
	<path style="fill:#505F7C;" d="M125.652,291.027h43.573v-34.551c9.302-0.03,18.6,0.075,27.917-0.075
		c1.384-0.06,2.78-0.037,4.157-0.228c5.639-0.367,11.259-1.366,16.101-2.975c4.838-1.609,8.887-3.787,12.303-6.32
		c3.416-2.544,6.2-5.459,8.456-8.902c2.256-3.442,3.985-7.424,5.115-11.932c1.119-4.509,1.635-9.553,1.489-14.439
		c-0.138-4.89-0.935-9.624-2.26-13.74c-1.328-4.123-3.188-7.622-5.628-10.713c-2.447-3.091-5.474-5.774-9.063-7.981
		c-3.603-2.208-7.772-3.948-12.883-5.13c-5.107-1.175-11.154-1.702-17.167-1.702h-72.111v118.688L125.652,291.027L125.652,291.027z
		 M169.225,199.529c6.885,0.138,13.736-0.498,20.666,0.599c1.489,0.247,2.945,0.688,4.232,1.242c1.291,0.569,2.413,1.25,3.39,2.062
		c4.715,4.202,5.575,8.819,4.733,14.032c-0.486,2.271-1.396,4.423-3.386,6.481c-0.876,0.891-1.931,1.702-3.158,2.417
		c-4.303,2.544-10.267,3.042-15.85,3.005h-10.627L169.225,199.529L169.225,199.529z"/>
</g>
<path style="fill:#F4C82E;" d="M125.895,254.836c1.882-0.367,3.843-0.644,5.781-1.25c4.284-1.059,8.367-2.885,11.955-5.051
	s6.657-4.745,9.212-7.783c2.548-3.042,4.584-6.541,6.069-10.537c1.482-3.989,2.425-8.464,2.776-13.141
	c0.355-4.67,0.12-9.538-0.666-13.923c-0.793-4.385-2.133-8.295-3.977-11.715c-1.848-3.427-4.187-6.365-7.068-8.939
	c-2.885-2.567-6.301-4.752-10.297-6.447c-4.165-1.77-8.965-2.922-13.792-3.502v82.289L125.895,254.836L125.895,254.836z"/>
<g>
	<path style="fill:#505F7C;" d="M252.15,179.309h26.559c5.796,0,10.121,1.373,13.003,4.123c1.441,1.373,2.522,3.046,3.24,4.999
		c0.718,1.957,1.085,4.209,1.085,6.746c0,5.22-1.575,9.302-4.711,12.247c-1.575,1.471-3.555,2.567-5.949,3.304
		c-4.434,1.519-11.147,1.003-17.178,1.096v19.191H252.15V179.309L252.15,179.309z M268.198,201.348h3.918
		c3.079,0,5.246-0.535,6.488-1.609c1.429-1.242,1.856-2.623,1.871-4.108c0-1.624-0.543-2.997-1.624-4.131
		c-0.546-0.561-1.317-0.988-2.339-1.265c-1.968-0.614-5.384-0.374-8.318-0.423v11.536H268.198z"/>
	<path style="fill:#505F7C;" d="M296.377,204.244c0.513-2.398,1.261-4.288,2.238-5.665c0.49-0.688,1.089-1.328,1.785-1.923
		c0.703-0.599,1.515-1.156,2.432-1.658c2.687-1.557,8.378-2.324,12.905-2.294c4.307,0,7.76,0.247,10.368,0.73
		c1.31,0.239,2.507,0.614,3.588,1.119c1.089,0.498,2.069,1.126,2.941,1.893c2.305,1.886,3.936,6.327,3.948,10.058v16.542
		c0.019,3.027,0.266,4.288,0.872,5.848c0.243,0.636,0.546,1.343,0.928,2.118h-13.478c-1.029-1.841-1.108-2.294-1.31-3.18
		c-0.079-0.393-0.161-0.861-0.24-1.403c-1.875,1.796-3.749,3.098-5.613,3.88c-2.791,1.126-5.747,1.542-8.849,1.557
		c-4.468,0-7.861-1.044-10.174-3.106c-1.164-1.036-2.032-2.193-2.612-3.472c-0.572-1.272-0.864-2.668-0.864-4.187
		c0-1.426,0.206-2.72,0.629-3.888c0.408-1.171,1.044-2.215,1.878-3.136c0.834-0.913,2.017-1.71,3.562-2.398
		c1.534-0.681,3.431-1.25,5.676-1.688c5.384-1.081,8.879-1.841,10.481-2.279c1.658-0.453,3.349-1.021,5.078-1.71
		c0-1.762-0.367-2.997-1.093-3.704c-1.018-0.906-2.335-1.029-3.847-1.051c-1.175,0-2.2,0.094-3.083,0.277
		c-1.456,0.374-2.41,0.621-3.45,2.118c-0.37,0.546-0.7,1.235-0.977,2.047L296.377,204.244z M322.547,213.239
		c-2.032,0.722-4.09,1.343-6.174,1.871c-1.456,0.389-2.649,0.775-3.566,1.156c-0.928,0.382-1.579,0.752-1.968,1.134
		c-0.864,0.842-1.194,1.725-1.194,2.645c0,1.134,0.389,2.054,1.175,2.769c0.999,0.868,2.17,1.066,3.472,1.081
		c1.601,0,3.091-0.393,4.464-1.171c2.331-1.287,3.267-3.068,3.573-4.763C322.622,216.637,322.532,214.878,322.547,213.239z"/>
	<path style="fill:#505F7C;" d="M336.785,193.55h15.15l7.723,24.943l7.173-24.943h14.151l-14.87,40.033
		c-0.846,2.279-1.699,4.195-2.563,5.729c-0.861,1.542-1.736,2.713-2.619,3.514c-1.246,1.126-2.818,1.972-4.715,2.537
		c-1.897,0.569-4.127,0.849-6.672,0.849c-1.033,0-2.35-0.067-3.955-0.213c-1.598-0.138-3.48-0.352-5.639-0.636l-1.126-10.013
		c2.215,0.703,4.516,0.988,6.911,0.995c1.684,0,3.057-0.393,4.105-1.171c0.52-0.389,1.007-0.928,1.448-1.631
		c0.442-0.696,0.849-1.534,1.212-2.544L336.785,193.55z"/>
	<path style="fill:#505F7C;" d="M252.15,239.652h26.559c5.796,0,10.121,1.381,13.003,4.131c1.441,1.373,2.522,3.042,3.24,5.006
		c0.718,1.949,1.085,4.202,1.085,6.739c0,5.224-1.575,9.302-4.711,12.239c-1.575,1.47-3.555,2.574-5.949,3.304
		c-4.434,1.527-11.147,1.01-17.178,1.104v19.191H252.15V239.652L252.15,239.652z M268.198,261.699h3.918
		c3.079,0,5.246-0.535,6.488-1.609c1.429-1.242,1.856-2.623,1.871-4.108c0-1.624-0.543-2.997-1.624-4.131
		c-0.546-0.561-1.317-0.988-2.339-1.265c-1.968-0.621-5.384-0.374-8.318-0.43v11.543H268.198z"/>
	<path style="fill:#505F7C;" d="M301.765,258.616c1.931-1.856,4.187-3.237,6.799-4.165c2.601-0.928,5.542-1.388,8.823-1.388
		c3.749,0,7.046,0.535,9.875,1.624c2.836,1.096,5.212,2.72,7.124,4.898c1.542,1.755,2.698,3.712,3.472,5.867
		c0.767,2.155,1.156,4.516,1.156,7.083c0,5.759-1.916,10.481-5.732,14.155c-1.912,1.841-4.191,3.222-6.829,4.15
		c-2.642,0.913-5.65,1.373-9.025,1.373c-3.012,0-5.736-0.389-8.168-1.149c-2.436-0.76-4.58-1.916-6.436-3.435
		c-2.286-1.901-3.992-4.086-5.134-6.571c-1.145-2.477-1.706-5.253-1.706-8.325C295.984,267.027,297.908,262.312,301.765,258.616z
		 M312.4,280.116c1.557,1.819,3.267,2.384,5.1,2.391c2.062,0,3.764-0.79,5.093-2.361c0.666-0.782,1.167-1.811,1.493-3.076
		c0.333-1.265,0.494-2.761,0.494-4.509c0-3.237-0.666-5.658-2.009-7.252c-1.527-1.792-3.195-2.369-4.969-2.376
		c-2.095,0-3.82,0.804-5.186,2.417c-0.685,0.804-1.194,1.811-1.538,3.042c-0.337,1.227-0.513,2.668-0.513,4.303
		C310.368,276.045,311.045,278.507,312.4,280.116z"/>
	<path style="fill:#505F7C;" d="M366.872,253.901h13.373v6.103c1.998-2.492,4.026-4.277,6.065-5.343
		c2.32-1.197,4.816-1.601,7.48-1.601c3.974,0,7.087,1.175,9.332,3.536c1.119,1.182,1.961,2.69,2.526,4.516
		c0.561,1.818,0.842,3.978,0.842,6.44v23.809h-14.424v-20.595c0-2.361-0.434-4.019-1.31-4.999c-1.066-1.164-2.301-1.441-3.667-1.463
		c-1.736,0-3.147,0.659-4.232,1.972c-0.543,0.659-0.943,1.579-1.212,2.761s-0.408,2.623-0.408,4.325v17.994h-14.361v-37.455
		L366.872,253.901L366.872,253.901z"/>
	<path style="fill:#505F7C;" d="M430.83,239.652v14.252h7.903v10.518h-7.903v13.272c0,0.797,0.041,1.463,0.112,1.979
		c0.079,0.535,0.198,0.928,0.348,1.182c1.351,1.755,2.709,1.197,4.37,0.973c0.745-0.161,1.59-0.382,2.541-0.688l1.059,9.908
		c-3.383,0.737-6.702,1.164-9.946,1.164c-3.573,0-6.211-0.46-7.899-1.373c-1.695-0.92-2.945-2.309-3.757-4.172
		c-0.404-0.935-0.707-2.163-0.909-3.667c-0.21-1.519-0.303-3.311-0.303-5.399v-13.175h-5.295v-10.518h5.295v-6.877L430.83,239.652z"
		/>
	<rect x="344.92" y="253.9" style="fill:#505F7C;" width="14.361" height="37.455"/>
</g>
<g>
</g>
<g>
</g>
<g>
</g>
<g>
</g>
<g>
</g>
<g>
</g>
<g>
</g>
<g>
</g>
<g>
</g>
<g>
</g>
<g>
</g>
<g>
</g>
<g>
</g>
<g>
</g>
<g>
</g>
</svg>
