<?xml version="1.0" encoding="iso-8859-1"?>
<!-- Generator: Adobe Illustrator 19.0.0, SVG Export Plug-In . SVG Version: 6.00 Build 0)  -->
<svg version="1.1" id="Capa_1" xmlns="http://www.w3.org/2000/svg" xmlns:xlink="http://www.w3.org/1999/xlink" x="0px" y="0px"
	 viewBox="0 0 473.94 473.94" style="enable-background:new 0 0 473.94 473.94;" xml:space="preserve">
<circle style="fill:#F3F2F2;" cx="236.97" cy="236.97" r="236.97"/>
<path style="fill:#0C4875;" d="M85.387,217.074c0,6.234-1.957,7.876-5.942,7.876H63.831v-15.764h15.614
	C83.426,209.191,85.387,210.837,85.387,217.074 M98.135,217.074c0-9.59-2.904-15.214-8.131-17.306
	c-2.413-0.95-5.392-1.074-9.055-1.074H53.784c-1.441,0-2.593,1.164-2.593,2.593v46.649c0,1.403,1.156,2.578,2.593,2.578h7.513
	c1.403,0,2.533-1.175,2.533-2.578v-12.483h17.119c3.663,0,6.642-0.123,9.055-1.089C95.232,232.285,98.135,226.672,98.135,217.074
	 M109.701,194.699v59.793c0,3.626-2.99,6.6-6.627,6.6h-59.79c-3.626,0-6.574-2.975-6.574-6.6v-59.793
	c0-3.596,2.949-6.578,6.574-6.578h59.79C106.711,188.121,109.701,191.103,109.701,194.699 M129.959,209.228
	c0-1.418-1.141-2.578-2.578-2.578h-7.502c-1.437,0-2.601,1.164-2.601,2.578v38.72c0,1.396,1.167,2.578,2.601,2.578h7.502
	c1.441,0,2.578-1.182,2.578-2.578V209.228z M155.515,216.614c3.581-0.161,7.611,0.284,9.736,0.505
	c1.949,0.161,2.649-0.546,2.649-2.2v-4.816c0-1.717-0.726-2.544-2.387-2.967c-1.126-0.299-4.464-1.029-9.998-1.01
	c-17.175,0.079-18.219,15.809-18.473,18.761c-0.217,2.698-0.195,4.905,0,7.469c0.206,2.945,1.298,18.694,18.473,18.761
	c5.534,0.022,9.074-0.767,9.998-1.003c1.658-0.393,2.387-1.265,2.387-2.99v-4.793c0-1.833-0.883-2.425-2.84-2.2
	c-2.619,0.284-6.825,0.591-9.545,0.498c-3.981-0.131-5.964-2.406-6.387-8.572c-0.138-2.264-0.138-4.625,0-6.877
	C149.551,219.028,151.53,216.775,155.515,216.614 M210.762,250.526h-9.53c-1.616,0-2.69-1.227-3.192-1.916l-10.836-14.746v14.024
	c0,1.411-1.212,2.638-2.664,2.638h-7.304c-1.463,0-2.675-1.227-2.675-2.638v-53.227c0-1.411,1.171-2.578,2.675-2.578h7.304
	c1.471,0,2.664,1.171,2.664,2.578v28.071l11.992-14.806c0.797-0.95,1.553-1.28,2.66-1.28h8.527c1.931,0,2.885,1.265,1.527,3.158
	l-15.12,17.781l15.457,20.22C213.535,249.516,212.39,250.526,210.762,250.526"/>
<path style="fill:#D32259;" d="M266.043,221.733v26.114c0,1.411-1.149,2.578-2.608,2.578h-7.446c-1.426,0-2.593-1.171-2.593-2.578
	v-25.736c0-3.267-0.46-5.298-6.81-5.298c-3.3,0-5.021,0.408-7.36,0.782v30.349c0,1.396-1.141,2.578-2.567,2.578h-7.517
	c-1.448,0-2.574-1.182-2.574-2.578v-36.737c0-0.812,0.064-2.148,1.811-2.698c3.046-0.95,10.189-2.432,17.38-2.432
	C260.894,206.077,266.043,211.784,266.043,221.733 M447.219,247.024c0,13.687-5.643,19.936-20.011,19.936
	c-5.343,0-10.23-0.696-13.717-1.811c-1.635-0.475-2.294-1.411-2.294-2.859v-4.311c0-1.456,0.939-2.47,2.537-2.155
	c3.772,0.767,8.329,1.227,12.696,1.227c7.035,0,8.108-1.695,8.108-7.27c-2.586,0.46-5.332,0.797-8.075,0.797
	c-12.872,0-18.039-4.142-18.039-15.704v-25.717c0-1.426,1.164-2.574,2.574-2.574h7.483c1.437,0,2.593,1.149,2.593,2.574v25.93
	c0,4.131,2.219,5.721,7.345,5.721c2.118,0,4.415-0.475,6.129-0.905v-30.746c0-1.426,1.156-2.574,2.578-2.574h7.48
	c1.437,0,2.615,1.149,2.615,2.574v37.867L447.219,247.024L447.219,247.024z M336.377,234.369c-2.406,0.965-5.407,1.089-9.07,1.089
	H310.2v12.483c0,1.403-1.13,2.578-2.552,2.578h-7.491c-1.437,0-2.608-1.175-2.608-2.578v-46.648c0-1.433,1.171-2.593,2.608-2.593
	h27.15c3.663,0,6.664,0.123,9.07,1.074c5.205,2.092,8.142,7.719,8.142,17.306C344.519,226.672,341.578,232.285,336.377,234.369
	 M349.443,188.121h-59.801c-3.626,0-6.571,2.982-6.571,6.578v59.793c0,3.626,2.945,6.6,6.571,6.6h59.801
	c3.626,0,6.604-2.975,6.604-6.6v-59.793C356.047,191.103,353.069,188.121,349.443,188.121 M325.803,209.191H310.2v15.764h15.603
	c3.981,0,5.934-1.643,5.934-7.876C331.737,210.837,329.784,209.191,325.803,209.191 M387.848,241.239
	c-0.984,0.168-4.67,0.359-6.039,0.359c-4.864,0-6.769-1.527-6.769-5.452c0-3.42,2.354-4.685,5.216-5.107
	c1.994-0.314,5.085-0.254,7.592-0.094V241.239z M382.21,206.01c-5.134,0-9.863,0.73-12.883,1.549
	c-1.661,0.423-2.327,1.317-2.327,2.638v4.325c0,1.833,1.096,2.623,2.9,2.354c3.195-0.445,7.091-0.943,11.281-0.943
	c5.74,0,6.668,1.594,6.668,4.707v1.777c-4.202-0.191-9.291-0.191-13.257,0.621c-7.083,1.448-11.498,5.568-11.498,14.054
	c0,9.777,5.646,13.957,18.439,13.908c6.926,0,12.55-0.46,16.389-1.31c1.302-0.277,2.238-1.557,2.238-3.259v-25.096
	C400.155,213.071,398.673,206.01,382.21,206.01"/>
<g>
	<path style="fill:#0C4875;" d="M40.737,309.182h-1.56c-1.396,0-2.193-0.475-2.193-1.972v-20.542c0-1.755,1.381-1.856,2.193-1.856
		h1.56c1.568,0,1.968,0.913,1.968,1.856v20.542C42.705,308.478,42.091,309.182,40.737,309.182"/>
	<path style="fill:#0C4875;" d="M61.825,309.182h-1.313c-1.452,0-2.331-0.292-2.331-1.972v-9.01c0-1.643-0.075-2.559-0.984-2.559
		c-1.467,0-2.739,0.696-4.093,1.747v9.822c0,1.096-0.438,1.972-1.86,1.972H49.93c-1.463,0-2.335-0.292-2.335-1.972v-13.571
		c0-1.433,0.73-1.938,2.006-1.938h1.639c0.801,0,1.239,0.367,1.53,0.804c1.497-0.876,3.065-1.343,4.853-1.343
		c4.816,0,6.058,2.881,6.058,5.253v10.795C63.689,308.302,63.251,309.182,61.825,309.182"/>
	<path style="fill:#0C4875;" d="M75.071,309.664c-2.369,0-4.12-0.079-5.287-0.236c-0.988-0.101-1.388-0.183-1.388-2.047
		c0-1.051-0.187-2.653,1.463-2.653c0.288,0,2.522,0.43,5.729,0.43c1.137,0,1.418-0.146,1.418-0.95c0-0.4,0-0.767-0.138-0.876
		c-0.696-0.651-5.807-1.197-7.592-2.806c-0.876-0.804-1.272-2.084-1.272-3.611c0-5.545,3.824-5.759,8.722-5.759
		c0.943,0,1.815,0,2.728,0.06c1.497,0.116,2.234,0.483,2.234,2.125c0,1.381-0.037,2.586-1.759,2.586
		c-0.801,0-2.327-0.292-4.853-0.292c-1.422,0-1.714,0.037-1.714,1.029c0,0.651,0.292,0.688,2.776,1.411
		c3.719,1.104,6.234,1.295,6.234,5.774C82.367,308.407,80.474,309.664,75.071,309.664"/>
	<path style="fill:#0C4875;" d="M97.843,296.516c-0.112-0.546-0.479-0.842-1.022-0.842c-1.13,0-3.064,0.876-4.445,1.68v7.375
		c0.95,0.254,1.964,0.4,2.99,0.4c0.767,0,1.126-0.075,1.493-0.236c0.625-0.24,1.347-0.943,1.347-4.4
		C98.202,299.255,98.027,297.245,97.843,296.516 M102.659,306.083c-1.355,2.44-4.082,3.581-7.368,3.581
		c-0.917,0-1.942-0.079-2.919-0.269v5.373c0,1.126-0.445,2.039-1.863,2.039h-1.321c-1.456,0-2.327-0.292-2.327-2.039v-21.1
		c0-1.463,0.73-1.964,2.002-1.964h1.643c0.876,0,1.351,0.438,1.609,0.95c1.564-0.775,3.353-1.489,5.283-1.489
		c5.549,0,6.354,4.853,6.354,9.223C103.755,303.333,103.497,304.576,102.659,306.083"/>
	<path style="fill:#0C4875;" d="M111.561,309.182h-1.377c-1.463,0-2.339-0.337-2.339-2.047V293.71c0-1.463,0.726-2.009,2.002-2.009
		h1.714c1.463,0,1.905,1.242,1.905,2.009v13.425C113.465,308.269,112.99,309.182,111.561,309.182 M111.561,289.287h-1.377
		c-1.463,0-2.339-0.284-2.339-2.002v-1.242c0-1.463,0.726-1.964,2.002-1.964h1.714c1.463,0,1.905,1.197,1.905,1.964v1.242
		C113.465,288.419,112.99,289.287,111.561,289.287"/>
	<path style="fill:#0C4875;" d="M128.204,295.966c-2.23,0-3.214,0.546-4.524,1.351v9.889c0,1.096-0.475,1.972-1.905,1.972h-1.384
		c-1.463,0-2.335-0.292-2.335-1.972v-13.571c0-1.433,0.733-1.938,2.006-1.938h1.714c0.913,0,1.429,0.438,1.68,0.95
		c1.276-0.629,2.806-1.489,4.486-1.489c0.872,0,2.047,0.359,2.047,1.594v1.212C129.993,294.836,129.731,295.966,128.204,295.966"/>
	<path style="fill:#0C4875;" d="M143.126,297.605c0-1.639-0.333-2.331-2.447-2.331c-2.335,0-2.814,1.021-2.847,3.207h5.295
		 M146.37,302.091h-8.58c-0.109,2.376,0.37,3.427,3.072,3.427c1.635,0,3.203-0.284,4.778-0.621c0.438-0.101,0.76-0.176,0.947-0.176
		c1.422,0,1.493,1.456,1.493,2.485c0,0.913-0.258,1.747-1.68,1.964c-1.815,0.292-3.977,0.475-5.583,0.475
		c-6.855,0-8.393-3.098-8.393-9.126c0-5.759,1.137-9.369,8.213-9.369c6.604,0,7.697,3.573,7.697,8.426
		C148.338,301.953,147.901,302.091,146.37,302.091"/>
	<path style="fill:#0C4875;" d="M162.662,296.28c-1.171-0.262-2.331-0.4-3.18-0.4c-0.733,0-0.98,0.075-1.272,0.228
		c-0.621,0.314-1.283,1.456-1.283,5.212c0,1.564,0.232,4.019,2.268,4.019c0.906,0,2.26-0.475,3.465-1.396 M166.273,309.421H165
		c-0.913,0-1.609-0.116-2.017-0.629c-1.639,0.73-3.053,1.059-4.557,1.059c-4.741,0-7.038-3.573-7.038-8.98
		c0-6.342,2.619-9.515,8.243-9.515c0.947,0,2.08,0.101,3.031,0.221v-5.328c0-1.463,0.73-1.972,2.006-1.972h1.605
		c1.463,0,1.901,1.205,1.901,1.972v21.126C168.173,308.508,167.694,309.421,166.273,309.421"/>
	<path style="fill:#0C4875;" d="M191.889,296.939c-0.183-0.804-0.367-1.059-1.818-1.059c-0.812,0-2.2,0.191-3.36,0.4v8.801
		c0.842,0.138,1.826,0.254,2.586,0.254c1.717,0,2.301-0.52,2.518-1.175c0.258-0.767,0.404-2.286,0.404-3.978
		C192.214,298.877,192.136,298.035,191.889,296.939 M189.221,309.859c-1.564,0-3.719-0.109-5.912-0.43
		c-1.164-0.198-2.11-0.674-2.11-2.017v-21.163c0-1.463,0.726-1.964,2.006-1.964h1.639c1.463,0,1.863,1.197,1.863,1.964v5.399
		c1.205-0.146,2.735-0.284,4.086-0.284c5.145,0,7.008,2.66,7.008,8.894C197.801,306.974,195.462,309.859,189.221,309.859"/>
	<path style="fill:#0C4875;" d="M217.643,294.024l-8.06,21.515c-0.4,1.111-1.018,1.351-2.189,1.351h-1.826
		c-0.73,0-1.68-0.206-1.68-1.351c0-0.359,0.146-0.688,0.292-1.014l2.705-6.05l-5.991-14.447c-0.101-0.299-0.138-0.52-0.138-0.722
		c0-0.891,0.984-1.396,1.669-1.396h1.65c1.785,0,2.14,0.322,2.44,1.28l2.919,9.078l2.702-8.681c0.4-1.28,1.093-1.673,2.406-1.673
		h1.613c0.655,0,1.635,0.322,1.635,1.463L217.643,294.024"/>
	<path style="fill:#0C4875;" d="M244.068,294.024l-8.06,21.515c-0.4,1.111-1.025,1.351-2.193,1.351h-1.826
		c-0.73,0-1.673-0.206-1.673-1.351c0-0.359,0.146-0.688,0.288-1.014l2.702-6.05l-5.987-14.447c-0.109-0.299-0.146-0.52-0.146-0.722
		c0-0.891,0.984-1.396,1.68-1.396h1.643c1.785,0,2.148,0.322,2.44,1.28l2.919,9.078l2.702-8.681c0.393-1.28,1.096-1.673,2.406-1.673
		h1.609c0.659,0,1.643,0.322,1.643,1.463L244.068,294.024"/>
	<path style="fill:#0C4875;" d="M257.815,296.793c-0.322-0.576-0.546-0.913-2.623-0.913c-2.08,0-2.331,0.337-2.668,0.913
		c-0.363,0.688-0.621,1.792-0.621,3.835c0,2.017,0.221,3.166,0.621,3.828c0.337,0.546,0.587,0.876,2.668,0.876
		c2.077,0,2.301-0.329,2.623-0.876c0.4-0.666,0.625-1.811,0.625-3.828C258.44,298.585,258.215,297.481,257.815,296.793
		 M255.192,309.859c-6.387,0-8.827-3.573-8.827-9.231s2.44-9.268,8.827-9.268c6.387,0,8.793,3.611,8.793,9.268
		C263.985,306.286,261.579,309.859,255.192,309.859"/>
	<path style="fill:#0C4875;" d="M281.279,309.384h-1.643c-0.76,0-1.235-0.475-1.53-0.913c-1.493,0.876-3.057,1.388-4.849,1.388
		c-4.782,0-6.058-2.922-6.058-5.291V293.87c0-1.089,0.438-1.964,1.856-1.964h1.317c1.463,0,2.335,0.299,2.335,1.964v8.909
		c0,1.601,0.112,2.559,0.947,2.559c1.463,0,2.488-0.591,4.127-1.747v-9.721c0-1.089,0.442-1.964,1.86-1.964h1.321
		c1.459,0,2.335,0.299,2.335,1.964v13.579C283.289,308.875,282.559,309.384,281.279,309.384"/>
</g>
<g>
</g>
<g>
</g>
<g>
</g>
<g>
</g>
<g>
</g>
<g>
</g>
<g>
</g>
<g>
</g>
<g>
</g>
<g>
</g>
<g>
</g>
<g>
</g>
<g>
</g>
<g>
</g>
<g>
</g>
</svg>
