<?xml version="1.0" encoding="iso-8859-1"?>
<!-- Generator: Adobe Illustrator 19.0.0, SVG Export Plug-In . SVG Version: 6.00 Build 0)  -->
<svg version="1.1" id="Capa_1" xmlns="http://www.w3.org/2000/svg" xmlns:xlink="http://www.w3.org/1999/xlink" x="0px" y="0px"
	 viewBox="0 0 473.94 473.94" style="enable-background:new 0 0 473.94 473.94;" xml:space="preserve">
<circle style="fill:#203D74;" cx="236.97" cy="236.97" r="236.97"/>
<g>
	<path style="fill:#FFFFFF;" d="M119.385,274.918h-13.833L93.676,231.85c-1.246-4.232-1.964-8.673-2.69-13.119h-0.101
		c-0.516,4.34-1.34,8.572-2.477,12.913l-11.775,43.27H63.415l-18.073-69.713h11.981l10.739,42.342
		c1.239,4.647,2.065,9.085,2.687,13.732h0.101c0.722-4.539,1.549-8.98,2.788-13.212l11.876-42.862h12.292l12.187,42.963
		c1.029,3.719,2.062,8.359,2.784,12.804h0.109c0.718-4.34,1.441-8.367,2.473-12.183l10.847-43.584h11.255L119.385,274.918"/>
	<path style="fill:#FFFFFF;" d="M157.775,275.951c-14.252,0-23.551-7.944-23.551-26.024c0-15.495,10.02-27.367,25.616-27.367
		c13.736,0,23.45,7.644,23.45,25.717C183.29,264.075,172.955,275.951,157.775,275.951 M158.913,231.854
		c-6.72,0-13.216,5.167-13.216,16.939c0,11.562,4.542,17.665,13.111,17.665c7.124,0,13.115-5.583,13.115-17.459
		C171.923,238.051,167.691,231.854,158.913,231.854z"/>
	<path style="fill:#FFFFFF;" d="M215.724,233.505c-10.222-1.957-15.184,5.167-15.184,20.55v20.864h-11.05V223.59h10.529
		c0,2.892-0.303,7.439-1.029,11.364h0.202c2.275-6.922,7.439-13.324,17.047-12.284L215.724,233.505"/>
	<rect x="222.15" y="204.55" style="fill:#FFFFFF;" width="11.05" height="70.37"/>
	<path style="fill:#FFFFFF;" d="M275.12,274.918c0-2.69,0.21-6.716,0.722-9.601h-0.21c-2.784,6.301-8.778,10.634-16.729,10.634
		c-12.598,0-18.903-9.295-18.903-24.168c0-17.657,10.226-29.021,26.855-29.021c2.477,0,4.954,0.213,7.745,0.415v-18.63h10.945
		v70.371L275.12,274.918 M274.604,232.476c-2.791-0.621-5.474-0.928-8.161-0.928c-8.778,0-14.765,5.373-14.765,19.206
		c0,10.327,3.199,16.116,10.222,16.116c8.161,0,12.703-9.714,12.703-18.488v-15.906L274.604,232.476L274.604,232.476z"/>
	<path style="fill:#FFFFFF;" d="M310.035,249.415c-1.549,0-3.405,0-5.171-0.213v25.717h-11.251v-69.702
		c5.377-0.213,11.36-0.415,17.867-0.415c16.52,0,25.609,8.052,25.609,20.961C337.088,239.293,326.252,249.415,310.035,249.415
		 M310.656,213.984c-2.17,0-3.925,0-5.792,0.213v25.504c1.553,0.213,3.311,0.415,4.958,0.415
		c9.403-0.109,15.596-5.268,15.596-13.433C325.417,218.736,320.77,213.984,310.656,213.984z"/>
	<path style="fill:#FFFFFF;" d="M368.923,274.918c0-3.304,0.105-6.716,0.516-9.5l-0.101-0.101
		c-2.477,6.088-8.879,10.634-17.04,10.634c-8.782,0-14.353-5.882-14.353-14.252c0-11.562,11.457-17.867,30.26-17.867v-2.99
		c0-6.309-2.687-9.714-10.746-9.714c-4.748,0-10.533,1.549-14.664,3.719l-2.166-8.879c5.164-1.964,12.082-3.413,18.694-3.413
		c15.592,0,19.932,6.817,19.932,17.044v21.276c0,4.445,0.101,9.714,0.307,14.047h-10.638 M368.204,251.27
		c-15.39,0-19.622,4.232-19.622,9.085c0,3.925,2.687,6.922,7.02,6.922c7.54,0,12.602-7.229,12.602-14.559L368.204,251.27
		L368.204,251.27z"/>
	<path style="fill:#FFFFFF;" d="M409.12,278.529c-6.402,17.145-13.22,22.413-24.883,22.413c-1.961,0-4.748-0.307-6.507-0.621
		l1.235-9.601c1.766,0.52,4.239,0.827,6.305,0.827c4.853,0,9.399-2.376,12.808-11.57l1.856-5.059l-19.203-51.333h12.393
		l8.359,23.446c1.65,4.546,2.892,9.092,4.03,13.433h0.097c1.036-4.135,3.207-10.844,5.066-16.011l7.33-20.864h11.876L409.12,278.529
		"/>
	<polyline style="fill:#FFFFFF;" points="412.858,205.486 409.195,205.486 409.195,204.154 418.048,204.154 418.048,205.486 
		414.344,205.486 414.344,215.338 412.858,215.338 412.858,205.486 	"/>
	<path style="fill:#FFFFFF;" d="M419.582,204.154h2.219l2.638,7.914c0.374,1.111,0.438,1.328,0.516,1.658h0.03
		c0.191-0.614,0.236-0.73,0.595-1.796l2.672-7.775h1.968v11.18h-1.407v-9.354h-0.034l-3.218,9.354h-1.325l-3.203-9.508h-0.045v9.508
		h-1.407v-11.181"/>
</g>
<g>
</g>
<g>
</g>
<g>
</g>
<g>
</g>
<g>
</g>
<g>
</g>
<g>
</g>
<g>
</g>
<g>
</g>
<g>
</g>
<g>
</g>
<g>
</g>
<g>
</g>
<g>
</g>
<g>
</g>
</svg>
