<?xml version="1.0" encoding="iso-8859-1"?>
<!-- Generator: Adobe Illustrator 19.0.0, SVG Export Plug-In . SVG Version: 6.00 Build 0)  -->
<svg version="1.1" id="Capa_1" xmlns="http://www.w3.org/2000/svg" xmlns:xlink="http://www.w3.org/1999/xlink" x="0px" y="0px"
	 viewBox="0 0 473.961 473.961" style="enable-background:new 0 0 473.961 473.961;" xml:space="preserve">
<circle style="fill:#203D74;" cx="236.99" cy="236.99" r="236.97"/>
<path style="fill:#EA2227;" d="M201.476,2.66C87.446,19.79,0.001,118.165,0.001,236.981c0,81.047,40.718,152.563,102.782,195.294
	l96.56-423.893C199.788,6.417,200.526,4.501,201.476,2.66z"/>
<path style="fill:#0872B9;" d="M201.476,2.66c-0.95,1.841-1.688,3.757-2.133,5.721l-96.56,423.893
	c32.041,22.061,69.754,36.46,110.528,40.501L317.762,14.148C292.55,5.006,265.348,0,236.974,0C224.911,0,213.06,0.92,201.476,2.66z"
	/>
<path style="fill:#009DA5;" d="M236.978,473.961c130.883,0,236.981-106.105,236.981-236.981
	c0-102.509-65.092-189.801-156.192-222.833L213.315,472.775C221.094,473.553,228.989,473.961,236.978,473.961z"/>
<g>
	<path style="fill:#FFFFFF;" d="M211.006,264.636h1.856c1.717,0,2.866-0.584,3.405-1.717l4.838-7.244h12.965l-2.705,4.756h15.536
		l-1.968,7.3h-18.492c-2.125,3.207-4.752,4.715-7.899,4.539h-9.631L211.006,264.636 M208.873,275.087h34.05l-2.17,7.929h-13.691
		l-2.092,7.659h13.329l-2.17,7.921h-13.324l-3.098,11.311c-0.763,1.893,0.239,2.739,3.012,2.544h10.851l-2.009,7.375h-20.845
		c-3.951,0-5.31-2.264-4.067-6.795l3.955-14.432h-8.52l2.163-7.921h8.516l2.088-7.659h-8.138L208.873,275.087z M263.215,255.615
		l-0.535,4.64c0,0,6.417-4.816,12.251-4.816h21.556l-8.243,29.833c-0.688,3.412-3.618,5.107-8.793,5.107h-24.43l-5.721,20.954
		c-0.329,1.119,0.138,1.695,1.369,1.695h4.804l-1.766,6.503h-12.224c-4.688,0-6.638-1.411-5.863-4.247l16.168-59.67L263.215,255.615
		L263.215,255.615z M281.464,264.049h-19.236l-2.301,8.052c0,0,3.203-2.316,8.557-2.398c5.343-0.079,11.435,0,11.435,0
		L281.464,264.049z M274.496,282.731c1.422,0.191,2.219-0.374,2.312-1.703l1.179-4.239h-19.266l-1.616,5.942L274.496,282.731
		L274.496,282.731z M261.501,292.37h11.106l-0.206,4.801h2.956c1.493,0,2.234-0.475,2.234-1.418l0.876-3.113h9.231l-1.235,4.531
		c-1.036,3.787-3.809,5.751-8.295,5.949h-5.916l-0.026,8.213c-0.108,1.317,1.081,1.987,3.529,1.987h5.56l-1.796,6.503h-13.336
		c-3.734,0.176-5.568-1.609-5.534-5.384L261.501,292.37z"/>
	<path style="fill:#FFFFFF;" d="M308.7,264.958l2.574-9.063h13.021l-0.561,3.326c0,0,6.653-3.326,11.45-3.326
		c4.789,0,16.105,0,16.105,0l-2.563,9.063h-2.533l-12.146,42.746h2.533l-2.41,8.494h-2.537l-1.051,3.682H317.97l1.055-3.682h-24.879
		l2.425-8.494h2.492l12.157-42.746H308.7 M322.746,264.958l-3.311,11.57c0,0,5.669-2.178,10.556-2.791
		c1.081-4.041,2.492-8.778,2.492-8.778h-9.737V264.958z M317.901,281.949l-3.326,12.116c0,0,6.282-3.083,10.597-3.353
		c1.242-4.685,2.492-8.763,2.492-8.763H317.901L317.901,281.949z M320.34,307.7l2.492-8.793h-9.725l-2.503,8.793H320.34z
		 M351.835,255.33h12.239l0.52,4.516c-0.079,1.149,0.602,1.695,2.054,1.695h2.163l-2.189,7.659h-8.999
		c-3.435,0.176-5.205-1.134-5.366-3.978L351.835,255.33z M348.246,271.745h39.655l-2.331,8.213h-12.621l-2.163,7.644h12.61
		l-2.342,8.198h-14.047l-3.18,4.808h6.877l1.587,9.624c0.191,0.958,1.04,1.426,2.492,1.426h2.133l-2.245,7.921h-7.558
		c-3.918,0.198-5.942-1.119-6.11-3.955l-1.819-8.793l-6.256,9.354c-1.482,2.645-3.757,3.873-6.818,3.682h-11.547l2.249-7.929h3.6
		c1.482,0,2.713-0.659,3.82-1.987l9.792-14.155h-12.628l2.342-8.198h13.691l2.178-7.644h-13.702L348.246,271.745z"/>
	<path style="fill:#FFFFFF;" d="M126.933,215.866c-1.508,7.383-4.999,13.044-10.413,17.074c-5.369,3.963-12.292,5.942-20.767,5.942
		c-7.977,0-13.822-2.024-17.553-6.088c-2.586-2.892-3.876-6.563-3.876-10.997c0-1.833,0.221-3.809,0.659-5.927l9.033-43.543h13.639
		l-8.909,43.045c-0.273,1.197-0.385,2.301-0.37,3.304c-0.015,2.208,0.539,4.019,1.639,5.429c1.62,2.092,4.239,3.128,7.888,3.128
		c4.198,0,7.656-1.022,10.338-3.091c2.687-2.062,4.438-4.969,5.223-8.771l8.935-43.045h13.568L126.933,215.866"/>
	<path style="fill:#FFFFFF;" d="M139.497,198.721h9.631l-1.104,5.613l1.381-1.594c3.124-3.349,6.919-5.006,11.394-5.006
		c4.052,0,6.975,1.175,8.812,3.551c1.804,2.369,2.294,5.643,1.444,9.845l-5.306,26.477h-9.901l4.789-24
		c0.494-2.477,0.355-4.325-0.404-5.519c-0.752-1.19-2.193-1.785-4.262-1.785c-2.552,0-4.692,0.797-6.44,2.369
		c-1.755,1.594-2.907,3.794-3.48,6.6l-4.415,22.335h-9.919L139.497,198.721"/>
	<path style="fill:#FFFFFF;" d="M249.958,198.721h9.639l-1.096,5.613l1.369-1.594c3.124-3.349,6.933-5.006,11.394-5.006
		c4.052,0,6.982,1.175,8.804,3.551c1.796,2.369,2.316,5.643,1.441,9.845l-5.283,26.477h-9.916l4.793-24
		c0.494-2.477,0.355-4.325-0.393-5.519c-0.782-1.19-2.193-1.785-4.262-1.785c-2.548,0-4.685,0.797-6.451,2.369
		c-1.751,1.594-2.919,3.794-3.465,6.6l-4.438,22.335h-9.904L249.958,198.721"/>
	<path style="fill:#FFFFFF;" d="M184.208,198.736h10.679l-8.367,38.858h-10.66L184.208,198.736 M187.568,184.581h10.776
		l-2.013,9.433h-10.776L187.568,184.581z"/>
	<path style="fill:#FFFFFF;" d="M204.342,234.642c-2.791-2.675-4.202-6.271-4.217-10.844c0-0.782,0.049-1.673,0.15-2.645
		c0.105-0.988,0.236-1.946,0.419-2.836c1.265-6.309,3.963-11.319,8.12-15.019c4.146-3.712,9.152-5.575,15.012-5.575
		c4.801,0,8.61,1.343,11.394,4.026c2.788,2.705,4.183,6.342,4.183,10.978c0,0.79-0.064,1.71-0.165,2.69
		c-0.123,1.003-0.273,1.957-0.445,2.9c-1.239,6.219-3.929,11.173-8.082,14.806c-4.157,3.656-9.149,5.482-14.967,5.482
		C210.924,238.605,207.13,237.28,204.342,234.642 M224.694,226.945c1.886-2.047,3.229-5.137,4.056-9.261
		c0.123-0.644,0.232-1.317,0.299-1.987c0.067-0.659,0.094-1.265,0.094-1.833c0-2.391-0.606-4.254-1.833-5.568
		c-1.22-1.328-2.949-1.987-5.19-1.987c-2.956,0-5.369,1.036-7.255,3.121c-1.905,2.084-3.252,5.231-4.101,9.422
		c-0.116,0.644-0.213,1.295-0.299,1.923c-0.075,0.644-0.09,1.242-0.079,1.792c0,2.383,0.614,4.217,1.837,5.519
		c1.216,1.302,2.941,1.946,5.209,1.946C220.406,230.025,222.815,228.999,224.694,226.945"/>
	<path style="fill:#FFFFFF;" d="M297.609,174.628h27.988c5.381,0,9.545,1.212,12.404,3.611c2.847,2.425,4.273,5.904,4.273,10.436
		v0.138c0,0.861-0.056,1.833-0.138,2.885c-0.135,1.036-0.314,2.099-0.546,3.195c-1.227,5.994-4.094,10.817-8.513,14.469
		c-4.438,3.641-9.695,5.474-15.749,5.474h-15.004l-4.644,22.772h-12.995L297.609,174.628 M304.61,203.889h12.445
		c3.244,0,5.818-0.76,7.697-2.245c1.863-1.512,3.091-3.817,3.779-6.937c0.109-0.569,0.176-1.096,0.258-1.572
		c0.041-0.453,0.094-0.906,0.094-1.343c0-2.23-0.793-3.843-2.38-4.861c-1.594-1.029-4.086-1.519-7.536-1.519h-10.57L304.61,203.889z
		"/>
	<path style="fill:#FFFFFF;" d="M400.44,245.13c-4.108,8.733-8.026,13.826-10.324,16.194c-2.301,2.346-6.859,7.79-17.844,7.383
		l0.943-6.664c9.246-2.851,14.245-15.682,17.089-21.362l-3.394-41.84l7.147-0.101h6.002l0.647,26.252l11.24-26.252h11.379
		L400.44,245.13"/>
	<path style="fill:#FFFFFF;" d="M368.62,201.902l-4.52,3.106c-4.726-3.697-9.036-5.987-17.362-2.118
		c-11.338,5.253-20.815,45.582,10.406,32.303l1.777,2.107l12.284,0.314l8.063-36.643L368.62,201.902 M361.635,221.935
		c-1.968,5.818-6.38,9.669-9.83,8.572c-3.45-1.066-4.685-6.687-2.683-12.52c1.972-5.833,6.41-9.661,9.83-8.572
		C362.402,210.489,363.651,216.102,361.635,221.935"/>
</g>
<g>
</g>
<g>
</g>
<g>
</g>
<g>
</g>
<g>
</g>
<g>
</g>
<g>
</g>
<g>
</g>
<g>
</g>
<g>
</g>
<g>
</g>
<g>
</g>
<g>
</g>
<g>
</g>
<g>
</g>
</svg>
