<?xml version="1.0" encoding="iso-8859-1"?>
<!-- Generator: Adobe Illustrator 19.0.0, SVG Export Plug-In . SVG Version: 6.00 Build 0)  -->
<svg version="1.1" id="Capa_1" xmlns="http://www.w3.org/2000/svg" xmlns:xlink="http://www.w3.org/1999/xlink" x="0px" y="0px"
	 viewBox="0 0 473.94 473.94" style="enable-background:new 0 0 473.94 473.94;" xml:space="preserve">
<circle style="fill:#005E88;" cx="236.97" cy="236.97" r="236.97"/>
<path style="fill:#005B84;" d="M357.312,337.361v54.177c0,9.268-7.513,16.778-16.771,16.778H145.94
	c-9.268,0-16.778-7.513-16.778-16.778v-54.177L357.312,337.361L357.312,337.361z"/>
<path style="fill:#FFFFFF;" d="M357.312,337.361v54.177c0,9.268-7.513,16.778-16.771,16.778H145.94
	c-9.268,0-16.778-7.513-16.778-16.778v-54.177L357.312,337.361L357.312,337.361z"/>
<g>
	<path style="fill:#005E88;" d="M153.027,346.008h4.15l8.763,20.595h-4.7l-1.875-4.584h-8.643l-1.875,4.584h-4.587L153.027,346.008z
		 M157.764,358.034l-2.713-6.627l-2.72,6.627H157.764z"/>
	<path style="fill:#005E88;" d="M166.879,356.436v-0.06c0-5.818,4.378-10.574,10.66-10.574c3.85,0,6.166,1.287,8.06,3.158
		l-2.859,3.296c-1.579-1.433-3.188-2.301-5.231-2.301c-3.442,0-5.934,2.866-5.934,6.372v0.052c0,3.51,2.428,6.432,5.934,6.432
		c2.339,0,3.768-0.935,5.381-2.398l2.859,2.892c-2.107,2.245-4.438,3.648-8.382,3.648
		C171.343,366.951,166.879,362.311,166.879,356.436z"/>
	<path style="fill:#005E88;" d="M187.851,356.436v-0.06c0-5.818,4.378-10.574,10.657-10.574c3.858,0,6.166,1.287,8.075,3.158
		l-2.874,3.296c-1.579-1.433-3.184-2.301-5.223-2.301c-3.446,0-5.934,2.866-5.934,6.372v0.052c0,3.51,2.432,6.432,5.934,6.432
		c2.335,0,3.772-0.935,5.373-2.398l2.866,2.892c-2.107,2.245-4.438,3.648-8.382,3.648
		C192.315,366.951,187.851,362.311,187.851,356.436z"/>
	<path style="fill:#005E88;" d="M210.309,346.154h9.354c2.593,0,4.61,0.73,5.953,2.077c1.141,1.141,1.759,2.739,1.759,4.67v0.06
		c0,3.304-1.785,5.381-4.385,6.342l4.995,7.3h-5.257l-4.382-6.541h-0.056h-3.487v6.541h-4.494V346.154L210.309,346.154z
		 M219.372,356.085c2.185,0,3.442-1.171,3.442-2.892v-0.06c0-1.931-1.347-2.922-3.536-2.922h-4.471v5.875h4.565L219.372,356.085
		L219.372,356.085z"/>
	<path style="fill:#005E88;" d="M231.424,346.154h15.427v4.004h-10.96v4.15h9.643v4.004h-9.643v4.284h11.106v4.004h-15.573V346.154z
		"/>
	<path style="fill:#005E88;" d="M250.994,346.154h7.981c6.425,0,10.866,4.408,10.866,10.174v0.052
		c0,5.751-4.445,10.222-10.866,10.222h-7.981V346.154z M258.975,362.535c3.674,0,6.163-2.477,6.163-6.103v-0.06
		c0-3.618-2.488-6.166-6.163-6.166h-3.484v12.329L258.975,362.535L258.975,362.535z"/>
	<path style="fill:#005E88;" d="M274.039,346.154h4.498v20.449h-4.498V346.154z"/>
	<path style="fill:#005E88;" d="M288.411,350.304h-6.219v-4.15h16.943v4.15h-6.226v16.295h-4.498V350.304L288.411,350.304z"/>
	<path style="fill:#005E88;" d="M302.574,346.154h15.427v4.004h-10.96v4.15h9.643v4.004h-9.643v4.284h11.106v4.004h-15.573V346.154z
		"/>
	<path style="fill:#005E88;" d="M322.147,346.154h7.974c6.432,0,10.866,4.408,10.866,10.174v0.052
		c0,5.751-4.438,10.222-10.866,10.222h-7.974V346.154z M330.117,362.535c3.682,0,6.166-2.477,6.166-6.103v-0.06
		c0-3.618-2.485-6.166-6.166-6.166h-3.476v12.329L330.117,362.535L330.117,362.535z"/>
	<path style="fill:#005E88;" d="M169.794,373.742h9.504c2.335,0,4.168,0.636,5.343,1.804c0.932,0.935,1.399,2.077,1.399,3.48v0.067
		c0,2.301-1.227,3.588-2.69,4.408c2.369,0.905,3.82,2.279,3.82,5.029v0.052c0,3.742-3.027,5.613-7.648,5.613h-9.732v-20.452
		L169.794,373.742L169.794,373.742z M178.329,382.008c1.983,0,3.24-0.644,3.24-2.163v-0.06c0-1.343-1.055-2.099-2.949-2.099h-4.441
		v4.318h4.15V382.008z M179.522,390.251c1.987,0,3.192-0.707,3.192-2.223v-0.06c0-1.373-1.029-2.223-3.334-2.223h-5.201v4.501h5.343
		V390.251z"/>
	<path style="fill:#005E88;" d="M190.564,385.42v-11.678h4.501v11.57c0,3.326,1.658,5.051,4.404,5.051
		c2.75,0,4.419-1.665,4.419-4.905v-11.715h4.498v11.532c0,6.189-3.484,9.238-8.965,9.238
		C193.92,394.509,190.564,391.448,190.564,385.42z"/>
	<path style="fill:#005E88;" d="M211.559,391.208l2.66-3.18c1.841,1.512,3.772,2.477,6.11,2.477c1.841,0,2.945-0.73,2.945-1.931
		v-0.052c0-1.141-0.703-1.725-4.116-2.601c-4.116-1.059-6.784-2.193-6.784-6.249v-0.067c0-3.712,2.982-6.159,7.165-6.159
		c2.978,0,5.515,0.928,7.588,2.593l-2.339,3.39c-1.804-1.257-3.596-2.017-5.313-2.017c-1.721,0-2.63,0.797-2.63,1.785v0.067
		c0,1.343,0.876,1.777,4.415,2.683c4.142,1.074,6.488,2.574,6.488,6.133v0.06c0,4.064-3.106,6.335-7.513,6.335
		C217.142,394.475,214.021,393.394,211.559,391.208z"/>
	<path style="fill:#005E88;" d="M231.866,373.742h4.498v20.449h-4.498V373.742z"/>
	<path style="fill:#005E88;" d="M241.478,373.742h4.138l9.583,12.591v-12.591h4.445v20.449h-3.824l-9.904-13.003v13.003h-4.434
		v-20.449H241.478z"/>
	<path style="fill:#005E88;" d="M264.546,373.742h15.424v3.996h-10.956v4.15h9.635v3.996h-9.635v4.296h11.102v4.004h-15.569v-20.442
		H264.546z"/>
	<path style="fill:#005E88;" d="M282.712,391.208l2.66-3.18c1.841,1.512,3.772,2.477,6.103,2.477c1.848,0,2.952-0.73,2.952-1.931
		v-0.052c0-1.141-0.7-1.725-4.12-2.601c-4.127-1.059-6.78-2.193-6.78-6.249v-0.067c0-3.712,2.986-6.159,7.154-6.159
		c2.986,0,5.527,0.928,7.6,2.593l-2.339,3.39c-1.811-1.257-3.596-2.017-5.321-2.017c-1.721,0-2.627,0.797-2.627,1.785v0.067
		c0,1.343,0.879,1.777,4.415,2.683c4.146,1.074,6.477,2.574,6.477,6.133v0.06c0,4.064-3.091,6.335-7.506,6.335
		C288.291,394.475,285.167,393.394,282.712,391.208z"/>
	<path style="fill:#005E88;" d="M301.118,391.208l2.645-3.18c1.848,1.512,3.772,2.477,6.11,2.477c1.841,0,2.949-0.73,2.949-1.931
		v-0.052c0-1.141-0.7-1.725-4.12-2.601c-4.116-1.059-6.776-2.193-6.776-6.249v-0.067c0-3.712,2.982-6.159,7.158-6.159
		c2.975,0,5.527,0.928,7.592,2.593l-2.335,3.39c-1.815-1.257-3.592-2.017-5.313-2.017c-1.729,0-2.63,0.797-2.63,1.785v0.067
		c0,1.343,0.868,1.777,4.408,2.683c4.15,1.074,6.481,2.574,6.481,6.133v0.06c0,4.064-3.091,6.335-7.506,6.335
		C306.697,394.475,303.562,393.394,301.118,391.208z"/>
</g>
<g>
	<polygon style="fill:#FFFFFF;" points="298.6,212.64 190.796,212.64 186.878,225.531 215.608,225.531 221.093,243.304 
		268.322,243.304 273.788,225.531 302.514,225.531 	"/>
	<path style="fill:#FFFFFF;" d="M208.382,140.26c-3.989,5.512-5.601,12.239-4.535,18.956c1.081,6.731,4.711,12.628,10.208,16.625
		l25.803,18.739c1.384,1.003,2.286,2.477,2.556,4.157c0.269,1.68-0.138,3.368-1.137,4.752l3.895,2.814l13.624-18.802
		c3.195-4.4,4.861-9.575,4.861-14.907c0-1.343-0.109-2.698-0.314-4.056c-1.081-6.716-4.707-12.628-10.211-16.617l-25.803-18.746
		c-1.377-1.01-2.286-2.477-2.548-4.157c-0.06-0.337-0.086-0.681-0.086-1.021c0-1.336,0.415-2.63,1.205-3.719l0.015-0.007
		l-3.88-2.806L208.382,140.26z"/>
	<path style="fill:#FFFFFF;" d="M223.937,64.908c-4.625,6.38-7.046,13.893-7.046,21.624c0,1.957,0.146,3.918,0.468,5.89
		c1.549,9.747,6.81,18.301,14.802,24.093l32.43,23.487c4.284,3.098,7.094,7.689,7.929,12.913c0.172,1.051,0.254,2.107,0.254,3.151
		c0,4.142-1.302,8.172-3.783,11.592l0,0l3.106,2.253l25.549-35.307c5.8-7.989,8.131-17.758,6.574-27.517
		c-1.549-9.744-6.803-18.308-14.791-24.093L250.264,54.54c-2.462-1.792-4.086-4.438-4.569-7.431
		c-0.471-3.005,0.247-6.013,2.032-8.486l-3.109-2.253L223.937,64.908z"/>
	<path style="fill:#FFFFFF;" d="M157.696,254.062h29.537c7.263,0,12.995,1.994,16.628,5.635c2.904,2.907,4.363,6.455,4.363,10.817
		v0.183c0,7.177-3.82,11.173-8.359,13.717c7.356,2.821,11.906,7.091,11.906,15.641v0.176c0,11.626-9.452,17.452-23.813,17.452H157.7
		v-63.621L157.696,254.062L157.696,254.062z M184.233,279.779c6.181,0,10.084-2.002,10.084-6.724v-0.176
		c0-4.187-3.274-6.541-9.179-6.541h-13.811v13.44L184.233,279.779L184.233,279.779z M187.956,305.402c6.181,0,9.908-2.178,9.908-6.9
		v-0.183c0-4.277-3.184-6.915-10.361-6.915h-16.179v13.994h16.632V305.402z"/>
	<path style="fill:#FFFFFF;" d="M217.857,254.062h29.537c7.274,0,12.995,1.994,16.628,5.635c2.904,2.907,4.363,6.455,4.363,10.817
		v0.183c0,7.177-3.82,11.173-8.359,13.717c7.356,2.821,11.906,7.091,11.906,15.641v0.176c0,11.626-9.448,17.452-23.813,17.452
		h-30.26v-63.621L217.857,254.062L217.857,254.062z M244.393,279.779c6.181,0,10.092-2.002,10.092-6.724v-0.176
		c0-4.187-3.274-6.541-9.194-6.541H231.48v13.44L244.393,279.779L244.393,279.779z M248.116,305.402c6.181,0,9.904-2.178,9.904-6.9
		v-0.183c0-4.277-3.173-6.915-10.357-6.915h-16.187v13.994h16.64V305.402z"/>
	<path style="fill:#FFFFFF;" d="M278.02,254.062h29.534c7.27,0,12.991,1.994,16.632,5.635c2.904,2.907,4.359,6.455,4.359,10.817
		v0.183c0,7.177-3.82,11.173-8.359,13.717c7.364,2.821,11.91,7.091,11.91,15.641v0.176c0,11.626-9.452,17.452-23.816,17.452h-30.256
		v-63.621L278.02,254.062L278.02,254.062z M304.553,279.779c6.174,0,10.084-2.002,10.084-6.724v-0.176
		c0-4.187-3.274-6.541-9.179-6.541H291.64v13.44L304.553,279.779L304.553,279.779z M308.276,305.402c6.178,0,9.904-2.178,9.904-6.9
		v-0.183c0-4.277-3.177-6.915-10.361-6.915H291.64v13.994h16.636V305.402z"/>
</g>
<g>
</g>
<g>
</g>
<g>
</g>
<g>
</g>
<g>
</g>
<g>
</g>
<g>
</g>
<g>
</g>
<g>
</g>
<g>
</g>
<g>
</g>
<g>
</g>
<g>
</g>
<g>
</g>
<g>
</g>
</svg>
