<?xml version="1.0" encoding="iso-8859-1"?>
<!-- Generator: Adobe Illustrator 19.0.0, SVG Export Plug-In . SVG Version: 6.00 Build 0)  -->
<svg version="1.1" id="Capa_1" xmlns="http://www.w3.org/2000/svg" xmlns:xlink="http://www.w3.org/1999/xlink" x="0px" y="0px"
	 viewBox="0 0 473.94 473.94" style="enable-background:new 0 0 473.94 473.94;" xml:space="preserve">
<circle style="fill:#055D77;" cx="236.97" cy="236.97" r="236.97"/>
<g>
	<path style="fill:#FFFFFF;" d="M49.822,218.953h0.213l5.351,15.266H44.527L49.822,218.953 M56.336,254.021h20.288v-2.312
		c-3.925-0.49-5.122-0.79-7.689-7.79c-2.806-7.491-6.08-16.34-9.186-25.081l-4.876-13.777l-3.641,1.003l-14.975,38.091
		c-2.586,6.672-3.551,7.023-7.981,7.558v2.309h16.692v-2.312l-1.826-0.206c-3.427-0.389-3.558-1.171-2.477-4.905
		c0.965-3.207,1.938-6.462,2.844-8.625h13.126c1.119,2.72,2.537,6.593,3.495,9.055c1.25,3.188,0.868,4.004-1.856,4.4l-1.938,0.277
		C56.336,251.706,56.336,254.021,56.336,254.021z"/>
	<path style="fill:#FFFFFF;" d="M97.836,228.266c0-2.705-0.359-3.188-2.279-3.51l-2.294-0.367v-2.148
		c3.704-0.191,10.151-0.905,13.639-1.381v25.171c0,3.076,0.299,3.895,2.653,3.895h2.309v2.294
		c-4.449,0.636-9.194,1.673-13.433,2.746l-0.591-0.505v-4.752c-1.396,1.036-2.645,1.979-4.284,2.975
		c-2.286,1.396-4.15,2.17-6.488,2.17c-6.181,0-9.594-4.108-9.594-9.8v-16.793c0-2.705-0.359-3.188-2.271-3.51l-2.009-0.367v-2.148
		c3.412-0.191,9.485-0.905,13.351-1.381v22.357c0,4.355,2.215,6.065,4.999,6.065c2.084,0,4.15-0.973,6.301-2.844v-18.17"/>
	<path style="fill:#FFFFFF;" d="M125.169,243.102c0,5.687,2.799,6.746,4.142,6.746c1.175,0,2.447-0.389,3.858-1.19l1.021,2.215
		l-6.372,3.214c-1.175,0.561-2.286,0.775-2.806,0.775c-5.721,0-8.902-2.485-8.902-9.07v-20.58h-4.752l-0.52-0.943l2.376-2.836h2.892
		v-4.524l7.768-5.852l1.287,0.629v9.747h7.323c0.958,0.812,0.827,3.173-0.513,3.779h-6.81v17.889"/>
	<path style="fill:#FFFFFF;" d="M149.139,225.306c2.499-2.477,6.241-4.745,10.114-4.745c6.739,0,10.458,4.217,10.458,11.203v15.019
		c0,4.15,0.374,4.438,4.464,4.924v2.309h-17.399v-2.309c3.588-0.49,3.873-0.775,3.873-4.924v-14.207c0-4.576-2.567-6.526-5.65-6.526
		c-2.047,0-4.195,0.752-5.86,2.432v18.301c0,4.15,0.352,4.438,3.442,4.924v2.309H134.74v-2.309c4.947-0.49,5.328-0.775,5.328-4.924
		V210.99c0-4.385-0.146-4.486-4.838-4.771v-2.133c3.289-0.513,8.995-1.572,13.908-2.608L149.139,225.306"/>
	<path style="fill:#FFFFFF;" d="M185.629,235.566c0-8.019,3.136-11.947,6.159-11.947c4.745,0,7.585,5.714,7.585,15.611
		c0,10.72-3.326,12.554-6.013,12.554C188.603,251.783,185.629,244.883,185.629,235.566 M192.914,220.562
		c-8.325,0-17.519,6.241-17.519,17.987c0,7.921,5.714,16.31,17.13,16.31c8.535,0,17.074-5.796,17.074-17.882
		C209.598,228.36,203.219,220.562,192.914,220.562z"/>
	<path style="fill:#FFFFFF;" d="M225.46,246.784c0,4.135,0.359,4.438,6.065,4.924v2.309h-20.172v-2.309
		c4.655-0.49,5.036-0.79,5.036-4.924v-16.438c0-4.524-0.138-4.576-4.905-5.115v-2.002c4.333-0.606,9.077-1.594,13.972-2.668v7.368
		h0.153c0.943-1.504,2.069-3.274,3.457-4.745c1.418-1.504,3.046-2.623,4.905-2.623c2.814,0,4.969,2.062,4.969,4.524
		s-1.639,4.61-3.51,5.261c-0.958,0.408-1.68,0.131-2.286-0.299c-1.235-1.003-2.522-1.564-3.697-1.564
		c-1.25,0-2.739,0.561-3.989,3.656v14.645"/>
	<path style="fill:#FFFFFF;" d="M244.782,230.347c0-4.524-0.138-4.576-4.883-5.115v-2.002c4.355-0.606,9.268-1.594,13.953-2.668
		v26.125c0,4.232,0.374,4.531,5.085,5.021v2.309h-19.255v-2.309c4.745-0.49,5.1-0.79,5.1-5.021L244.782,230.347 M254.077,208.869
		c0,3.005-2.376,5.351-5.381,5.351c-2.881,0-5.392-2.346-5.392-5.351c0-3.02,2.514-5.392,5.392-5.392
		C251.701,203.477,254.077,205.849,254.077,208.869z"/>
	<path style="fill:#FFFFFF;" d="M288.411,221.419l0.651,1.059l-17.036,28.392h5.86c5.1,0,7.083-0.92,9.575-5.137l1.089-1.833
		l2.668,0.988c-1.328,3.682-2.286,6.425-3.412,9.134H261.06l-0.737-1.081l17.568-28.385h-5.205c-4.905,0-6.219,1.126-7.914,4.778
		l-1.051,2.271l-2.66-1.003c0.868-2.799,2.047-7.498,2.732-10.735h1.639c0.382,1.081,1.175,1.549,3.996,1.549h18.986"/>
	<path style="fill:#FFFFFF;" d="M299.775,232.831c0.445-5.029,3.188-8.872,5.919-8.872c2.821,0,5.182,3.888,5.182,6.892
		c0,1.441-0.284,1.755-1.381,1.755L299.775,232.831 M318.162,245.441c-2.982,2.002-5.276,2.874-8.019,2.874
		c-5.643,0-10.69-3.835-10.69-12.138c7.368-0.292,17.231-0.98,18.264-1.19c1.478-0.284,1.695-0.453,1.695-3.229
		c0-5.729-5.122-11.165-11.555-11.165c-9.033,0-17.029,7.959-17.029,18.641c0,8.303,5.759,15.633,15.757,15.633
		c2.586,0,8.382-1.489,12.606-7.944L318.162,245.441z"/>
	<path style="fill:#FFFFFF;" d="M321.803,249.055c0-3.341,2.432-5.796,5.605-5.796c3.244,0,5.687,2.455,5.687,5.796
		c0,3.465-2.44,5.803-5.687,5.803C324.235,254.859,321.803,252.52,321.803,249.055"/>
	<path style="fill:#FFFFFF;" d="M380.911,254.559h-4.509l-29.444-36.153h-0.161v15.349c0,7.798,0.445,11.899,0.73,14.207
		c0.393,2.574,2.253,3.543,7.162,3.749v2.309h-18.394v-2.312c3.712-0.138,5.482-1.175,5.833-3.749
		c0.337-2.309,0.775-6.41,0.775-14.207v-14.705c0-4.722,0-6.548-1.351-8.31c-1.411-1.796-3.267-2.264-6.294-2.514v-2.331h12.89
		l28.684,33.369h0.153V226.18c0-7.775-0.423-11.854-0.737-14.185c-0.374-2.615-2.238-3.521-7.147-3.772v-2.331h18.402v2.331
		c-3.727,0.146-5.482,1.156-5.852,3.772c-0.307,2.331-0.737,6.41-0.737,14.185v28.381"/>
	<path style="fill:#FFFFFF;" d="M392.368,232.831c0.423-5.029,3.18-8.872,5.905-8.872c2.814,0,5.182,3.888,5.182,6.892
		c0,1.441-0.269,1.755-1.411,1.755L392.368,232.831 M410.755,245.441c-2.99,2.002-5.276,2.874-8.045,2.874
		c-5.613,0-10.649-3.835-10.649-12.138c7.33-0.292,17.197-0.98,18.234-1.19c1.478-0.284,1.695-0.453,1.695-3.229
		c0-5.729-5.1-11.165-11.555-11.165c-9.04,0-17.051,7.959-17.051,18.641c0,8.303,5.788,15.633,15.772,15.633
		c2.608,0,8.397-1.489,12.613-7.944L410.755,245.441z"/>
	<path style="fill:#FFFFFF;" d="M426.418,243.102c0,5.687,2.799,6.746,4.157,6.746c1.164,0,2.432-0.389,3.828-1.19l1.044,2.215
		l-6.38,3.214c-1.171,0.561-2.26,0.775-2.814,0.775c-5.687,0-8.924-2.485-8.924-9.07v-20.58h-4.715l-0.52-0.943l2.384-2.836h2.851
		v-4.524l7.813-5.852l1.272,0.629v9.747h7.33c0.973,0.812,0.797,3.173-0.52,3.779h-6.81v17.889"/>
	<path style="fill:#FFFFFF;" d="M435.23,218.728c-0.651,0-1.265-0.161-1.826-0.49c-0.576-0.314-1.029-0.767-1.381-1.343
		c-0.344-0.584-0.513-1.212-0.513-1.893c0-0.666,0.168-1.287,0.498-1.863c0.329-0.576,0.79-1.036,1.373-1.366
		c0.576-0.329,1.197-0.498,1.848-0.498c0.666,0,1.28,0.168,1.856,0.498c0.584,0.329,1.036,0.79,1.366,1.366
		c0.337,0.576,0.513,1.197,0.513,1.863c0,0.681-0.183,1.31-0.52,1.893c-0.352,0.576-0.804,1.029-1.373,1.343
		C436.503,218.567,435.889,218.728,435.23,218.728 M435.23,218.16c0.554,0,1.074-0.131,1.557-0.408
		c0.49-0.269,0.883-0.651,1.175-1.149c0.284-0.483,0.43-1.021,0.43-1.594s-0.146-1.096-0.415-1.587
		c-0.284-0.498-0.674-0.876-1.164-1.156c-0.505-0.284-1.029-0.423-1.587-0.423s-1.074,0.138-1.557,0.423
		c-0.513,0.277-0.898,0.659-1.175,1.156c-0.269,0.49-0.415,1.014-0.415,1.587s0.146,1.111,0.423,1.594
		c0.307,0.498,0.688,0.876,1.175,1.149C434.156,218.025,434.684,218.16,435.23,218.16z M434.538,217.224h-0.73v-4.509h1.456
		c0.344,0,0.621,0.052,0.804,0.161c0.176,0.101,0.314,0.247,0.423,0.438c0.094,0.198,0.153,0.408,0.153,0.629
		c0,0.269-0.075,0.52-0.213,0.752c-0.153,0.239-0.367,0.423-0.659,0.554c0.146,0.094,0.314,0.314,0.505,0.651l0.703,1.325h-0.819
		l-0.584-1.111l-0.138-0.284c-0.176-0.299-0.292-0.445-0.374-0.445h-0.528v1.839H434.538z M434.538,214.826h0.49
		c0.329,0,0.546-0.086,0.681-0.262c0.123-0.176,0.191-0.367,0.191-0.584c0-0.123-0.022-0.239-0.075-0.352
		c-0.052-0.101-0.138-0.191-0.236-0.254c-0.101-0.075-0.277-0.101-0.528-0.101h-0.528v1.553H434.538z"/>
</g>
<g>
</g>
<g>
</g>
<g>
</g>
<g>
</g>
<g>
</g>
<g>
</g>
<g>
</g>
<g>
</g>
<g>
</g>
<g>
</g>
<g>
</g>
<g>
</g>
<g>
</g>
<g>
</g>
<g>
</g>
</svg>
