<?xml version="1.0" encoding="iso-8859-1"?>
<!-- Generator: Adobe Illustrator 19.0.0, SVG Export Plug-In . SVG Version: 6.00 Build 0)  -->
<svg version="1.1" id="Capa_1" xmlns="http://www.w3.org/2000/svg" xmlns:xlink="http://www.w3.org/1999/xlink" x="0px" y="0px"
	 viewBox="0 0 473.94 473.94" style="enable-background:new 0 0 473.94 473.94;" xml:space="preserve">
<circle style="fill:#F3F2F2;" cx="236.97" cy="236.97" r="236.97"/>
<g>
	<path style="fill:#A23C42;" d="M120.41,364.507c-1.961,1.007-6.054,2.021-11.225,2.021c-11.974,0-20.924-7.566-20.924-21.56
		c0-13.358,9.01-22.312,22.185-22.312c5.231,0,8.64,1.134,10.088,1.893l-1.384,4.475c-2.017-1.014-4.98-1.766-8.509-1.766
		c-9.957,0-16.576,6.365-16.576,17.523c0,10.462,5.987,17.081,16.262,17.081c3.394,0,6.806-0.696,9.01-1.766L120.41,364.507z"/>
	<path style="fill:#A23C42;" d="M127.28,323.352h5.545v37.882h18.155v4.599h-23.7V323.352z"/>
	<path style="fill:#A23C42;" d="M162.576,323.352v42.484h-5.545v-42.484H162.576z"/>
	<path style="fill:#A23C42;" d="M201.774,364.507c-1.957,1.007-6.043,2.021-11.222,2.021c-11.974,0-20.924-7.566-20.924-21.56
		c0-13.358,9.018-22.312,22.192-22.312c5.235,0,8.632,1.134,10.08,1.893l-1.384,4.475c-2.017-1.014-4.98-1.766-8.501-1.766
		c-9.964,0-16.587,6.365-16.587,17.523c0,10.462,5.998,17.081,16.265,17.081c3.401,0,6.806-0.696,9.01-1.766L201.774,364.507z"/>
	<path style="fill:#A23C42;" d="M208.708,323.352h5.489v20.486h0.183c1.141-1.639,2.271-3.151,3.338-4.535l12.991-15.951h6.803
		l-15.367,18.028l16.576,24.452h-6.507l-13.927-20.864l-4.093,4.658v16.206h-5.489v-42.48L208.708,323.352L208.708,323.352z"/>
</g>
<g>
	<path style="fill:#9A847A;" d="M242.874,323.984c2.387-0.573,6.238-0.947,10.02-0.947c5.482,0,9.021,0.947,11.596,3.083
		c2.204,1.639,3.6,4.161,3.6,7.506c0,4.165-2.776,7.753-7.188,9.324v0.195c4.03,0.947,8.759,4.281,8.759,10.589
		c0,3.656-1.448,6.481-3.659,8.501c-2.896,2.72-7.686,3.978-14.615,3.978c-3.794,0-6.679-0.251-8.509-0.509v-41.721L242.874,323.984
		L242.874,323.984z M248.363,341.379h4.973c5.732,0,9.141-3.091,9.141-7.188c0-4.913-3.723-6.933-9.272-6.933
		c-2.518,0-3.97,0.187-4.846,0.382v13.74L248.363,341.379L248.363,341.379z M248.363,361.679c1.13,0.187,2.642,0.243,4.599,0.243
		c5.669,0,10.9-2.077,10.9-8.251c0-5.74-4.98-8.187-10.971-8.187h-4.531v16.194h0.003V361.679z"/>
	<path style="fill:#9A847A;" d="M283.902,352.474l-4.408,13.358h-5.673l14.499-42.484h6.552l14.499,42.484h-5.86l-4.535-13.358
		H283.902z M297.893,348.186l-4.213-12.228c-0.954-2.776-1.579-5.295-2.211-7.749h-0.127c-0.632,2.455-1.257,5.096-2.144,7.693
		l-4.153,12.284H297.893z"/>
	<path style="fill:#9A847A;" d="M315.602,365.832v-42.48h6.054l13.553,21.5c3.098,4.973,5.609,9.444,7.566,13.8l0.195-0.071
		c-0.509-5.669-0.632-10.84-0.632-17.455v-17.773h5.167v42.484h-5.545l-13.485-21.56c-2.963-4.718-5.803-9.575-7.884-14.185
		l-0.187,0.067c0.322,5.358,0.382,10.466,0.382,17.526v18.155h-5.182v-0.008L315.602,365.832L315.602,365.832z"/>
	<path style="fill:#9A847A;" d="M357.08,323.352h5.489v20.486h0.187c1.141-1.639,2.271-3.151,3.345-4.535l12.991-15.951h6.803
		L370.52,341.38l16.569,24.452h-6.484l-13.942-20.864l-4.09,4.658v16.206h-5.489v-42.48L357.08,323.352L357.08,323.352z"/>
</g>
<path style="fill:#BA6D71;" d="M171.163,126.071c42.955-0.011,85.915-0.022,128.859,0l0.004,0.471
	c-42.948,0-85.903,0.011-128.859-0.011v-0.46H171.163z"/>
<path style="fill:#D29EA1;" d="M153.674,146.976l0.46-0.015c0.022,36.471,0.022,72.946,0,109.42h-0.46
	C153.648,219.907,153.648,183.44,153.674,146.976z"/>
<path style="fill:#A23C42;" d="M154.134,146.961c0.516-9.332,7.274-19.3,17.029-20.43c42.955,0.022,85.915,0.011,128.859,0.011
	c10.806,1.699,17.691,13.448,17.025,23.824c-0.034,22.537,0.041,45.055-0.034,67.58c-8.078,0.049-16.164,0.022-24.243,0.011
	c4.168-14.926,1.508-31.506-7.338-44.246c-9.253-13.994-25.126-23.206-41.781-24.909c-17.871-2.223-36.849,4.37-49.04,17.732
	c-8.569,8.359-13.601,20.03-14.844,31.846c-0.498,3.469-0.513,7.02-0.052,10.496c1.104,10.129,4.943,20.104,11.394,28.041
	c9.86,12.958,25.661,20.752,41.795,21.942c0.022,6.14,0.022,12.277,0,18.421c-19.599,0.034-39.221,0-58.828,0
	c-10.975,0.12-19.491-10.432-19.947-20.894C154.157,219.907,154.157,183.432,154.134,146.961z"/>
<g>
	<path style="fill:#9A847A;" d="M220.599,167.197c14.739-6.443,33.002-3.338,44.924,7.454c6.945,6.368,11.97,15.311,12.628,24.823
		c0,2.758,0,5.515,0,8.295c-1.332,19.678-20.037,35.603-39.464,35.491c-0.819,0-2.447,0.015-3.259,0.015
		c-8.385,0.15-16.527-3.218-23.39-7.85c-8.932-6.361-15.147-16.703-16.067-27.689C193.513,190.71,204.794,173.341,220.599,167.197z"
		/>
	<path style="fill:#9A847A;" d="M265.01,246.17c4.89-9.815,19.641-11.424,27.356-4.015c4.917,4.03,5.871,11.876,2.208,17.044
		c-2.574,4.288-7.644,6.687-12.524,6.919c-1.313-0.011-2.615-0.022-3.899,0c-4.977-0.232-10.058-2.978-12.606-7.334
		C263.18,255.083,262.657,249.991,265.01,246.17z"/>
</g>
<path style="fill:#DEBBBC;" d="M179.72,208.873c-0.46-3.476-0.445-7.027,0.052-10.496
	C179.84,201.872,180.248,205.408,179.72,208.873z"/>
<path style="fill:#D0D1D1;" d="M278.151,199.473l0.475,0.022c0,2.735,0.071,5.493-0.011,8.239l-0.464,0.034
	C278.151,204.989,278.151,202.235,278.151,199.473z"/>
<g>
	<path style="fill:#E0E0E0;" d="M235.428,243.274c0.812,0,2.44-0.015,3.259-0.015C238.29,244.142,235.817,244.142,235.428,243.274z"
		/>
	<path style="fill:#E0E0E0;" d="M278.151,266.114c1.283-0.022,2.586-0.011,3.899,0c-0.46,1.059-2.728,0.236-3.899,0.457V266.114z"/>
</g>
<path style="fill:#D19EA0;" d="M232.91,258.859l0.479-0.067c0.022,6.163,0.071,12.333,0,18.484h-0.479
	C232.932,271.135,232.932,264.995,232.91,258.859z"/>
<path style="fill:#9A847A;" d="M303.588,266.301c4.004-0.385,8.711,1.355,10.507,5.175c1.927,2.967,1.28,7.409-1.283,9.852
	c-3.719,4.247-11.083,4.73-15.218,0.831c-3.035-2.496-4.037-7.311-1.938-10.701C296.909,268.277,300.4,266.686,303.588,266.301z"/>
<g>
</g>
<g>
</g>
<g>
</g>
<g>
</g>
<g>
</g>
<g>
</g>
<g>
</g>
<g>
</g>
<g>
</g>
<g>
</g>
<g>
</g>
<g>
</g>
<g>
</g>
<g>
</g>
<g>
</g>
</svg>
