<svg id="Component_60_1" data-name="Component 60 – 1" xmlns="http://www.w3.org/2000/svg" width="28.311" height="31.864" viewBox="0 0 28.311 31.864">
  <path id="Path_44" data-name="Path 44" d="M52.079,17.641a23.455,23.455,0,0,0-1.648-1.709,23.455,23.455,0,0,0,1.648-1.709,11.412,11.412,0,0,0,2.112-3.3,3.374,3.374,0,0,0-.039-2.961,3.374,3.374,0,0,0-2.545-1.514,11.411,11.411,0,0,0-3.91.181,23.457,23.457,0,0,0-2.3.573c-.174-.737-.371-1.436-.591-2.09a1.781,1.781,0,0,0-1.419-3.061,7.258,7.258,0,0,0-.445-.608,3.031,3.031,0,0,0-5.168,0,11.413,11.413,0,0,0-1.8,3.477,23.457,23.457,0,0,0-.656,2.282,23.438,23.438,0,0,0-2.3-.573,11.412,11.412,0,0,0-3.91-.181,3.374,3.374,0,0,0-2.545,1.514,3.374,3.374,0,0,0-.039,2.961,11.412,11.412,0,0,0,2.112,3.3,23.454,23.454,0,0,0,1.648,1.709q-.544.513-1.03,1.026a1.781,1.781,0,0,0-2.054,2.619,8.224,8.224,0,0,0-.676,1.36,3.374,3.374,0,0,0,.039,2.961A3.374,3.374,0,0,0,29.1,25.412a7.918,7.918,0,0,0,1.283.1,14.068,14.068,0,0,0,2.627-.278,23.456,23.456,0,0,0,2.3-.573,23.454,23.454,0,0,0,.656,2.282,11.414,11.414,0,0,0,1.8,3.477,3.031,3.031,0,0,0,5.168,0,11.414,11.414,0,0,0,1.8-3.477,23.452,23.452,0,0,0,.656-2.282c.7.21,1.384.385,2.039.52A1.781,1.781,0,0,0,50.8,25.5a7.35,7.35,0,0,0,.809-.084A3.374,3.374,0,0,0,54.152,23.9a3.374,3.374,0,0,0,.039-2.961A11.411,11.411,0,0,0,52.079,17.641ZM47.953,7.965c2.611-.5,4.49-.247,5.025.679s-.184,2.68-1.924,4.691a22.324,22.324,0,0,1-1.634,1.687A37.153,37.153,0,0,0,46.2,12.559a37.164,37.164,0,0,0-.522-4.023A22.321,22.321,0,0,1,47.953,7.965ZM42.661,19.927c-.769.444-1.54.858-2.306,1.241-.767-.383-1.538-.8-2.306-1.241s-1.513-.9-2.228-1.377c-.052-.855-.078-1.731-.078-2.618s.027-1.763.078-2.618q1.072-.709,2.228-1.377c.769-.444,1.54-.858,2.306-1.241.767.383,1.538.8,2.306,1.241s1.513.9,2.228,1.377c.052.855.078,1.731.078,2.618s-.027,1.763-.078,2.618Q43.817,19.259,42.661,19.927Zm2.089.325c-.095.916-.22,1.8-.374,2.645-.808-.289-1.637-.623-2.478-1q.721-.382,1.441-.8T44.75,20.252ZM38.811,21.9c-.841.376-1.67.71-2.478,1-.154-.844-.279-1.729-.374-2.645q.691.433,1.411.849T38.811,21.9Zm-4.4-4.32c-.746-.54-1.449-1.091-2.1-1.647.654-.555,1.358-1.106,2.1-1.647-.02.544-.03,1.647-.03,1.647S34.4,17.035,34.416,17.578Zm1.544-5.967c.095-.916.22-1.8.374-2.645.808.289,1.637.623,2.478,1q-.721.382-1.441.8T35.959,11.612ZM41.9,9.965c.841-.376,1.67-.71,2.478-1,.154.844.279,1.729.374,2.645q-.691-.433-1.411-.849T41.9,9.965Zm4.4,4.32c.746.54,1.449,1.091,2.1,1.647-.654.555-1.358,1.106-2.1,1.647q.03-.815.03-1.647T46.294,14.285Zm-9.04-8.917c.871-2.512,2.03-4.012,3.1-4.012.605,0,1.239.48,1.833,1.352a1.78,1.78,0,0,0,1.349,2.9c.209.631.4,1.306.563,2.019a37.17,37.17,0,0,0-3.745,1.559A37.17,37.17,0,0,0,36.61,7.627,22.338,22.338,0,0,1,37.254,5.368Zm-7.6,7.967c-1.74-2.011-2.459-3.764-1.924-4.691.354-.613,1.3-.932,2.651-.932a12.781,12.781,0,0,1,2.374.253,22.338,22.338,0,0,1,2.278.572,37.163,37.163,0,0,0-.522,4.023,37.164,37.164,0,0,0-3.223,2.463A22.325,22.325,0,0,1,29.656,13.335Zm3.1,10.564c-2.611.5-4.49.248-5.025-.679-.361-.625-.15-1.627.559-2.83A1.781,1.781,0,0,0,30.3,17.825q.468-.491.994-.984A37.175,37.175,0,0,0,34.513,19.3a37.16,37.16,0,0,0,.522,4.023A22.3,22.3,0,0,1,32.756,23.9Zm10.7,2.6c-.871,2.512-2.03,4.012-3.1,4.012s-2.229-1.5-3.1-4.012a22.335,22.335,0,0,1-.644-2.259,37.169,37.169,0,0,0,3.745-1.559A37.169,37.169,0,0,0,44.1,24.237,22.334,22.334,0,0,1,43.455,26.5Zm9.522-3.276a2.561,2.561,0,0,1-2.147.916,1.781,1.781,0,0,0-3.176-.3c-.636-.133-1.3-.3-1.98-.512A37.163,37.163,0,0,0,46.2,19.3a37.139,37.139,0,0,0,3.223-2.463,22.323,22.323,0,0,1,1.634,1.687C52.793,20.539,53.513,22.293,52.978,23.22Z" transform="translate(-26.199)" fill="#3f51b5"/>
  <path id="Path_45" data-name="Path 45" d="M196.247,193.433a2.814,2.814,0,1,0,2.814,2.814A2.817,2.817,0,0,0,196.247,193.433Zm0,4.272a1.458,1.458,0,1,1,1.458-1.458A1.46,1.46,0,0,1,196.247,197.705Z" transform="translate(-182.092 -180.315)" fill="#3f51b5"/>
</svg>
