<svg width="400" height="400" xmlns="http://www.w3.org/2000/svg">
 <!-- Created with Method Draw - http://github.com/duopixel/Method-Draw/ -->

 <g>
  <title>background</title>
  <rect fill="#ffffff" id="canvas_background" height="402" width="402" y="-1" x="-1"/>
  <g display="none" overflow="visible" y="0" x="0" height="100%" width="100%" id="canvasGrid">
   <rect fill="url(#gridpattern)" stroke-width="0" y="0" x="0" height="100%" width="100%"/>
  </g>
 </g>
 <g>
  <title>Layer 1</title>
  <!-- Created with Method Draw - http://github.com/duopixel/Method-Draw/ -->
  <g id="svg_50">
   <g transform="matrix(2.917423850280798,0,0,2.917423850280798,0,0) " id="svg_47">
    <title transform="translate(-221.44639587402344,0) translate(0,-131.44638061523438) ">background</title>
    <rect x="-222.446396" y="-132.446381" width="582" height="402" id="svg_45" fill="#fcffff"/>
    <g id="svg_44" display="none">
     <rect id="svg_48" width="400" height="400" x="-221.446396" y="-131.446381" stroke-width="0" fill="url(#gridpattern)"/>
    </g>
   </g>
   <g transform="matrix(2.917423850280798,0,0,2.917423850280798,0,0) " id="svg_49">
    <title transform="translate(0,13.997456550598145) translate(-3.5177905559539795,0) translate(-221.44639587402344,0) translate(0,-131.44638061523438) ">Layer 1</title>
    <ellipse fill="#fff" stroke="#000" stroke-width="1.5" cx="68.553592" cy="68.553617" id="svg_43" rx="66" ry="66"/>
    <g id="svg_37">
     <text fill="#000000" stroke="#000" stroke-width="0" stroke-opacity="null" fill-opacity="null" x="30.407791" y="107.195512" id="svg_42" font-size="28" font-family="'League Gothic', sans-serif" text-anchor="start" xml:space="preserve" font-weight="bold">UI-Lib</text>
     <g id="svg_39">
      <path fill="#00bf5f" stroke="#000" stroke-width="1.5" stroke-opacity="null" d="m39.685094,69.285696c0,0 -26,-45 19,-14c45,31 -19,14 -19,14z" id="svg_41" transform="rotate(-180 53.46681213378907,59.163455963134766) "/>
      <path fill="#e023e0" stroke="#000" stroke-width="1.5" stroke-opacity="null" d="m68.018274,48.869146c0,0 -26,-45 19,-14c45,31 -19,14 -19,14z" id="svg_40"/>
     </g>
     <line fill="none" stroke="#000" stroke-width="1.5" stroke-opacity="null" x1="21.106093" y1="80.293123" x2="116.001115" y2="80.293123" id="svg_38" stroke-linejoin="null" stroke-linecap="null"/>
    </g>
   </g>
  </g>
 </g>
</svg>