<?xml version="1.0" encoding="iso-8859-1"?>
<!-- Generator: Adobe Illustrator 18.0.0, SVG Export Plug-In . SVG Version: 6.00 Build 0)  -->
<!DOCTYPE svg PUBLIC "-//W3C//DTD SVG 1.1//EN" "http://www.w3.org/Graphics/SVG/1.1/DTD/svg11.dtd">
<svg version="1.1" id="Capa_1" xmlns="http://www.w3.org/2000/svg" xmlns:xlink="http://www.w3.org/1999/xlink" x="0px" y="0px"
	 viewBox="0 0 176.991 176.991" style="enable-background:new 0 0 176.991 176.991;" xml:space="preserve">
<g>
	<g>
		<defs>
			<circle id="SVGID_1_" cx="88.496" cy="88.496" r="88.495"/>
		</defs>
		<use xlink:href="#SVGID_1_"  style="overflow:visible;fill:#F5F5F5;"/>
		<clipPath id="SVGID_2_">
			<use xlink:href="#SVGID_1_"  style="overflow:visible;"/>
		</clipPath>
		<g style="clip-path:url(#SVGID_2_);">
			<g>
				<g>
					<g>
						<path style="fill:#E9D2BB;" d="M147.188,169.083H30.668v-0.896c0-2.432-0.112-5.216-0.23-8.161
							c-0.499-12.417-1.123-27.87,5.871-34.863c4.125-4.127,15.904-12.334,33.882-16.931l0.439-0.113l0.194,0.159
							c3.651-3.991,5.499-8.806,5.499-14.323v-2.069h25.212v2.069c0,5.463,1.864,10.271,5.541,14.289l0.154-0.124l0.438,0.113
							c17.979,4.597,29.758,12.808,33.878,16.931c6.996,6.993,6.371,22.447,5.872,34.867c-0.119,2.944-0.229,5.725-0.229,8.157
							V169.083z"/>
					</g>
					<g>
						<g>
							<path style="fill:#B7CF65;" d="M147.188,180.723H30.668v-12.535c0-2.432-0.112-5.216-0.23-8.161
								c-0.499-12.417-1.123-27.87,5.871-34.863c4.125-4.127,15.904-12.334,33.882-16.931l0.439-0.113l17.788,20.685l18.813-20.685
								l0.438,0.113c17.979,4.597,29.758,12.808,33.878,16.931c6.996,6.993,6.371,22.447,5.872,34.867
								c-0.119,2.944-0.229,5.725-0.229,8.157V180.723z"/>
						</g>
					</g>
					<path style="fill:#D8CD4B;" d="M118.561,181.899c0,6.627-5.373,12-12,12h-38.5c-6.627,0-12-5.373-12-12v-31
						c0-6.627,5.373-12,12-12h38.5c6.627,0,12,5.373,12,12V181.899z"/>
					<g>
						<path style="fill:#FFE5CB;" d="M88.92,108.903c-13.563,0-24.085-13.061-28.324-25.488c-2.985,0.326-5.353-2.912-5.353-7.026
							c0-2.8,1.153-5.275,2.929-6.393c-0.004-0.232-0.01-0.433-0.01-0.631c0-17.345,12.362-29.002,30.759-29.002
							c18.397,0,30.757,11.658,30.757,29.002c0,0.205-0.003,0.411-0.007,0.619c1.783,1.111,2.945,3.59,2.945,6.406
							c0,4.126-2.378,7.392-5.367,7.022C113.004,95.841,102.484,108.903,88.92,108.903z"/>
					</g>
					<g>
						<path style="fill:#FF8B26;" d="M59.674,57.768c0,0,27.261,1.702,48.56-21.298c0,0-1.457-3.406-22.202-3.406
							C59.933,33.063,59.674,57.768,59.674,57.768z"/>
					</g>
					<g>
						<path style="fill:#414144;" d="M122.3,62.074c-3.249-23.935-11.039-33.698-33.947-33.698
							c-18.886,0-29.557,9.764-32.806,33.698c-4.077,30.002,18.102-8.638,33.375-8.638C104.89,53.436,126.373,92.076,122.3,62.074z"
							/>
					</g>
					
						<ellipse transform="matrix(0.9679 -0.2515 0.2515 0.9679 -16.9993 17.1875)" style="fill:#FFE5CB;" cx="58.741" cy="75.098" rx="4.419" ry="8.75"/>
					
						<ellipse transform="matrix(-0.9781 -0.2081 0.2081 -0.9781 220.8854 173.077)" style="fill:#FFE5CB;" cx="119.546" cy="74.921" rx="4.419" ry="8.75"/>
					<g>
						<path style="fill:#414144;" d="M103.762,50.498c0,0-18.582-16.862-27.081-5.86c-8.507,11.003-2.941,20.359-14.086,22.783
							c0,0,10.817,2.998,24.995-3.302C102.91,57.311,103.762,50.498,103.762,50.498z"/>
					</g>
					<g>
						<path style="fill:#414144;" d="M115.762,54.164c0,0-18.582-16.862-27.081-5.86c-8.507,11.003-2.941,20.359-14.086,22.783
							c0,0,10.817,2.999,24.995-3.302C114.91,60.978,115.762,54.164,115.762,54.164z"/>
					</g>
				</g>
			</g>
		</g>
	</g>
</g>
<g>
</g>
<g>
</g>
<g>
</g>
<g>
</g>
<g>
</g>
<g>
</g>
<g>
</g>
<g>
</g>
<g>
</g>
<g>
</g>
<g>
</g>
<g>
</g>
<g>
</g>
<g>
</g>
<g>
</g>
</svg>
