<?xml version="1.0" encoding="iso-8859-1"?>
<!-- Generator: Adobe Illustrator 18.0.0, SVG Export Plug-In . SVG Version: 6.00 Build 0)  -->
<!DOCTYPE svg PUBLIC "-//W3C//DTD SVG 1.1//EN" "http://www.w3.org/Graphics/SVG/1.1/DTD/svg11.dtd">
<svg version="1.1" id="Capa_1" xmlns="http://www.w3.org/2000/svg" xmlns:xlink="http://www.w3.org/1999/xlink" x="0px" y="0px"
	 viewBox="0 0 176.992 176.992" style="enable-background:new 0 0 176.992 176.992;" xml:space="preserve">
<g>
	<g>
		<defs>
			<circle id="SVGID_1_" cx="88.496" cy="88.496" r="88.495"/>
		</defs>
		<use xlink:href="#SVGID_1_"  style="overflow:visible;fill:#F5F5F5;"/>
		<clipPath id="SVGID_2_">
			<use xlink:href="#SVGID_1_"  style="overflow:visible;"/>
		</clipPath>
		<g style="clip-path:url(#SVGID_2_);">
			<g>
				<g>
					<g>
						<path style="fill:#E9D2BB;" d="M147.189,169.083H30.668v-0.896c0-2.432-0.112-5.216-0.23-8.161
							c-0.499-12.417-1.123-27.869,5.871-34.862c4.125-4.128,15.904-12.334,33.882-16.931l0.439-0.113l0.194,0.158
							c3.651-3.991,5.499-8.807,5.499-14.323v-2.069h25.212v2.069c0,5.464,1.864,10.27,5.541,14.288l0.154-0.123l0.438,0.113
							c17.979,4.597,29.758,12.807,33.878,16.931c6.996,6.993,6.371,22.446,5.872,34.866c-0.119,2.944-0.229,5.726-0.229,8.157
							V169.083z"/>
					</g>
					<g>
						<g>
							<path style="fill:#EFEFF0;" d="M147.189,180.723H30.668v-12.535c0-2.432-0.112-5.216-0.23-8.161
								c-0.499-12.417-1.123-27.869,5.871-34.862c4.125-4.128,15.904-12.334,33.882-16.931l0.439-0.113l18.933,44.937l17.668-44.937
								l0.438,0.113c17.979,4.597,29.758,12.807,33.878,16.931c6.996,6.993,6.371,22.446,5.872,34.866
								c-0.119,2.944-0.229,5.726-0.229,8.157V180.723z"/>
						</g>
					</g>
					<path style="fill:#5B5C5E;" d="M68.562,108.392v71l-27.333-8l3-52.334C44.229,119.058,55.895,110.392,68.562,108.392z"/>
					<path style="fill:#5B5C5E;" d="M110.895,108.393v71l27.333-8l-3-52.334C135.228,119.059,123.562,110.393,110.895,108.393z"/>
					<g>
						<path style="fill:#FFE5CB;" d="M88.92,108.903c-13.563,0-24.085-13.061-28.324-25.488c-2.985,0.326-5.353-2.911-5.353-7.026
							c0-2.8,1.153-5.275,2.929-6.393c-0.004-0.232-0.01-0.433-0.01-0.631c0-17.345,11.67-35.306,30.066-35.306
							c18.397,0,31.45,17.961,31.45,35.306c0,0.205-0.003,0.411-0.007,0.619c1.783,1.111,2.945,3.59,2.945,6.406
							c0,4.126-2.378,7.392-5.367,7.022C113.004,95.841,102.484,108.903,88.92,108.903z"/>
					</g>
					
						<ellipse transform="matrix(0.9679 -0.2515 0.2515 0.9679 -16.9999 17.1884)" style="fill:#FFE5CB;" cx="58.741" cy="75.098" rx="4.419" ry="8.749"/>
					
						<ellipse transform="matrix(-0.9781 -0.2081 0.2081 -0.9781 220.887 173.076)" style="fill:#FFE5CB;" cx="119.546" cy="74.921" rx="4.419" ry="8.75"/>
				</g>
			</g>
		</g>
	</g>
	<ellipse style="fill:#534A42;" cx="89.062" cy="98.892" rx="13.5" ry="16.5"/>
	<circle style="fill:#FFE5CB;" cx="89.228" cy="94.725" r="7"/>
	<ellipse style="fill:#534A42;" cx="89.228" cy="102.725" rx="2.333" ry="5.333"/>
	<path style="fill:#534A42;" d="M60.729,55.392c0,0,0.333,12.999,1.166,18.666c0.834,5.667-3.5-7.333-3.5-7.333
		S56.062,59.225,60.729,55.392z"/>
	<path style="fill:#534A42;" d="M117.084,55.392c0,0-0.333,12.999-1.167,18.666c-0.833,5.667,3.5-7.333,3.5-7.333
		S121.751,59.225,117.084,55.392z"/>
</g>
<g>
</g>
<g>
</g>
<g>
</g>
<g>
</g>
<g>
</g>
<g>
</g>
<g>
</g>
<g>
</g>
<g>
</g>
<g>
</g>
<g>
</g>
<g>
</g>
<g>
</g>
<g>
</g>
<g>
</g>
</svg>
