<?xml version="1.0" encoding="iso-8859-1"?>
<!-- Generator: Adobe Illustrator 18.0.0, SVG Export Plug-In . SVG Version: 6.00 Build 0)  -->
<!DOCTYPE svg PUBLIC "-//W3C//DTD SVG 1.1//EN" "http://www.w3.org/Graphics/SVG/1.1/DTD/svg11.dtd">
<svg version="1.1" id="Capa_1" xmlns="http://www.w3.org/2000/svg" xmlns:xlink="http://www.w3.org/1999/xlink" x="0px" y="0px"
	 viewBox="0 0 176.992 176.992" style="enable-background:new 0 0 176.992 176.992;" xml:space="preserve">
<g>
	<g>
		<defs>
			<circle id="SVGID_1_" cx="88.496" cy="88.496" r="88.496"/>
		</defs>
		<use xlink:href="#SVGID_1_"  style="overflow:visible;fill:#F5F5F5;"/>
		<clipPath id="SVGID_2_">
			<use xlink:href="#SVGID_1_"  style="overflow:visible;"/>
		</clipPath>
		<g style="clip-path:url(#SVGID_2_);">
			<g>
				<g>
					<g>
						<path style="fill:#E9D2BB;" d="M147.189,169.084H30.668v-0.896c0-2.432-0.112-5.216-0.23-8.161
							c-0.499-12.417-1.123-27.869,5.871-34.862c4.125-4.128,15.904-12.334,33.881-16.931l0.44-0.113l0.193,0.158
							c3.651-3.991,5.499-8.807,5.499-14.323v-2.069h25.212v2.069c0,5.464,1.864,10.271,5.542,14.288l0.154-0.123l0.438,0.113
							c17.979,4.597,29.758,12.807,33.878,16.931c6.996,6.993,6.37,22.446,5.872,34.866c-0.119,2.944-0.23,5.726-0.23,8.157V169.084
							z"/>
					</g>
					<g>
						<g>
							<path style="fill:#C4D3DF;" d="M147.189,180.724H30.668v-12.535c0-2.432-0.112-5.216-0.23-8.161
								c-0.499-12.417-1.123-27.869,5.871-34.862c4.125-4.128,15.904-12.334,33.881-16.931l0.44-0.113l17.788,20.685l18.812-20.685
								l0.438,0.113c17.979,4.597,29.758,12.807,33.878,16.931c6.996,6.993,6.37,22.446,5.872,34.866
								c-0.119,2.944-0.23,5.726-0.23,8.157V180.724z"/>
						</g>
					</g>
					<rect x="103.083" y="149.568" style="fill:#A5C9DD;" width="19.75" height="31.5"/>
					<g>
						<path style="fill:#FFE5CB;" d="M88.92,108.903c-13.563,0-24.084-13.062-28.324-25.488c-2.984,0.326-5.353-2.911-5.353-7.026
							c0-2.801,1.153-5.275,2.929-6.393c-0.004-0.232-0.01-0.434-0.01-0.632c0-17.345,12.361-29.003,30.758-29.003
							c18.397,0,30.758,11.658,30.758,29.003c0,0.205-0.003,0.411-0.008,0.618c1.783,1.111,2.945,3.591,2.945,6.406
							c0,4.126-2.378,7.392-5.367,7.023C113.004,95.842,102.485,108.903,88.92,108.903z"/>
					</g>
					<path style="fill:#C2C1C5;" d="M64.526,78.628l4.466-0.496l-6.697-12.403c0,0,6.945-4.465,6.945-9.428
						c0-4.961,7.69-9.426,13.396-4.464c5.706,4.961,12.404,1.487,14.885-0.993c2.481-2.48,10.418-1.984,11.162,3.474
						c0.745,5.457,3.474,9.179,5.458,10.171c1.985,0.991-6.202,11.659-6.202,11.659l4.466,1.984l8.435-11.907
						c0,0,7.441-29.272-25.551-35.723C62.294,24.054,47.41,57.294,64.526,78.628z"/>
					
						<ellipse transform="matrix(0.9679 -0.2515 0.2515 0.9679 -17.0008 17.1896)" style="fill:#FFE5CB;" cx="58.742" cy="75.099" rx="4.418" ry="8.749"/>
					
						<ellipse transform="matrix(-0.9781 -0.2081 0.2081 -0.9781 220.8862 173.0796)" style="fill:#FFE5CB;" cx="119.547" cy="74.921" rx="4.418" ry="8.75"/>
				</g>
			</g>
		</g>
	</g>
	<polygon style="fill:#A5C9DD;" points="73.038,105.571 89.001,128.14 78.334,140.236 64.667,109.902 	"/>
	<polygon style="fill:#A5C9DD;" points="104.642,105.017 89.001,128.14 99.085,139.57 113.236,109.729 	"/>
	<path style="fill:#C2C1C5;" d="M97.662,88.831c-0.234,0.5-0.829,0.716-1.329,0.48l-7.848-3.676
		c-0.501-0.234-0.716-0.829-0.481-1.33l0,0c0.234-0.5,0.829-0.716,1.329-0.48l7.848,3.676C97.681,87.735,97.896,88.33,97.662,88.831
		L97.662,88.831z"/>
	<path style="fill:#C2C1C5;" d="M79.336,88.831c0.234,0.5,0.829,0.716,1.329,0.48l7.848-3.676c0.501-0.234,0.716-0.829,0.481-1.33
		l0,0c-0.234-0.5-0.829-0.716-1.329-0.48l-7.848,3.676C79.317,87.735,79.102,88.33,79.336,88.831L79.336,88.831z"/>
</g>
<g>
</g>
<g>
</g>
<g>
</g>
<g>
</g>
<g>
</g>
<g>
</g>
<g>
</g>
<g>
</g>
<g>
</g>
<g>
</g>
<g>
</g>
<g>
</g>
<g>
</g>
<g>
</g>
<g>
</g>
</svg>
