<?xml version="1.0" encoding="iso-8859-1"?>
<!-- Generator: Adobe Illustrator 19.0.0, SVG Export Plug-In . SVG Version: 6.00 Build 0)  -->
<svg version="1.1" id="Layer_1" xmlns="http://www.w3.org/2000/svg" xmlns:xlink="http://www.w3.org/1999/xlink" x="0px" y="0px"
	 viewBox="0 0 512 512" style="enable-background:new 0 0 512 512;" xml:space="preserve">
<circle style="fill:#4AB8A1;" cx="256" cy="256" r="256"/>
<g>
	<path style="fill:#F5F5F5;" d="M384.048,206.152c-58.42-61.872-107.984-17.696-132.308-17.696
		c-24.304,0-96.992-53.224-141.172,42.024c-29.604,63.8,25.304,153.112,36.464,168c43.464,57.916,77.144,17.696,107.508,17.696
		c40.22,0,76.204,61.424,139.548-74.708c-36.224-21.668-49.304-43.796-49.304-71.652
		C344.78,241.972,362.548,221.204,384.048,206.152z"/>
	<path style="fill:#F5F5F5;" d="M318.444,74c-30.86,2.704-72.784,31.724-70.832,79.296C283.4,157.512,325.92,113.792,318.444,74z"/>
</g>
<g>
</g>
<g>
</g>
<g>
</g>
<g>
</g>
<g>
</g>
<g>
</g>
<g>
</g>
<g>
</g>
<g>
</g>
<g>
</g>
<g>
</g>
<g>
</g>
<g>
</g>
<g>
</g>
<g>
</g>
</svg>
