<?xml version="1.0" encoding="iso-8859-1"?>
<!-- Generator: Adobe Illustrator 19.0.0, SVG Export Plug-In . SVG Version: 6.00 Build 0)  -->
<svg version="1.1" id="Layer_1" xmlns="http://www.w3.org/2000/svg" xmlns:xlink="http://www.w3.org/1999/xlink" x="0px" y="0px"
	 viewBox="0 0 512 512" style="enable-background:new 0 0 512 512;" xml:space="preserve">
<circle style="fill:#91D2F2;" cx="256" cy="256" r="256"/>
<path style="fill:#F5F5F5;" d="M233.244,312.892c-73.028,0-143.284,21.892-203.284,63.304C73.012,456.98,158.06,477.864,256,477.864
	c87.884,0,165.408-10.176,211.504-77.656C402.408,343.908,319.264,312.892,233.244,312.892z"/>
<path style="fill:#2995CC;" d="M233.244,324.264c-73.484,0-141.584,22.904-197.684,61.872C80.124,461.456,162.136,512,256,512
	c83.792,0,158.176-40.272,204.884-102.504C399.936,356.456,320.372,324.264,233.244,324.264z"/>
<path style="fill:#F5F5F5;" d="M214.752,352.864h-5.62c-8.08,0-15.256-2.188-21.52-6.572c-6.268-4.38-9.4-12.824-9.4-25.328V182.788
	l134,150.528c11.252,2.62,22.272,5.844,33.08,9.536V182.788c0-10.256,0.968-17.5,2.9-21.72s4.624-7.268,8.08-9.136
	c3.452-1.868,10.22-3.392,20.296-4.572v-5.928h-78.712v5.928c13.24-0.212,22.664,2.78,28.288,8.98
	c4.096,4.592,6.148,13.412,6.148,26.448v93.452L214.76,141.436h-84.5v5.928c7.26,0.216,12.824,1.232,16.688,3.048
	c3.864,1.82,8.316,5.608,13.352,11.38l5.096,5.768v153.404c0,11.54-2.58,19.716-7.732,24.524
	c-5.156,4.812-14.288,7.268-27.408,7.376v5.932h84.5L214.752,352.864L214.752,352.864z"/>
<g>
</g>
<g>
</g>
<g>
</g>
<g>
</g>
<g>
</g>
<g>
</g>
<g>
</g>
<g>
</g>
<g>
</g>
<g>
</g>
<g>
</g>
<g>
</g>
<g>
</g>
<g>
</g>
<g>
</g>
</svg>
