<svg clip-rule="evenodd" fill-rule="evenodd" height="512" image-rendering="optimizeQuality" shape-rendering="geometricPrecision" text-rendering="geometricPrecision" viewBox="0 0 4000 4000" width="512" xmlns="http://www.w3.org/2000/svg"><g id="Layer_x0020_1" fill-rule="nonzero"><path d="m1206 3333h-134v-2666h134z" fill="#d1d8de"/><path d="m2660 3333h-1490v-2666h1886v2271z" fill="#eff2f4"/><path d="m944 1731v-779l128 126v780z" fill="#b73737"/><path d="m2660 2938h396l-396 395z" fill="#cfd8df"/><path d="m944 1731v-779h1405v779z" fill="#ee4937"/><path d="m1979 2596c24-48 52-101 74-155l9-21c-29-110-46-198-31-254 4-15 21-24 40-24h11 2c25 0 37 32 38 44 2 21-7 56-7 56 0-14 1-37-8-57-10-23-20-36-29-39-4 3-9 9-10 21-3 17-4 38-4 49 0 39 8 89 22 142 3-8 5-16 7-23 3-12 22-88 22-88s-5 102-12 132c-1 6-3 13-5 20 25 69 64 130 111 174 19 17 42 31 64 44 49-7 93-10 131-10 50 1 86 8 101 23 7 7 10 16 11 25 0 4-2 12-2 15 1-3 1-16-39-28-31-10-90-10-160-2 81 40 161 60 186 48 6-3 14-13 14-13s-4 20-8 25-12 11-20 13c-40 11-143-14-233-65-101 15-211 42-300 71-87 153-152 223-206 196l-20-10c-8-5-9-16-7-25 6-30 44-76 121-122 8-5 45-24 45-24s-27 26-34 31c-61 50-106 113-105 137v2c52-7 130-113 230-309zm32 16c-17 31-33 61-48 87 83-35 173-57 258-73-11-8-23-16-33-25-47-40-83-90-109-142-16 44-36 92-68 153z" fill="#ee4937"/><g fill="#f1f2f2"><path d="m1207 1159h131c34 0 61 10 82 31s31 47 31 80-10 60-31 80-48 30-82 30h-78v127h-52v-348zm52 45v132h49c15 0 27-1 38-3 10-2 19-5 28-10 8-5 14-12 18-20 4-9 6-20 6-33 0-21-6-37-17-49s-28-17-49-17h-72z"/><path d="m1503 1159h116c22 0 42 3 59 8 17 6 32 13 44 23s21 22 29 37 13 31 17 48c3 17 5 36 5 57s-2 39-5 57c-3 17-9 33-16 48-8 15-17 27-29 37s-26 18-44 24c-17 6-37 9-60 9h-116zm52 45v258h59c35 0 61-11 78-32s26-53 26-97c0-20-2-38-6-53s-10-29-18-41-19-20-32-26c-14-6-30-9-49-9h-59z"/><path d="m1888 1507h-53v-348h211v45h-158v112h145v45h-145z"/></g></g></svg>