<svg clip-rule="evenodd" fill-rule="evenodd" height="512" image-rendering="optimizeQuality" shape-rendering="geometricPrecision" text-rendering="geometricPrecision" viewBox="0 0 4000 4000" width="512" xmlns="http://www.w3.org/2000/svg"><g id="Layer_x0020_1"><g fill-rule="nonzero"><path d="m1206 3333h-134v-2666h134z" fill="#d1d8de"/><path d="m2660 3333h-1490v-2666h1886v2271z" fill="#eff2f4"/><path d="m944 1731v-779l128 126v780z" fill="#2f69de"/><path d="m2660 2938h396l-396 395z" fill="#cfd8df"/><path d="m944 1731v-779h1405v779z" fill="#3c76e7"/><path d="m1265 1328h70c19 0 32-4 41-12s13-21 13-39c0-17-4-29-13-38-8-9-21-13-38-13h-73v101zm0 63v124h-72v-350h155c37 0 64 10 83 29s28 47 28 84c0 36-9 64-28 83-18 20-45 29-79 29h-88zm236 16h71c3 19 11 33 23 43 13 9 32 14 56 14 21 0 37-4 47-11 11-7 16-18 16-33 0-21-30-39-91-53h-2c-2 0-4-1-7-2-33-7-56-15-70-24-12-8-22-19-28-32s-10-29-10-47c0-34 12-60 35-78s56-27 100-27c41 0 73 10 96 29s35 47 36 82h-69c-1-17-8-30-19-39-12-9-28-13-50-13-19 0-33 4-44 11-10 7-15 18-15 31 0 19 20 32 60 42 11 3 19 4 25 6 25 6 44 12 54 15 11 4 20 8 28 12 14 8 25 18 32 31s11 29 11 47c0 36-12 65-37 85s-59 30-104 30c-44 0-79-10-103-31-25-20-38-49-40-87zm411 45h58c33 0 58-9 73-26s22-46 22-85-7-68-21-86-36-28-65-28h-66v225zm-70 63v-350h137c54 0 94 15 120 43 26 29 40 73 40 132 0 32-5 60-15 85-10 24-24 44-42 59-14 11-30 19-47 24-18 5-43 7-75 7h-117z" fill="#fff"/></g><path d="m1839 2607h560l119 169h-799z" fill="#666"/><path d="m1839 2511h560l119 169h-799z" fill="#808080"/><path d="m1839 2415h560l119 169h-799z" fill="#999"/><g id="_397069416"><path d="m2515 2920c-108-43-455-306-526-375l106-106c79 65 383 397 420 481z" fill="#994a28"/><path d="m1860 2326c26-26 98-2 236 112l-106 106c-126-125-155-192-129-218z" fill="#e6b800"/><path d="m1882 2341c18-18 31-54-12-96s-122-51-128-104c0 0-53 121 19 186 54 50 95 41 121 14z" fill="#393d47"/></g></g></svg>