<svg clip-rule="evenodd" fill-rule="evenodd" height="512" image-rendering="optimizeQuality" shape-rendering="geometricPrecision" text-rendering="geometricPrecision" viewBox="0 0 4000 4000" width="512" xmlns="http://www.w3.org/2000/svg"><g id="Layer_x0020_1"><g id="_397093248"><g fill-rule="nonzero"><path d="m1206 3333h-134v-2666h134z" fill="#d1d8de"/><path d="m2660 3333h-1490v-2666h1886v2271z" fill="#eff2f4"/><path d="m944 1731v-779l128 126v780z" fill="#00662c"/><path d="m2660 2938h396l-396 395z" fill="#d1d8de"/><path d="m944 1731v-779h1405v779z" fill="#007934"/><path d="m1200 1516 110-178-110-171h83l71 122 71-122h84l-110 171 110 179h-83l-71-121-71 121h-83zm343 0v-350h72v285h171v65zm266-108h71c3 19 11 33 23 43 13 9 32 14 56 14 21 0 37-4 47-11 11-7 16-18 16-33 0-21-30-39-91-53h-2c-2 0-4-1-7-2-33-7-56-15-70-24-12-8-22-19-28-32s-10-29-10-47c0-34 12-60 35-78s56-27 100-27c41 0 73 10 96 29s35 47 36 82h-69c-1-17-8-30-19-39-12-9-28-13-50-13-19 0-33 4-44 11-10 7-15 18-15 31 0 19 20 32 60 42 11 3 19 4 25 6 25 6 44 12 54 15 11 4 20 8 28 12 14 8 25 18 32 31s11 29 11 47c0 36-12 65-37 85s-59 30-104 30c-44 0-79-10-103-31-25-20-38-49-40-87z" fill="#fff"/></g><path d="m1722 2141h795v779h-795z" fill="#007934"/><path d="m1788 2208v645h662v-645z" fill="#fff"/><path d="m2378 2633h-198l58 73-58 73h198l-58-73z" fill="#01692e"/><path d="m2330 2376h-190l-42 53-42-53h-190l137 171-137 171h464l-137-171zm-383 24h-28l236 294h28z" fill="#007934"/></g></g></svg>