<svg clip-rule="evenodd" fill-rule="evenodd" height="512" image-rendering="optimizeQuality" shape-rendering="geometricPrecision" text-rendering="geometricPrecision" viewBox="0 0 4000 4000" width="512" xmlns="http://www.w3.org/2000/svg"><g id="Layer_x0020_1"><g fill-rule="nonzero"><path d="m1206 3333h-134v-2666h134z" fill="#d1d8de"/><path d="m2660 3333h-1490v-2666h1886v2271z" fill="#eff2f4"/><path d="m944 1731v-779l128 126v780z" fill="#143e7a"/><path d="m2660 2938h396l-396 395z" fill="#cfd8df"/><path d="m944 1731v-779h1405v779z" fill="#235395"/><path d="m1240 1328h70c19 0 32-4 41-12s13-21 13-39c0-17-4-29-13-38-8-9-21-13-38-13h-73v101zm0 63v124h-72v-350h155c37 0 64 10 83 29s28 47 28 84c0 36-9 64-28 83-18 20-45 29-79 29h-88zm252 124v-350h75l142 240v-240h71v350h-74l-143-240v240zm612-41c-13 18-28 30-44 39-17 8-36 12-58 12-49 0-88-17-119-51-30-34-45-79-45-134 0-56 15-100 45-134 30-33 70-50 121-50 44 0 80 10 107 31 28 21 44 50 49 87h-73c-4-18-13-32-27-41s-32-14-54-14c-29 0-52 11-69 32s-25 51-25 89 9 68 26 89 41 32 72 32c23 0 42-7 57-20s25-32 28-55h-79v-60h145v189h-48z" fill="#fff"/></g><g id="_397098576"><path d="m2516 2142h-199v194h199z" fill="#fff"/><path d="m2317 2142h-198v194h198z" fill="#d1d3d3"/><path d="m2119 2142h-199v194h199z" fill="#fff"/><path d="m1920 2142h-199v194h199z" fill="#d1d3d3"/><path d="m1920 2336h-199v195h199z" fill="#fff"/><path d="m2119 2336h-199v195h199z" fill="#d1d3d3"/><path d="m2317 2336h-198v195h198z" fill="#fff"/><path d="m2516 2336h-199v195h199z" fill="#d1d3d3"/><path d="m2516 2531h-199v194h199z" fill="#fff"/><path d="m2317 2531h-198v194h198z" fill="#d1d3d3"/><path d="m2119 2531h-199v194h199z" fill="#fff"/><path d="m1920 2531h-199v194h199z" fill="#d1d3d3"/><path d="m1920 2725h-199v194h199z" fill="#fff"/><path d="m2119 2725h-199v194h199z" fill="#d1d3d3"/><path d="m2317 2725h-198v194h198z" fill="#fff"/><path d="m2516 2725h-199v194h199z" fill="#d1d3d3"/><path d="m1894 2621 158 261c86-141 171-565 257-424l208 343v119h-794v-14c57-95 115-379 172-285z" fill="#007934"/></g></g></svg>