 <svg
                  width="50"
                  data-name="Layer 1"
                  xmlns="http://www.w3.org/2000/svg"
                  viewBox="0 0 600 216.56"
                >
                  <path
                    d="M297.82 119.34h-26.17a.6.6 0 0 1-.48-.24.57.57 0 0 1-.1-.53l13.08-45.11a.61.61 0 0 1 1.17 0l13.09 45.11a.61.61 0 0 1-.59.77zM310 158.41h17L301.08 69a17.06 17.06 0 0 0-32.69 0l-25.93 89.42h17l7.54-25.89a.6.6 0 0 1 .58-.44h34.27a.62.62 0 0 1 .59.44zm95.82-51.35h10a.61.61 0 0 1 .62.6v35.27a16.92 16.92 0 0 0 17 16.81 35.32 35.32 0 0 0 10-1.44v-11.58c-1.88.16-4.05.27-5.58.27a5 5 0 0 1-5-5v-34.33a.6.6 0 0 1 .61-.6h10V94.31h-10a.61.61 0 0 1-.61-.61V72.53h-16.49V93.7a.62.62 0 0 1-.62.61h-10zm94.53 51.35h16.35v-44.27A21.31 21.31 0 0 0 495.29 93a35.8 35.8 0 0 0-19 5.89.64.64 0 0 1-.63 0 .62.62 0 0 1-.32-.53V58.14h-16.43v100.27h16.39v-47.93a.6.6 0 0 1 .34-.54c3.08-1.57 9.16-4.21 15.25-4.21a9.42 9.42 0 0 1 6.66 2.73 9.19 9.19 0 0 1 2.75 6.54v43.37zm-164.18-64.1v44.27a21.31 21.31 0 0 0 21.41 21.16 35.8 35.8 0 0 0 20.94-7.22.63.63 0 0 1 .56-.1.61.61 0 0 1 .4.4l1.73 5.59H394v-64.1h-16.43v47.93a.6.6 0 0 1-.33.54c-3.08 1.57-9.16 4.21-15.26 4.21a9.37 9.37 0 0 1-9.41-9.31V94.31zM564.61 147c-5 0-9-2.82-12.18-8.62-3.8-7-5.9-17.69-5.9-30.09s2.1-23.09 5.9-30.1c3.16-5.8 7.14-8.62 12.18-8.62s9 2.82 12.17 8.62c3.81 7 5.91 17.7 5.91 30.1s-2.1 23.08-5.91 30.09c-3.15 5.79-7.13 8.62-12.17 8.62zm0-90.18c-10.54 0-19.46 4.91-25.78 14.2s-9.61 22.12-9.61 37.27 3.32 28 9.61 37.26 15.24 14.2 25.78 14.2 19.45-4.91 25.78-14.2 9.61-22.13 9.61-37.27-3.32-28-9.61-37.27-15.24-14.2-25.78-14.2z"
                    fill="#16214d"
                    fill-rule="evenodd"
                  ></path>
                  <path
                    d="M189 66.92L167.22 0H96.85l21.75 66.92zM96.85 0H26.49L4.75 66.92h70.36zM4.75 66.92zm0 0A96.83 96.83 0 0 0 39.93 175.2l21.74-66.92zm184.21 0L132 108.28l21.75 66.92A96.85 96.85 0 0 0 189 66.92zM39.93 175.2l56.92 41.36 56.93-41.36-56.93-41.36z"
                    fill="#eb5424"
                  ></path>
                </svg>