<?xml version="1.0" encoding="UTF-8"?>
<svg width="20px" height="20px" viewBox="0 0 20 20" version="1.1" xmlns="http://www.w3.org/2000/svg" xmlns:xlink="http://www.w3.org/1999/xlink">
    <!-- Generator: Sketch 52.6 (67491) - http://www.bohemiancoding.com/sketch -->
    <title>google</title>
    <desc>Created with Sketch.</desc>
    <g id="Page-1" stroke="none" stroke-width="1" fill="none" fill-rule="evenodd">
        <g id="google">
            <path d="M4.6875,10 C4.6875,9.00910156 4.96050781,8.08085938 5.43480469,7.28605469 L5.43480469,3.91464844 L2.06339844,3.91464844 C0.7253125,5.65246094 -1.42108547e-14,7.77039063 -1.42108547e-14,10 C-1.42108547e-14,12.2296094 0.7253125,14.3475391 2.06339844,16.0853516 L5.43480469,16.0853516 L5.43480469,12.7139453 C4.96050781,11.9191406 4.6875,10.9908984 4.6875,10 Z" id="Path" fill="#FBBD00"></path>
            <path d="M10,15.3125 L7.65625,17.65625 L10,20 C12.2296484,20 14.3475391,19.2746875 16.0853516,17.9366016 L16.0853516,14.5687891 L12.7175391,14.5687891 C11.9157813,15.0448047 10.9836328,15.3125 10,15.3125 Z" id="Path" fill="#0F9D58"></path>
            <path d="M5.43480469,12.7139453 L2.06339844,16.0853516 C2.32832031,16.4294141 2.61679687,16.7589062 2.92894531,17.0710937 C4.81769531,18.9598047 7.32890625,20 10,20 L10,15.3125 C8.0615625,15.3125 6.36261719,14.26875 5.43480469,12.7139453 Z" id="Path" fill="#31AA52"></path>
            <path d="M20,10 C20,9.39160156 19.9449219,8.78207031 19.83625,8.18839844 L19.7483203,7.70796875 L10,7.70796875 L10,12.3954687 L14.7442187,12.3954687 C14.2835156,13.3119141 13.5751562,14.0596094 12.7175,14.5688281 L16.0853125,17.9366406 C16.429375,17.6717188 16.7588672,17.3832422 17.0710547,17.0710937 C18.9598047,15.1823047 20,12.6710938 20,10 Z" id="Path" fill="#3C79E6"></path>
            <path d="M13.7565234,6.24347656 L14.1708203,6.65777344 L17.4853906,3.34324219 L17.0710937,2.92894531 C15.1823437,1.04019531 12.6711328,0 10,0 L7.65625,2.34375 L10,4.6875 C11.4189844,4.6875 12.7530859,5.24007813 13.7565234,6.24347656 Z" id="Path" fill="#CF2D48"></path>
            <path d="M10,4.6875 L10,0 C7.32890625,0 4.81769531,1.04019531 2.92890625,2.92890625 C2.61675781,3.24105469 2.32828125,3.57054688 2.06335938,3.91464844 L5.43476563,7.28605469 C6.36261719,5.73125 8.0615625,4.6875 10,4.6875 Z" id="Path" fill="#EB4132"></path>
        </g>
    </g>
</svg>