<svg clip-rule="evenodd" fill-rule="evenodd" height="512" image-rendering="optimizeQuality" shape-rendering="geometricPrecision" text-rendering="geometricPrecision" viewBox="0 0 4000 4000" width="512" xmlns="http://www.w3.org/2000/svg"><g id="Layer_x0020_1"><g fill-rule="nonzero"><path d="m1206 3333h-134v-2666h134z" fill="#d1d8de"/><path d="m2660 3333h-1490v-2666h1886v2271z" fill="#eff2f4"/><path d="m944 1731v-779l128 126v780z" fill="#0096cc"/><path d="m944 1731v-779h1405v779z" fill="#00aeef"/><path d="m1214 1453h58c33 0 58-9 73-26s22-46 22-85-7-68-21-86-36-28-65-28h-66v225zm-70 63v-350h137c54 0 94 15 120 43 26 29 40 73 40 132 0 32-5 60-15 85-10 24-24 44-42 59-14 11-30 19-47 24-18 5-43 7-75 7h-117zm412-175c0 38 9 68 26 90 17 21 41 32 72 32s55-11 72-32 26-51 26-90c0-38-9-68-26-90-17-21-41-32-72-32s-55 11-72 32-26 51-26 90zm-73 0c0-56 15-101 46-134s72-50 125-50c52 0 94 17 125 50s46 78 46 134-15 101-46 134-73 50-125 50-94-17-125-50-46-78-46-134zm703 54c-3 40-18 71-46 95-28 23-64 35-109 35-52 0-92-16-121-48s-43-78-43-136c0-59 15-105 44-137s71-47 126-47c45 0 80 11 106 33s40 53 43 92h-71c-3-20-11-35-24-45s-31-16-53-16c-32 0-56 10-72 31-16 20-25 50-25 89 0 38 8 67 25 88 16 21 40 31 70 31 22 0 40-6 54-17s23-27 27-48h70z" fill="#fff"/><path d="m2660 2938h396l-396 395z" fill="#d1d8de"/></g><path d="m1722 2141h795v782h-795z" fill="#0096cc"/><path d="m1791 2209h657v646h-657z" fill="#fff"/><path d="m1982 2663 12-31 28-70 101-232h101v238c0 31-3 63-8 95 2-6 15-40 40-104l91-229h116l-191 440h-139v-186c0-31 1-64 4-97-7 27-18 62-36 105l-76 179h-131l-15-440h111l-3 220c-1 54-4 91-8 113z" fill="#0096cc"/></g></svg>