<svg clip-rule="evenodd" fill-rule="evenodd" height="512" image-rendering="optimizeQuality" shape-rendering="geometricPrecision" text-rendering="geometricPrecision" viewBox="0 0 4000 4000" width="512" xmlns="http://www.w3.org/2000/svg"><g id="Layer_x0020_1"><g fill-rule="nonzero"><path d="m1206 3333h-134v-2666h134z" fill="#d1d8de"/><path d="m2660 3333h-1490v-2666h1886v2271z" fill="#eff2f4"/><path d="m944 1731v-779l128 126v780z" fill="#2b77b5"/><path d="m2660 2938h396l-396 395z" fill="#cfd8df"/><path d="m944 1731v-779h1405v779z" fill="#4798da"/><path d="m1189 1385h70v42c0 12 4 21 11 28 7 6 18 10 31 10 15 0 25-4 31-12s9-22 9-44v-244h72v247c0 22-1 38-4 49-3 10-7 20-13 27-9 12-22 21-38 27s-35 9-56 9c-20 0-37-3-53-8-15-5-28-13-38-24-8-9-14-18-17-29s-5-28-5-52v-27zm366-57h70c19 0 32-4 41-12s13-21 13-39c0-17-4-29-13-38-8-9-21-13-38-13h-73v101zm0 63v124h-72v-350h155c37 0 64 10 83 29s28 47 28 84c0 36-9 64-28 83-18 20-45 29-79 29h-88zm504 83c-13 18-28 30-44 39-17 8-36 12-58 12-49 0-88-17-119-51-30-34-45-79-45-134 0-56 15-100 45-134 30-33 70-50 121-50 44 0 80 10 107 31 28 21 44 50 49 87h-73c-4-18-13-32-27-41s-32-14-54-14c-29 0-52 11-69 32s-25 51-25 89 9 68 26 89 41 32 72 32c23 0 42-7 57-20s25-32 28-55h-79v-60h145v189h-48z" fill="#fff"/></g><path d="m2517 2141h-796v778h796z" fill="#38a3ff"/><path d="m1893 2537 158 261c86-142 171-566 257-425l208 343v203h-796v-98c58-95 115-380 173-285z" fill="#007934"/><circle cx="1971" cy="2346" fill="#fff" r="95"/></g></svg>